<?xml version="1.0" encoding="UTF-8"?>
<svg xmlns="http://www.w3.org/2000/svg" version="1.1" viewBox="0 0 171.3 184">
  <defs>
    <style>
      .cls-1 {
        isolation: isolate;
      }

      .cls-2 {
        fill: none;
        stroke: #fff;
        stroke-linecap: round;
        stroke-linejoin: round;
        stroke-width: 2.1px;
      }

      .cls-3 {
        fill: #fff;
      }
    </style>
  </defs>
  <!-- Generator: Adobe Illustrator 28.6.0, SVG Export Plug-In . SVG Version: 1.2.0 Build 709)  -->
  <g>
    <g id="Layer_2">
      <g id="Layer_1-2">
        <g>
          <g class="cls-1">
            <g class="cls-1">
              <path class="cls-3" d="M17.3,32.1c-.5,0-.9-.2-1.2-.5-.3-.3-.5-.7-.5-1.2s.2-.9.5-1.2c.3-.3.7-.5,1.2-.5,1.1,0,1.9-.2,2.5-.4.6-.2,1-.5,1.2-1,.2-.5.3-1.1.3-1.9,0-.8,0-1.9-.1-3.3s-.1-2.8-.2-4.4c-1.4,1.4-2.9,2.9-4.6,4.4-1.7,1.5-3.4,3-5.2,4.3-1.7,1.4-3.4,2.5-4.9,3.5-.4.2-.8.3-1.3.1s-.8-.4-1-.8c-.2-.4-.3-.8-.2-1.3.1-.4.4-.8.8-1,1-.6,2.1-1.4,3.4-2.3,1.3-.9,2.6-1.9,4-3.1,1.4-1.1,2.7-2.3,4-3.4,1.3-1.2,2.5-2.3,3.6-3.4H6.4c-.5,0-.9-.2-1.2-.5-.3-.3-.5-.7-.5-1.2s.2-.8.5-1.2c.3-.3.7-.5,1.2-.5h14.2c0-1,0-1.9-.1-2.7,0-.8,0-1.4,0-1.9,0-.5.1-.9.5-1.2.3-.3.7-.5,1.2-.5.5,0,.9.2,1.2.5s.5.7.5,1.2c0,.6,0,1.3,0,2.1,0,.8,0,1.7.1,2.6h6c.5,0,.9.2,1.2.5.3.3.5.7.5,1.2s-.2.9-.5,1.2c-.3.3-.7.5-1.2.5h-5.8c0,1.9.2,3.9.3,5.8s.2,3.5.2,4.7c.1,2.4-.4,4.1-1.6,5.2-1.2,1-3.1,1.6-5.7,1.6Z"/>
              <path class="cls-3" d="M46.9,16.2c-.6-.5-1.3-1-2-1.6-.7-.6-1.5-1.1-2.2-1.6-.7-.5-1.4-1-2-1.3-.4-.2-.6-.6-.8-1-.1-.5,0-.9.2-1.3.2-.4.6-.7,1.1-.8.5-.1.9,0,1.3.2.6.4,1.3.9,2.2,1.5.8.6,1.7,1.2,2.5,1.8.8.6,1.5,1.1,1.9,1.5.4.3.6.7.6,1.1,0,.5,0,.9-.3,1.2-.3.4-.6.6-1.1.7-.5,0-.9,0-1.3-.4ZM43.1,30.4c-.4.2-.9.2-1.3,0-.4-.2-.7-.5-.9-1-.2-.4-.2-.9,0-1.3.2-.4.5-.7,1-.9,2-.7,4-1.6,6-2.6,2-1,3.9-2.1,5.8-3.3,1.8-1.2,3.5-2.4,5-3.7,1.5-1.3,2.8-2.5,3.8-3.7.3-.4.7-.6,1.1-.6.5,0,.9,0,1.2.4.4.3.6.7.6,1.1s0,.9-.4,1.2c-1,1.2-2.3,2.5-4,3.8-1.7,1.4-3.5,2.7-5.5,4-2,1.3-4.1,2.6-6.3,3.7-2.2,1.1-4.3,2-6.3,2.8Z"/>
              <path class="cls-3" d="M79.6,32.4c-.5.1-.9.1-1.3-.1-.4-.2-.7-.5-.8-1s-.1-.9.1-1.3c.2-.4.5-.7,1-.8,3.1-1,5.8-2.4,8.1-4.2,2.3-1.8,4-3.9,5.2-6.2.6-1.2.7-2.1.4-2.7-.3-.6-1.2-.9-2.6-.9h-13.1c-.6-.3-1-.6-1.3-.8-.3-.2-.4-.5-.4-.8,0-.5.2-.9.5-1.2.3-.3.7-.5,1.2-.5h13.1c3,0,4.9.8,5.8,2.3.9,1.5.7,3.6-.5,6-1.3,2.7-3.3,5.2-5.9,7.3-2.6,2.1-5.7,3.8-9.2,4.9ZM78.7,8.5c-.5,0-.9-.2-1.2-.5s-.5-.7-.5-1.2.2-.9.5-1.2c.3-.3.7-.5,1.2-.5h13.6c.5,0,.9.2,1.2.5.3.3.5.7.5,1.2s-.2.9-.5,1.2-.7.5-1.2.5h-13.6Z"/>
              <path class="cls-3" d="M121.3,33.2c-.5,0-.9-.2-1.2-.5s-.5-.7-.5-1.2v-15.8c-1.6,1.5-3.4,3-5.2,4.4s-3.6,2.7-5.5,3.8c-.4.2-.8.3-1.3.2-.5-.1-.8-.4-1.1-.8-.2-.4-.3-.8-.2-1.3.1-.5.4-.8.8-1,2.4-1.4,4.7-3,6.9-4.8,2.2-1.7,4.2-3.6,6.1-5.5,1.9-1.9,3.4-3.9,4.8-5.8.3-.4.6-.6,1.1-.7.5,0,.9,0,1.3.3s.6.6.7,1.1c0,.5,0,.9-.3,1.3-.6.9-1.3,1.8-2.1,2.8-.8.9-1.6,1.9-2.5,2.8v19.1c0,.5-.2.9-.5,1.2-.3.3-.7.5-1.2.5Z"/>
              <path class="cls-3" d="M148,16.2c-.6-.5-1.2-1-2-1.6-.7-.6-1.5-1.1-2.2-1.6-.7-.5-1.4-1-2-1.3-.4-.2-.6-.6-.8-1-.1-.5,0-.9.2-1.3.2-.4.6-.7,1.1-.8.5-.1.9,0,1.3.2.6.4,1.3.9,2.2,1.5.8.6,1.7,1.2,2.5,1.8.8.6,1.5,1.1,1.9,1.5.4.3.6.7.6,1.1,0,.5,0,.9-.3,1.2-.3.4-.6.6-1.1.7-.5,0-.9,0-1.3-.4ZM144.3,30.4c-.4.2-.9.2-1.3,0s-.7-.5-.9-1-.2-.9,0-1.3c.2-.4.5-.7,1-.9,2-.7,4-1.6,6-2.6,2-1,3.9-2.1,5.8-3.3,1.8-1.2,3.5-2.4,5-3.7,1.5-1.3,2.8-2.5,3.8-3.7.3-.4.7-.6,1.1-.6.5,0,.9,0,1.2.4.4.3.6.7.6,1.1s0,.9-.4,1.2c-1,1.2-2.3,2.5-4,3.8s-3.5,2.7-5.5,4c-2,1.3-4.1,2.6-6.3,3.7-2.2,1.1-4.3,2-6.3,2.8Z"/>
            </g>
            <g class="cls-1">
              <path class="cls-3" d="M33.2,60.1c-.4-.3-.9-.7-1.6-1.1-.7-.4-1.4-.8-2.1-1.2-.7-.4-1.3-.7-1.7-.9-.4-.2-.7-.5-.9-1-.1-.5-.1-.9,0-1.3.2-.4.5-.7,1-.8.4-.1.9-.1,1.3,0,.6.3,1.3.6,2,1.1.8.4,1.5.9,2.3,1.4s1.3.9,1.8,1.2c.4.3.6.7.6,1.2,0,.5-.1.9-.4,1.3-.3.3-.7.5-1.1.6-.5,0-.9,0-1.3-.3ZM31.3,71.8c-.4.1-.9.1-1.3-.1s-.7-.5-.8-1c-.1-.4-.1-.9.1-1.3.2-.4.5-.7,1-.8,1.9-.6,3.8-1.4,5.8-2.5,2-1,3.9-2.3,5.8-3.6s3.6-2.8,5.1-4.4c1.6-1.5,2.9-3.1,4-4.7.3-.4.6-.6,1.1-.7.5,0,.9,0,1.3.3.4.2.6.6.7,1.1,0,.5,0,.9-.3,1.3-1.1,1.6-2.5,3.3-4.2,4.9-1.7,1.7-3.6,3.3-5.7,4.8-2.1,1.5-4.2,2.9-6.4,4s-4.2,2.1-6.2,2.7ZM37.2,53.7c-.3-.3-.8-.7-1.5-1.2-.7-.5-1.3-.9-2-1.3-.7-.4-1.2-.8-1.7-1-.4-.2-.7-.6-.8-1-.1-.5,0-.9.2-1.3.2-.4.6-.7,1-.8.5-.1.9,0,1.3.2.6.3,1.2.7,2,1.2.7.5,1.5,1,2.2,1.5.7.5,1.3.9,1.7,1.3.3.3.5.7.5,1.2,0,.5-.1.9-.5,1.2-.3.3-.7.5-1.2.5-.5,0-.9-.1-1.2-.5Z"/>
              <path class="cls-3" d="M63.1,71.5c-.4,0-.8-.1-1.1-.4-.3-.3-.4-.6-.4-1.1s.1-.8.4-1.1.6-.4,1.1-.4h9.6c1,0,1.9,0,2.4-.3.6-.2,1-.5,1.2-1,.2-.5.4-1.3.4-2.4h-13.4c-.4,0-.8-.1-1.1-.4-.3-.3-.4-.6-.4-1s.1-.8.4-1.1.6-.4,1.1-.4h13.3c0-.9-.2-1.6-.5-2-.3-.4-.7-.7-1.2-.9-.5-.1-1.3-.2-2.3-.2h-9.1c-.4,0-.7-.1-1-.4s-.5-.6-.5-1.1.2-.8.5-1.1.7-.4,1-.4h9.1c1.8,0,3.3.2,4.3.7,1,.4,1.7,1.2,2.1,2.4.4,1.1.6,2.8.6,4.9s-.2,3.8-.6,4.9c-.4,1.1-1.1,1.9-2.1,2.4-1,.4-2.4.6-4.3.6h-9.6Z"/>
              <path class="cls-3" d="M95.5,63.2c-.4.2-.7.2-1.1,0-.4-.2-.7-.4-.8-.8-.4-.8-.8-1.6-1.2-2.4-.4-.8-.8-1.5-1.3-2.1-.2-.3-.3-.7-.3-1.1,0-.4.3-.7.6-1,.3-.2.7-.3,1.1-.3.4,0,.7.3,1,.6.3.4.6,1,1,1.6s.7,1.2,1,1.8c.3.6.6,1.1.8,1.6.2.4.2.8,0,1.2-.2.4-.4.7-.8.8ZM96.3,73.6c-.4.2-.7.2-1.1,0-.4-.1-.7-.4-.9-.8-.2-.4-.2-.8,0-1.2s.4-.7.8-.8c2.5-1.2,4.5-2.5,6.2-4,1.6-1.5,2.9-3.2,3.9-5.1,1-1.9,1.6-4.1,2-6.5,0-.4.3-.7.6-1,.3-.2.7-.3,1.1-.2.4,0,.7.3,1,.6.2.3.3.7.2,1.1-.7,4.1-2.2,7.6-4.4,10.5-2.2,2.9-5.3,5.3-9.3,7.3ZM101.3,61.8c-.4.1-.8,0-1.1,0-.4-.2-.6-.5-.8-.9-.3-.8-.6-1.6-1-2.5-.4-.9-.7-1.6-1-2.1-.2-.4-.2-.8-.2-1.2,0-.4.3-.7.7-.9.3-.2.7-.3,1.1-.2s.7.3.9.7c.2.4.5,1,.8,1.6.3.6.6,1.3.8,1.9.3.6.5,1.2.7,1.6.1.4,0,.8,0,1.1-.2.4-.5.6-.9.8Z"/>
              <path class="cls-3" d="M123.1,73c-.4.2-.8.2-1.3,0-.4-.2-.8-.5-1-.9-.2-.4-.2-.8,0-1.3.2-.4.5-.8.9-1,3.9-1.7,7.2-3.8,9.9-6.4,2.7-2.5,4.7-5.2,5.9-8.2.5-1.3.6-2.3.2-3.1-.4-.7-1.3-1.1-2.9-1.1h-14.2c-.5,0-.9-.2-1.2-.5-.3-.3-.5-.7-.5-1.2s.2-.9.5-1.2.7-.5,1.2-.5h14.2c2,0,3.5.4,4.6,1.1,1.1.8,1.7,1.8,2,3.1.2,1.3,0,2.8-.7,4.6-1.4,3.4-3.6,6.5-6.6,9.3-3,2.8-6.7,5.2-11,7.1ZM145.8,51.5c-1,0-1.8-.4-2.5-1.1-.7-.7-1.1-1.5-1.1-2.5s.4-1.8,1.1-2.5c.7-.7,1.5-1,2.5-1s1.8.3,2.5,1,1,1.5,1,2.5-.3,1.8-1,2.5c-.7.7-1.5,1.1-2.5,1.1ZM145.8,49.7c.5,0,.9-.2,1.3-.5.4-.4.5-.8.5-1.3s-.2-.9-.5-1.3-.8-.5-1.3-.5-.9.2-1.3.5c-.4.4-.5.8-.5,1.3s.2.9.5,1.3c.4.4.8.5,1.3.5Z"/>
            </g>
          </g>
          <g>
            <g id="Layer_1-3">
              <g id="Layer_1-2-2" data-name="Layer_1-2">
                <polyline class="cls-3" points="47 103.5 120.9 103.5 110.8 138.7 52.4 138.7"/>
                <polyline class="cls-2" points="115.9 158.8 55.5 158.8 45.5 93.5 30.4 93.5"/>
                <circle class="cls-3" cx="55.5" cy="179" r="5"/>
                <circle class="cls-3" cx="110.8" cy="179" r="5"/>
              </g>
            </g>
            <g id="Layer_1-4">
              <g id="Layer_1-2-2">
                <polyline class="cls-3" points="47 103.5 120.9 103.5 110.8 138.7 52.4 138.7"/>
                <polyline class="cls-2" points="115.9 158.8 55.5 158.8 45.5 93.5 30.4 93.5"/>
                <circle class="cls-3" cx="55.5" cy="179" r="5"/>
                <circle class="cls-3" cx="110.8" cy="179" r="5"/>
              </g>
            </g>
          </g>
        </g>
      </g>
    </g>
  </g>
</svg>