<?xml version="1.0" encoding="UTF-8"?>
<svg xmlns="http://www.w3.org/2000/svg" version="1.1" viewBox="0 0 510 510">
  <!-- Generator: Adobe Illustrator 28.6.0, SVG Export Plug-In . SVG Version: 1.2.0 Build 709)  -->
  <g>
    <g id="Layer_1">
      <g id="Layer_1-2" data-name="Layer_1">
        <g>
          <path d="M143.8,510C64.5,510,0,445.4,0,366.1v-222.3C0,64.5,64.5,0,143.8,0h222.3c79.3,0,143.8,64.5,143.9,143.8v222.3c0,79.3-64.6,143.9-143.9,143.9h-222.3ZM143.9,15.3C73,15.3,15.4,72.9,15.4,143.8v222.3c0,70.9,57.6,128.5,128.5,128.5h222.3c70.9,0,128.5-57.6,128.5-128.5v-222.3c0-70.9-57.6-128.5-128.5-128.5h-222.3Z"/>
          <path d="M255,377.2c-67.4,0-122.2-54.8-122.2-122.2s54.8-122.2,122.2-122.2,122.2,54.8,122.2,122.2-54.8,122.2-122.2,122.2ZM255,148.1c-58.9,0-106.9,48-106.9,106.9s48,106.9,106.9,106.9,106.9-48,106.9-106.9-48-106.9-106.9-106.9ZM397.4,127.9c-7.7,0-14-6.3-14-14s1.4-14.1,14.1-14.1,7.3,1.5,9.9,4.1,4.1,6.1,4.1,9.8h0c0,7.8-6.2,14.1-13.9,14.1h-.2Z"/>
        </g>
      </g>
    </g>
  </g>
</svg>