<?xml version="1.0" encoding="UTF-8"?>
<svg xmlns="http://www.w3.org/2000/svg" version="1.1" viewBox="0 0 550 550">
  <!-- Generator: Adobe Illustrator 28.6.0, SVG Export Plug-In . SVG Version: 1.2.0 Build 709)  -->
  <g>
    <g id="Layer_1">
      <path d="M386.1,0h-222.3C73.4,0,0,73.4,0,163.8v222.3c0,90.5,73.4,163.8,163.8,163.9h222.3c90.5,0,163.8-73.4,163.9-163.9v-222.3C549.9,73.4,476.6,0,386.1,0ZM494.7,386.1c0,59.9-48.6,108.5-108.5,108.5h-222.3c-59.9,0-108.5-48.6-108.5-108.5h0v-222.3c0-59.9,48.6-108.5,108.5-108.5h222.3c59.9,0,108.5,48.6,108.5,108.5v222.3Z"/>
      <path d="M275,132.8c-78.5,0-142.2,63.8-142.2,142.2s63.8,142.2,142.2,142.2,142.2-63.8,142.2-142.2-63.7-142.2-142.2-142.2ZM275,361.9c-48,0-86.9-38.9-86.9-86.9,0-48,38.9-86.9,86.9-86.9,48,0,86.9,38.9,86.9,86.9,0,48-38.9,86.9-86.9,86.9ZM417.5,99.8c18.8,0,34.1,15.3,34,34.1,0,18.8-15.3,34.1-34.1,34-18.8,0-34-15.3-34-34,0-18.8,12.8-34.1,34.1-34.1Z"/>
    </g>
  </g>
</svg>