<?xml version="1.0" encoding="UTF-8"?>
<svg xmlns="http://www.w3.org/2000/svg" version="1.1" viewBox="0 0 115.9 128.5">
  <defs>
    <style>
      .cls-1 {
        fill: #fafbea;
      }

      .cls-2 {
        fill: #fbc0f6;
      }

      .cls-3 {
        fill: #fbfafa;
      }

      .cls-4 {
        fill: #724d41;
      }

      .cls-5 {
        fill: #714a3d;
      }

      .cls-6 {
        fill: #fdfae9;
      }

      .cls-7 {
        fill: #fbfbfa;
      }

      .cls-8 {
        stroke: #745853;
        stroke-linecap: round;
        stroke-linejoin: round;
        stroke-width: .7px;
      }

      .cls-8, .cls-9 {
        fill: none;
      }

      .cls-10 {
        fill: #724b3d;
      }

      .cls-11 {
        fill: #faf8f5;
      }

      .cls-12 {
        fill: #704c3f;
      }

      .cls-9 {
        stroke-width: 1.1px;
      }

      .cls-9, .cls-13, .cls-14 {
        stroke: #fff;
        stroke-miterlimit: 10;
      }

      .cls-15 {
        fill: #fff;
      }

      .cls-16 {
        fill: #fdfce7;
      }

      .cls-17 {
        fill: #fdf5ed;
      }

      .cls-18 {
        fill: #7c594e;
      }

      .cls-13 {
        stroke-width: .7px;
      }

      .cls-13, .cls-14, .cls-19 {
        fill: #a1d9fe;
      }

      .cls-14 {
        stroke-width: .6px;
      }

      .cls-20 {
        fill: #febcf9;
      }

      .cls-21 {
        fill: #724e42;
      }

      .cls-22 {
        fill: #734e42;
      }

      .cls-23 {
        fill: #734f44;
      }

      .cls-24 {
        fill: #745853;
      }

      .cls-25 {
        fill: #714b3d;
      }

      .cls-26 {
        fill: #724c40;
      }
    </style>
  </defs>
  <!-- Generator: Adobe Illustrator 28.6.0, SVG Export Plug-In . SVG Version: 1.2.0 Build 709)  -->
  <g>
    <g id="Layer_2">
      <g id="Layer_1-2">
        <g>
          <g>
            <path class="cls-5" d="M82.5,75c-.8.6-1.6,1.1-2.6,1.4-1,.2-2,.1-2.9,0-.4,0-.7,0-1,0-2.5,1.1-5.1,1.3-7.7.7-.8-.2-1.5,0-2.2.3-4.1,2-8.2,1.8-12.4.3-.3-.1-.6-.3-.9-.4-.2,0-.3-.2-.2-.4,0-.2.2-.3.4-.3.3,0,.5,0,.8.2,4,1.7,7.9,1.8,11.8,0,.9-.5,1.9-.6,2.9-.4,2.4.5,4.8.4,7.1-.7.6-.3,1.3-.2,2,0,1.5.3,2.8,0,3.9-1,.7-.5,1.3-1.1,2-1.6.1-.1.3-.2.4-.2.2,0,.4,0,.5.2,0,.2,0,.3,0,.4-.2.4-.8.5-.8,1,0,1.6.3,3,1.6,4.1.8.6,1.7,1.1,2.7,1.2,2,.4,4,.5,5.8-.5.9-.5,1.7-1.2,2.3-2.1.1-.2.3-.3.5-.4.6-.3,1.1-.6,1.7-.9,2.1-1.4,2.7-3.4,2.4-5.8-.3-2.3-1.2-4.2-2.7-5.9-.8-.9-1.7-1.6-2.8-1.8-.8-.2-1.2-.7-1.3-1.5-.3-2-.9-4-2.1-5.7-.5-.8-1.1-1.5-1.9-1.9-.5-.2-.5-.7-.6-1.2-.4-2-1-3.9-2-5.8-1.3-2.5-3.2-4.2-5.9-5.1-1.8-.6-3.6-.2-5.2.8.5.3,1,.7,1.4,1,.3.2.6.5.9.8.2.2.3.5,0,.7-.2.2-.6.3-.8,0-1.9-2-4.3-2.9-6.9-3.5-2.5-.6-5-.3-7.2,1.1-.3.2-.6.1-1,0-3.8-1.4-7.6-1.3-11.2.9-.6.3-1.1.8-1.6,1.2-.3.3-.7.4-1,0-.3-.3,0-.6.2-.8.5-.5,1.1-.9,1.7-1.3-.3-.3-.7-.4-1.1-.5-2.3-.6-4.6-.5-6.9.5-2.5,1.1-4.8,2.7-6.2,5.1-.5.8-1.2,1.4-1.8,2.1-1.3,1.5-2.4,3.1-3,5-.2.9-.4,1.9-.4,2.8,0,.5-.2.6-.6.8-2.1.8-3.4,2.2-3.9,4.4-.3,1.3-.5,2.7-.6,4.1,0,.2,0,.5-.3.6-1.7,1.6-2,3.6-2,5.7,0,.9.2,1.7.7,2.5.4.6.9,1,1.4,1.4,1.3.8,2.7,1.4,4.1,2.1,2.1,1,4.8.2,6.2-1.7.3-.4.6-.9.9-1.3,0-.1.2-.3.4-.4.2-.2.4-.1.6,0,.2.2.1.3,0,.5-1.9,4-6.6,5.2-9.7,3-.5-.3-1-.5-1.5-.7-1.9-.8-3.5-1.8-4-3.9-.7-2.8-.2-5.4,1.7-7.7.2-.2.2-.4.3-.7.1-1.5.4-2.9.8-4.3.5-1.9,1.7-3.2,3.4-4.1.6-.3.8-.6.8-1.2.2-3.4,2-6,4.3-8.4.4-.4.7-.9,1-1.4,3-4,6.9-6.4,12.1-6.2,1.3,0,2.6.3,3.7,1.1.2.1.3,0,.5,0,3.5-1.6,7-1.6,10.6-.5.2,0,.4.1.7,0,3-1.5,6-1.5,9.1-.6.8.2,1.5.5,2.2.8.3.2.5.1.8,0,.9-.4,1.8-1,2.8-1.1,2.4-.5,4.5.3,6.5,1.6,2.3,1.5,3.6,3.7,4.6,6.2.5,1.3.8,2.7,1.2,4,0,.2.1.4.3.5,1.8,1.3,2.7,3.1,3.4,5,.4,1,.6,2.2.9,3.2,0,.2,0,.4.3.5,1.9.5,3.3,1.8,4.3,3.5,1.3,2,2.1,4.2,2,6.7,0,2.1-1,3.8-2.8,5-.6.4-1.2.7-1.8,1-.1,0-.3.1-.4.3-.8,1.4-2,2.3-3.5,2.7-2.6.7-5.2.6-7.7-.6-2-.9-2.9-2.6-3.1-4.8h0Z"/>
            <path class="cls-25" d="M45.5,76.1c.4,0,.9,0,1.3,0,.3,0,.6,0,.7.3,0,.4-.3.4-.6.4-1.3.3-2.7.1-4,0-1.7-.3-3.3-.9-4.7-2-.5-.4-1.1-.6-1.7-.9-.3-.2-.6-.3-.9-.6-2.2-1.5-2.3-3.8-2-6.1.2-1.6,1-2.9,2.1-4.1.2-.2.3-.3.3-.5.5-4.2,2.7-7.7,5.1-11,.8-1.1,1.7-2,2.7-2.9.3-.2.6-.5,1-.6.3,0,.5,0,.7.2.1.2,0,.4-.1.5-1.6.9-2.7,2.4-3.8,3.8-1.7,2.3-3.1,4.6-3.9,7.3-.3.9-.4,1.9-.5,2.8,0,.3-.1.5-.3.7-1.8,1.6-2.3,3.6-2.1,5.9,0,.6.2,1.1.4,1.7.4,1.1,1.4,1.7,2.4,2.2.7.3,1.3.7,2,1.2,1.8,1.3,3.9,1.7,6.1,1.7h0Z"/>
            <path class="cls-25" d="M89.3,66.8c0,2.6-1.3,3.9-2.7,5.1-.3.3-.7.6-1.1.7-.3,0-.6.2-.8-.2-.2-.3.1-.5.3-.6,1-.8,1.9-1.5,2.5-2.6.8-1.5.8-3.1-.3-4.5-.2-.2-.3-.5-.6-.6-.5-.2-.7-.6-.7-1.1,0-4.4-1.6-8.3-4-11.9-.3-.5-.6-1-1-1.5-.2-.2-.4-.5-.7-.6-.3-.1-.3-.4,0-.7.4-.3.9-.2,1.3.4.6.9,1.3,1.8,1.8,2.7,1.7,2.7,2.9,5.6,3.4,8.8.1.9.2,1.8.3,2.7,0,.2,0,.4.3.5,1.4,1,1.9,2.3,1.9,3.4h0Z"/>
            <path class="cls-10" d="M54,57.7c2.1,0,3.5,1.6,2.9,3.5-.5,1.8-2.7,3.3-4.4,2.9-2.4-.5-2.8-2.1-2-4.2.5-1.4,1.9-2.2,3.5-2.2Z"/>
            <path class="cls-10" d="M61.5,61.7c.4,0,.9,0,1.2.5.3.5,0,1-.2,1.4-.3.5-.7,1-1.3,1.3-.2,0-.4.2-.3.4,0,.2.3.3.6.3.5,0,.9-.3,1.2-.7.3-.3.7-.7,1.2-.5.6.2.8.7.9,1.3,0,.9-.6,1.9-1.5,2.2-.8.3-1.7,0-2.2-.8-.2-.2-.2-.5-.2-.7s0-.4-.2-.5c-.2-.1-.4,0-.5.2-.4.3-.8.6-1.4.7-.4,0-.7,0-1-.3-.1-.1-.3-.2-.1-.4.1-.2.3-.2.5,0,.7.4,1.5.2,2-.5.2-.2.1-.4-.1-.5-.8-.3-1-1.1-1.4-1.7-.2-.3.3-1,.8-1.2.6-.3,1.2-.5,2-.5h0Z"/>
            <path class="cls-26" d="M41.1,67.9c.2-.8.5-1.6,1-2.4.4-.7.8-1.4,1.2-2.2,0-.2.2-.3.3-.4.2-.2.4-.3.7,0,.3.2.1.4,0,.6-1,1.3-1.7,2.7-2.1,4.2,0,.2-.1.4-.1.6,0,.3,0,.5-.4.5-.3,0-.4-.3-.3-.7h0Z"/>
            <path class="cls-12" d="M75.2,66.9c.2-.7.4-1.4.8-2.1.3-.6.6-1.3,1-1.8.2-.2.4-.4.6-.5.2,0,.4,0,.5.2,0,.2,0,.3-.1.4-1.1,1.1-1.7,2.5-2.1,4,0,.2,0,.5-.4.4-.3,0-.4-.2-.3-.6h0Z"/>
            <path class="cls-4" d="M46.2,64.8c-.4.5-.7,1-.9,1.6-.1.3-.2.6-.6.4-.4-.2-.2-.4,0-.7.2-.6.5-1.1.8-1.5.3-.5.5-.5,1-.1,0,0,0,0,.1,0,.3,0,.6,0,.6.3,0,.4-.1.9-.5,1.2-.2.2-.5,0-.5-.3,0-.3,0-.5,0-.9h0Z"/>
            <path class="cls-21" d="M77.3,65.3c0-.5.4-1,.7-1.5.1-.2.4-.2.6,0,.2.2.2.4,0,.6-.3.4-.7.8-.7,1.4,0,.2-.2.2-.4.2-.3,0-.4-.3-.4-.7h0Z"/>
            <path class="cls-22" d="M78.8,65.1c0-.5.3-1,.6-1.4.1-.2.3-.2.5,0,.2.1.2.3.1.5-.2.4-.5.8-.5,1.3,0,.2-.2.2-.4.2-.2,0-.3-.2-.3-.5Z"/>
            <path class="cls-23" d="M81.4,64.2c-.2.4-.5.9-.8,1.4,0,.2-.3.1-.5,0s-.1-.3,0-.4c.2-.5.5-.9.6-1.4,0-.2.2-.2.4-.2.2,0,.3.2.3.5Z"/>
            <path class="cls-18" d="M47,65.6c0-.6.5-1.3.8-1.2.2,0,.4.1.4.4,0,.5-.6,1.2-.9,1.2-.2,0-.3-.2-.3-.4h0Z"/>
            <path class="cls-24" d="M66.7,55.6c.2,0,.5-.2.7-.4.1-.2.3-.2.4,0,.1.2,0,.3-.1.4-.3.3-.7.6-1.2.5-.2,0-.4,0-.3-.3,0-.2.2-.2.5,0h0Z"/>
            <path class="cls-7" d="M52.9,61.1c.6,0,.9.3,1,.8,0,.7-.6,1.2-1.2,1.3-.6,0-.9-.3-.9-.8s.5-1.3,1.2-1.3h0Z"/>
            <path class="cls-3" d="M54.6,58.9c0,.7-.7,1.4-1.4,1.4-.4,0-.7-.3-.7-.8,0-.5.8-1.2,1.4-1.2s.7.2.6.6Z"/>
            <path class="cls-11" d="M55.6,61.5c-.4,0-.6-.2-.6-.6,0-.4.3-.7.7-.7.3,0,.6.2.6.6,0,.4-.2.7-.7.7h0Z"/>
            <path class="cls-2" d="M62.6,65.8c.2.3.2.5.2.8s0,.2.2.2c0,0,.1-.1.1-.2,0-.2,0-.5,0-.7,0-.2-.1-.3,0-.5.2-.1.3-.5.6-.4.3,0,.4.4.5.7.2.8-.5,1.8-1.4,1.9-.5,0-.9-.2-1.1-.7-.2-.4-.2-.8.3-.9.2,0,.3-.2.5-.2Z"/>
          </g>
          <path class="cls-13" d="M19.2,38.2c-.5,0-1.1,0-1.7-.1-2.1-.5-3.2-2.6-2.8-4.6.3-1.4.5-2.9,1.2-4.2.2-.3,0-.5-.3-.8-1.3-1.1-1.6-3.5-.6-4.9.4-.5.5-.9.1-1.6-.7-1.2-.9-2.5-.3-3.8,0-.2.1-.4.2-.6,0-.2.2-.5,0-.7-.2-.2-.5,0-.7.1-1.2.4-2.2,1.2-3.4,1.4-1.6.3-3.3.4-4.9,0-1.6-.5-3.1-1.1-4.2-2.5-1.8-2.2-2.2-5.8,0-8.3,1.4-1.6,2.9-2.8,5-3.2,1.6-.3,3.2-.5,4.7,0,1,.3,1.8-.1,2.7-.4.6-.2,1.2-.4,1.8-.5,2-.2,3.9,0,5.7,1,.2.2.5,0,.7,0,1.7-.8,3.5-1.3,5.4-1.5,1.7,0,3.3.3,4.8,1.2.3.2.7.3,1.1.3,1.7,0,3.3.2,4.7,1,2.3,1.2,3.8,3.4,3,6.2-.4,1.3-1.2,2.3-2.3,3-1.9,1.2-4,1.6-6.3,1.1-.8-.2-1.6,0-2.3.3-.7.3-1.3.5-2.1.5-.9,0-1.6.6-2.5.6-.4,0-.5.4-.3.7.3.8.4,1.6.7,2.4.1.3,0,.6,0,.9-.2.8-.1,1.6-.5,2.3-.5.7-.5,1.6-.6,2.4,0,.6,0,1.3-.2,1.9,0,.5.2,1.1.4,1.6.4,1.8,0,3.3-.6,5-.6,1.7-1.9,2.7-3.4,3.6-.7.4-1.4.2-2.2.3h0Z"/>
          <path class="cls-14" d="M113.8,7.9c0,1.4-.6,2.9-1.7,4.1-.2.3-.3.4,0,.8,1.4,1.8,1.4,3.7.7,5.7-.2.6-.4,1.1-1,1.6-.3.2-.3.6,0,.9,1.6,2.3.4,4.6-1.3,6,0,0-.2.1-.2.1-.8.6-.8.6-.2,1.3.6.8.8,1.7.9,2.6.2,2.2-.1,4.3-1.8,5.9-.9.9-2,1.4-3.3,1.5-.5,0-.9.2-1.4.3-1.5.2-2.8-.2-4.1-.9-.6-.4-1.2-.6-1.7-1.2-.5-.8-.7-1.6-.8-2.5,0-.5,0-.9-.2-1.4-.3-1.3,0-2.5.6-3.6.2-.4.2-.6,0-.9-.9-1-1.2-2.1-1.1-3.4.1-1,.5-1.8,1-2.7.2-.3.2-.5,0-.8-1-1.2-1.1-2.6-.8-4,.3-1.4.7-2.9,1.7-4,.6-.6.6-1.1.3-1.9-.6-1.6-.4-3.1.5-4.6,1.5-2.5,3.7-4.1,6.5-4.6,1.8-.3,3.6.3,5,1.4,1,.8,1.8,1.8,2.2,3,.1.4.2.7.2,1.3h0Z"/>
          <g>
            <path class="cls-13" d="M78.4,16c.9-.1,1.7.2,2.5.5.3.1.5.4.7.7,1,1.3,1.4,2.8.9,4.4-.2.6-.3,1.1-.2,1.7.1,1,0,2-.3,3-.2.7,0,1.2.7,1.5,1.8,1,3.7-.2,4-2.2.2-1.5.4-3.1,1.2-4.5.8-1.3,1.5-2.5,2.9-3.1,1.4-.6,2.8-.5,4.3,0,1.2.4,1.9,1.3,2.5,2.3.5.8.6,1.7,0,2.6-.4.6-.3,1.3-.7,1.9,0,0,0,.2,0,.3.9,1.6.6,3.1-.4,4.5-.2.3-.2.5.1.8,1.2.8,1.7,2.1,1.3,3.5-.3,1.2-1.6,2.3-2.8,2.6-1.3.3-2.6.2-3.9.1-1.2,0-1.9-.9-2.6-1.6-.4-.4-.6-.5-1.1,0-1.7,1.5-3.7,2.1-6,1.9-1.4,0-2.8-.2-4.1-.8-1.2-.5-2.1-1.2-2.8-2.3-.6-1-1.2-1.9-1.3-3.1,0-.6-.7-1.1-.9-1.8-.4-1.3,0-2.5.5-3.7.2-.3.4-.6.1-1-.6-1-.6-2-.3-3,.3-1.2.9-2.3,1.6-3.2,1-1.2,2.3-2,4.1-1.9h0Z"/>
            <g>
              <path class="cls-15" d="M75.8,27c.8-.1,1.3.7,1.3,1.4,0,.7.2,1.3.3,2,0,.2.2.5.4.7.2.2.3.5.4.8,0,.4.2.8-.2,1-.4.3-.8.2-1.2,0-1-.4-1.4-1.2-1.6-2.1-.2-.9-.5-1.8-.4-2.8,0-.7.4-1.1,1.1-1.1Z"/>
              <path class="cls-15" d="M78.5,33.9c0-.6.4-1,.8-1s1.2.5,1.2,1.1c0,.6-.4.9-1,.9-.7,0-1-.3-1-1h0Z"/>
            </g>
          </g>
          <path class="cls-14" d="M44.7,19.3c.2-1.9,1.5-2.9,3.1-3.6,1.4-.6,2.9-1,4.4-.8.7,0,1.3.3,1.9.4.2,0,.5.2.7,0,.2-.2.1-.5,0-.7-.8-2-.6-3.8.5-5.6.2-.3.2-.6.2-.9.3-2.1,1.4-3.6,3.3-4.6.4-.2.7-.6,1-.9,2.3-2.2,5-2.7,8-1.8,1.3.4,2.3,1.1,3.2,2,.2.2.4.4.7.5,1.4.5,2.4,1.4,3.2,2.7.3.6.8,1,1.2,1.5,1.2,1.6,1,3.7-.4,5.2-2,2.2-4.1,2.2-6.6,1.1-.4-.2-.5-.7-1-.8-1.5-.2-1.9.6-1.9,1.9,0,1.1.3,1.2,1.3.7,2.2-1.1,4.4-.8,6.4.5,1.4.9,2,2.2,1.8,3.9-.2,1.3-1.7,3.1-3.6,3.1-1,0-1.9-.1-2.9-.5-.7-.3-1.6-.4-2.3-.8-.1.5.1,1,0,1.5,0,.6,0,1.3-.3,1.9-.2.4,0,.8.2,1.1.8.8,1.5,1.7,1.6,3,0,.5,0,1-.1,1.4-.1,1.3-.5,2.7-1.3,3.7-.9,1.2-2.4,1.9-3.9,2-2.3.3-4.3-.5-6-1.9-1.1-1-2-2.2-2.3-3.8-.3-1.5-.5-3.1,0-4.6,0-.1,0-.3,0-.4-.5-1-1-2.1-.9-3.3-1.2,1.4-2.9,1.5-4.5,1.5-1.8,0-3.1-.8-4.2-2.1-.5-.4-.8-1.6-.6-2.2h0Z"/>
          <g>
            <path class="cls-9" d="M51.3,29.6c0,.2-.3.4-.5.5-.4,1-.9,1.9-1.8,2.6-1.1.8-2,1.9-3.3,2.4-1.3.5-2.6.8-4,.7-.5,0-.5-.3-.3-.6.8-1.4,1-2.9,1-4.5,0-1.5-.5-2.8-1.3-4s-.3-.5,0-.7c1-1.5.9-2.4-.2-3.4-.3-.3-.7-.4-1.1-.4-1.1,0-2.5.6-3,1.8-.3.8-.5,1.6-.9,2.3,0,0,0,.1-.1.1,0,0,0,0,.1-.1.6,1.3,2,1.7,3.5,1,1.1-.5,1.1-.5,1.6.6,1.2,2.6.8,5-.5,7.4-.3.5-.8.4-1.1.2-1.1-.6-2.2-.5-3.5-.3-2.2.3-4.4,0-6.2-1.6-.9-.8-2-1.3-2.9-2.1-1.7-1.4-2.6-3.8-1.9-5.8.3-.8.3-1.5.4-2.3,0-.9.4-1.8,1.1-2.5.7-.8,1.5-1.5,2.5-1.9.2,0,.4-.3.5-.5.8-2,2.5-3.1,4.3-4.1.4-.2.8-.3,1.3-.3.6,0,1-.2,1.5-.5.7-.6,1.5-.8,2.5-.8,1.4,0,2.8,0,4.1.6,1.1.4,2,1.1,2.7,1.9.4.4.7.6,1.2.7,1.7.4,3,1.3,3.8,2.9,0,0,.1.1.2.2,0,.8.3,1.5.6,2.2-.2,1.3.2,2.5.4,3.8.3,1.5,0,2.9-.5,4.3h0Z"/>
            <g>
              <path class="cls-20" d="M50.8,19.3c0,.8.3,1.5.6,2.2-.2,1.3.2,2.5.4,3.8.3,1.5,0,2.9-.5,4.3,0,.2-.3.4-.5.5-.6.4-1.1,0-1.5-.3-.4-.3-.7-.4-1,.1-.2.3-.5.5-.8.8-.9.9-1.8.9-2.7,0-.6-.6-.8-1.4-.9-2.2-.2-1.3-.8-2-2.1-2-.3,0-.8,0-.9-.5,1-1.5.9-2.4-.2-3.4-.3-.3-.7-.4-1.1-.4-1.1,0-2.5.6-3,1.8-.3.8-.5,1.6-.9,2.3-.8.9-2.4,1.5-3.6.7-.6-.4-1.2-.6-2-.5-1.2.2-1.9-.6-2.5-1.5-.6-1-1-2.1-1.2-3.4,0-.2-.1-.4-.2-.7.7-.8,1.5-1.5,2.5-1.9.2,0,.4-.3.5-.5.8-2,2.5-3.1,4.3-4.1.4-.2.8-.3,1.3-.3.6,0,1-.2,1.5-.5.7-.6,1.5-.8,2.5-.8,1.4,0,2.8,0,4.1.6,1.1.4,2,1.1,2.7,1.9.4.4.7.6,1.2.7,1.7.4,3,1.3,3.8,2.9,0,0,.1.1.2.2h0Z"/>
              <path class="cls-19" d="M26.3,21c.2,0,.4,0,.4.4,0,1.3.5,2.4,1.1,3.5.5.8,1.1,1.6,2.2,1.4.8-.1,1.6,0,2.3.5.7.5,1.6.5,2.4-.1.3-.2.8,0,1-.4.6,1.3,2,1.7,3.5,1,1.1-.5,1.1-.5,1.6.6,1.2,2.6.8,5-.5,7.4-.3.5-.8.4-1.1.2-1.1-.6-2.2-.5-3.5-.3-2.2.3-4.4,0-6.2-1.6-.9-.8-2-1.3-2.9-2.1-1.7-1.4-2.6-3.8-1.9-5.8.3-.8.3-1.5.4-2.3,0-.9.4-1.8,1.1-2.5h0Z"/>
              <path class="cls-19" d="M41,25.9c.2.3.6.3.9.3,1.1-.2,2.3,1,2.3,2.2,0,1.1.4,2.2,1.6,2.7.5.2.9.2,1.2-.2.4-.5,1-.8,1.3-1.4.2-.4.6-.3.9,0,.5.4,1,.7,1.6.6-.4,1-.9,1.9-1.8,2.6-1.1.8-2,1.9-3.3,2.4-1.3.5-2.6.8-4,.7-.5,0-.5-.3-.3-.6.8-1.4,1-2.9,1-4.5,0-1.5-.5-2.8-1.3-4-.2-.3-.3-.5,0-.7h0Z"/>
            </g>
          </g>
          <g>
            <path class="cls-6" d="M34.9,15.6c.3,0,.6,0,.7.4.2.3,0,.6-.3.8-.6.6-1.5.8-2,1.5-.3.4-.7.6-1.2.6-.5,0-.8-.3-.6-.8.6-1.2,1.6-2,2.7-2.5.2,0,.4,0,.5,0Z"/>
            <path class="cls-17" d="M31.1,19.5c.3.1.8.1.7.7,0,.4-.8.9-1.1.8-.4,0-.6-.4-.5-.8,0-.3.6-.8,1-.7h0Z"/>
          </g>
          <g>
            <g>
              <path class="cls-14" d="M102.3,96.6c-1.9-1-2.2-4-1.5-5.6.4-1,.9-1.8,1.6-2.6.2-.2.3-.4,0-.7-1.8-1.6-1.7-3.5-1-5.6.5-1.6,1.5-2.9,2.8-3.9,1-.8,2.2-1.2,3.4-1.4,1.2-.2,2.5-.3,3.8,0,2,.3,3.3,1.4,3.8,3.3.4,1.4.6,2.7,0,4.1-.3.8-.8,1.3-1.4,1.8-.4.3-1,.7-1.1,1.1-.1.5.6.7.9,1.1.5.7.8,1.4.8,2.3.2,2.2.1,4.3-1.7,5.9-.3.3,0,.5,0,.7.6,1,1.1,2.2,1,3.4,0,1.3-.3,2.6-1.3,3.7-.5.5-.8.9-.1,1.8,1.2,1.7,1.1,3.5-.1,5.2-1,1.4-2.1,2.7-3.7,3.3-2,.8-4,1.1-6.1.4-1.4-.5-2.6-1.3-2.8-2.9-.2-1.7.1-3.3,1-4.7.3-.5.4-.9-.1-1.4-1.8-1.7-1.8-4.7-.4-6.5.3-.4.6-.9.9-1.3.3-.4.7-.8,1.1-1.2h0Z"/>
              <g>
                <path class="cls-16" d="M109.2,111.9c-.9,0-1.1-.3-.8-1,.2-.5.7-.9.8-1.6.2-.7.1-1.3-.1-1.9,0,0,0-.1,0-.2-.2-.5-.3-1.1.3-1.4.5-.3,1.1,0,1.5.3.7.6.9,1.5.8,2.4,0,1.2-.5,2.3-1.5,3.1-.3.2-.6.5-1,.3h0Z"/>
                <path class="cls-1" d="M110.8,102.3c.4,0,.7.1.7.6,0,.7-.7,1.6-1.3,1.6s-.6-.3-.6-.7c0-.8.6-1.4,1.2-1.5h0Z"/>
              </g>
            </g>
            <path class="cls-13" d="M100.2,103.2c-1.1-.9-2.3-1.3-3.6-.6-.3.1-.5.3-.8.4-.7.2-1,.7-1.2,1.3-.5,1.8-1.6,2.9-3.5,3.2-2.5.4-4.4-.9-5-3.3,0-.2,0-.4,0-.7,0-.4.1-.4.5-.3.8.3,1.6.5,2.3.4,2.4,0,3.8-.5,5.5-2,.2-.2.4-.2.7-.2,3,0,5.4-2.9,4.8-6.1-.3-1.6-1.4-2.9-1.1-4.7,0,0,0,0,0-.1-.2-.9-.9-1.5-1.6-2.1-1.3-1-2.7-1.9-4.4-2-1.2,0-2.2.3-3.3.7-.4.2-.7.3-1.1.2-.7-.2-1.3-.2-2,0-1.1,0-2.1.2-3,.9-1.1.8-1.7,1.8-2.4,2.9-.4.6-.9,1.1-1.1,1.8-.3,1.5-.8,2.9-.6,4.5,0,.8-.2,1.5-.5,2.2-.1.3-.3.5-.4.8-.7,1.9-.8,3.8.4,5.6.5.7.5,1.4.5,2.1,0,1.1.3,2.2,1,3,1.3,1.6,4.8,3.3,7.4,1.6.2-.1.4-.1.6,0,1.7.9,3.5,1,5.2.3.9-.4,1.9-.5,2.9-.5,2.3-.1,3.7-1.5,3.6-3.8,0-.3,0-.5.3-.8.4-.4.9-.8,1.1-1.4.4-1.3,0-2.4-.9-3.2h0ZM87,97.4c.3-1.4.8-2.7,2-3.7.3-.2.6-.4,1-.5.9-.2,1.8.7,1.7,1.9-.4,1-.7,2.3-1.6,3.2-.6.6-1.5.6-2.3.6-.4,0-.9-.9-.7-1.6Z"/>
            <path class="cls-14" d="M80.2,92.9c-.6-1.2-.6-2.3-.6-3.6s0-1.2-.3-1.8c-.4-1.3-1.2-2.4-2.4-3.2-1.7-1.1-3.6-1.5-5.6-1.1-.7.2-1.3.2-2,0-.4-.2-.9-.3-1.4-.3-1.7-.1-3.1.4-4.4,1.4-1.8,1.3-3.4,2.8-4,5.1,0,.3-.2.5-.5.7-2.5,1.5-4.1,3.6-3.9,7-.2,1.2.1,2.6,1.2,3.7.2.2.2.5.2.8,0,2.4.9,3.5,2.9,4.3,1.7.7,3.5.6,5.2.2,2.4-.5,4.2-2,5.5-4.1,0-.1.2-.2.3-.3,0,0,.2-.2.4-.1.2,0,0,.2,0,.4-.4,1.5-.6,3-.4,4.5,0,.4,0,.6-.6.7-.7.1-1.4.4-1.9.8-.6.5-1,1.1-1.4,1.7,0,.1-.2.5-.4.3-.8-.5-1.8-.6-2.7-.9-.7-.3-1.4-.7-2.2-.8-.9-.1-1.8-.4-2.7-.1-1.3.4-1.7,1.4-1.9,2.8-.1,1.1,0,2.1.3,3.1.3,1.1.9,1.9,2,2.3,1.1.4,2.3.6,3.6.6.6,0,1,.2,1.5.5.6.5,1.3.8,2.1.9,1.8.3,3.5-.1,5.2-.7,1.5-.5,2.7-1.5,3.4-2.8.3-.5.6-1,1.1-1.3.6-.4,1.1-.9,1.4-1.5,1.1-1.8,1.4-3.8,1.4-5.8,0-1.3-.3-2.7.8-3.8,0,0,0,0,0-.1.6-1.6.9-3.2,1.1-4.9.1-1.5.4-3.1-.3-4.4h0ZM69.8,94.5c-.6,1.9-1.9,2.9-3.7,3.6-.2,0-.4,0-.5,0-1.3,0-2.2-1.2-1.8-2.3.2-.7.4-1.3.7-1.9.4-1.1,1.2-2,2.2-2.7,1.2-.9,2.1-1,3.1.3.2.2.2.4.2.7,0,.4-.1.9,0,1.3.2.5-.2.7-.3,1.1Z"/>
            <path class="cls-13" d="M58.4,104.4c-.7-.5-1.5-.7-2.3-.9-.4-.1-.5-.3-.4-.7.5-1.5.5-3.1,0-4.6,0-.2-.1-.4,0-.5.7-1.1.6-2.4.5-3.6,0-.7-.2-1.4-.5-2.1-.4-1-1.3-1.7-2.1-2.3-1.8-1.4-3.8-2-6.1-1.6-.5,0-1.1.3-1.6,0-1.8-.8-3.6-.7-5.4,0-1.1.5-2.2,1.1-3,2-1.1,1.3-1.4,2.8-1.5,4.4,0,.3,0,.6-.4.7-1,.4-1.7,1.2-2.3,2-1,1.4-1.2,3.1-1.2,4.9-.2,1.6.8,2.9,2.1,3.9.5.3.7.7.8,1.2,0,.3.1.7.2,1,0,2.6,2.2,3.8,4,4.1,2.8.4,5.3-.3,7.3-2.4.2-.2.3-.2.6-.1,1.4.5,2.8.5,4-.5.2-.2.4-.2.6,0,.8.7,1.8,1.2,2.8,1.6,1.4.7,2.7.6,3.9-.6.8-.7,1.1-1.6,1.4-2.5.5-1.5,0-2.6-1.3-3.4h0ZM47.2,97.6c-.3,1.7-.5,3.4-1.5,4.8-.7,1-1.9,1.6-3.2,1.5-1.2,0-2-1.1-2-2.7.3-1.7.6-3.7,2.3-5.1,1.2-1.1,3.9-.8,4.3.9,0,.2.2.4.1.7h0Z"/>
            <path class="cls-14" d="M34.7,104.2c-.2-.2-.1-.3,0-.6,1.1-3.1,0-5-2.6-6.6-.8-.5-.8-.4-.2-1,0,0,.1,0,.1-.2,1.1-1.4,1.9-2.8.9-4.6-.2-.3-.2-.6,0-.9.4-.9.5-1.8.5-2.8.1-1-.2-1.9-.7-2.8-.2-.4-.5-.7-.7-1-.5-.9-1.1-1.6-1.9-2.2-1.5-1.2-3.3-1.3-5-1.9-1.1-.4-2.2-.2-3.3-.5-1.7-.5-3.4-.4-5.2-.2-1.1.1-2.2.6-3.4.7-1,0-1.8.4-2.7.8-.5.3-.9.6-1.4.9-1.1.9-2,1.8-2.1,3.3,0,.8.1,1.6.1,2.5s.6,1.2.2,1.9c-.5.9-.9,1.9-1.1,3-.2,1.2-.4,2.4,0,3.6.3.8.5,1.6,0,2.4-.2.4-.4.8-.5,1.2-.3,1.4-.3,2.8-.3,4.2,0,.5,0,1.1.4,1.5.1.2.3.5.1.8-.3.6-.4,1.2-.4,1.8-.2,1.7,0,3.3,1.2,4.7,1,1.2,2.3,2.1,3.7,2.9.8.4,1.7.7,2.6.4.6-.2,1.1-.2,1.7,0,2.4.5,4.8.5,7.2.3,1.4-.2,2.6-.6,3.8-1.4.4-.3.7-.8,1.3-.9,1.5-.2,2.9-.5,4.2-1.2,1.9-1,3.7-2.1,3.9-4.5.1-1.3.2-2.5-.7-3.5h0ZM16.8,92.4c.1-1,.2-2,.5-2.9.3-.8.8-1.2,1.6-1.2h1c.8,0,1.6,0,2.4.3.8.4,1,.9.7,1.8-.6,1.9-2.6,3.9-4.9,3.7-1.6,0-1.5,0-1.4-1.6ZM24.2,106.4c-1.2,1.4-2.6,1.9-4.2,1.7-1.3,0-2.3,0-3.4-.2-.3,0-.4-.2-.4-.4,0-1.2.2-2.3.2-3.5,0-.4.2-.8.7-1,2.1-.9,4.2-1.3,6.3-.3,1.8.8,2.2,2.2.8,3.8Z"/>
            <g>
              <path class="cls-15" d="M12.2,88.3c-.8,0-1.3-.5-1.3-1.3,0-1.1.3-2,1.2-2.8.7-.6,1.8-.8,2.4-.4.6.3.7.9.7,1.4.1,1.5-1.5,3.1-3,3.1h0Z"/>
              <path class="cls-15" d="M8.9,85.4c0-.6.3-1,.7-1.3.2-.2.5-.2.6,0,.3.4.6.8.4,1.3,0,0,0,.2,0,.3,0,.6-.4.9-.9.9s-.7-.3-.8-.9c0-.1,0-.2,0-.3h0Z"/>
              <path class="cls-15" d="M16.5,82.6c.5,0,.9.5.9.9,0,.5-.8,1.2-1.2,1.2-.4,0-.9-.7-.9-1.1,0-.5.7-1.1,1.2-1.1h0Z"/>
              <path class="cls-15" d="M14.3,83.2c-.4,0-.8-.2-.9-.6-.1-.3.1-.7.5-.8.3-.2.6-.5,1-.3.4.2.7.4.6.9,0,.5-.6.9-1.1.9Z"/>
              <path class="cls-15" d="M12,82.2c.5,0,.7.4.6.8-.1.3-.3.6-.6.8-.3.2-.6.4-.9.1-.4-.3-.2-.6-.1-.9,0-.4.7-.8,1.1-.8Z"/>
            </g>
          </g>
          <g>
            <path class="cls-5" d="M8.6,127c0,1.1-.9,1.1-1.6.8-.9-.5-.7-1-.3-1.5.2-.3.7-.6,1.1-.8,0-.3,0-.7,0-1-.3,0-.7,0-.9,0-.6,0-.5-.9.2-.7.2,0,.5,0,.8,0,0-.4,0-.6,0-.9,0-.6.8-.6.8,0,0,.2,0,.4,0,.7.1,0,.2-.1.3-.2.4-.3.9.3.4.7-.2.1-.5.3-.7.3v.8c.2,0,.4-.2.7-.2.7-.2,1.4-.1,1.8,0,1.3.4,1.1,1.5.7,2.1-.5.7-1.6,1-2.5.5-.4-.3-.1-.9.3-.7.6.3,1.1.3,1.5-.2.2-.2.4-.8-.3-1.1-.3-.1-.7-.1-1.3,0-.3,0-.6.2-.8.3,0,.4,0,.8,0,1.2h0ZM7.2,126.7c-.2.2-.2.4,0,.5.3.2.6.1.6-.2v-.8c-.2.2-.4.3-.6.5h0ZM11.7,124.2c-.2-.2-.6-.4-1-.3-.5,0-.6-.7,0-.7s1.4.2,1.6.4c.2.2.1.4,0,.6s-.4.2-.6,0h0Z"/>
            <path class="cls-5" d="M13.7,128c-.2,0-.4-.2-.4-.3s.1-.3.4-.3h1.9c-.2-.3-.2-.4-.5-.7,0,0,0,0,0-.2,0-.2.2-.3.4-.3.4,0,.8.8.8,1s0,.2-.1.2h.9c.2-.3.4-.7.5-1,0-.2.2-.2.3-.2.2,0,.5.2.5.4s-.2.5-.5.8h1.9c.2,0,.3.2.3.3s-.1.4-.3.4h-6.1,0ZM14,122.6c-.2,0-.4-.2-.4-.3s.1-.3.4-.3h5.5c.2,0,.4.2.4.4s-.1.3-.4.3h-5.5ZM18.1,125.8c-.5,0-1,0-1.4,0s-.9,0-1.4,0c-.6,0-.9-.3-.9-.8v-1c0-.3.2-.7.9-.7.3,0,.8,0,1.2,0s1.1,0,1.6,0c.5,0,.8.3.8.7,0,.2,0,.3,0,.5s0,.4,0,.5c0,.4-.4.8-.9.8h0ZM18.2,124.6c0-.5,0-.7-.4-.7-.3,0-.7,0-1,0s-.9,0-1.3,0c-.3,0-.4.2-.4.6,0,.5,0,.7.4.7.3,0,.7,0,1.2,0s.8,0,1.2,0c.3,0,.4-.2.3-.6Z"/>
            <path class="cls-5" d="M27.1,123.6v.7s0,0,0,0c0,.3-.2.8-.9.8s-.6,0-.6-.3.1-.3.3-.3h0c0,0,.1,0,.2,0,.1,0,.2,0,.2-.3v-.7h-1.7c-.2,0-.3-.1-.3-.3s.1-.3.3-.3h1.7v-.3c0,0,0-.1,0-.2h-2c0,0,0,.1,0,.2s0,.2-.5.7v1.4c0,.2-.2.3-.4.3s-.3,0-.3-.3h0s0-.9,0-.9c-.4.3-.5.3-.6.3-.1,0-.2,0-.3-.2,0,1.3,0,2.8-.7,3.7-.1.2-.2.2-.4.2-.2,0-.4-.2-.4-.3s0-.1,0-.2c.5-.8.6-2.1.6-3.3s0-.9,0-1.3h0c0-.7.3-1,1-1,.4,0,1,0,1.6,0v-.3c0-.3.2-.4.4-.4s.4.1.4.4v.3c1,0,1.9,0,2.4,0,.2,0,.3.2.3.3s-.1.3-.4.3h-.8s0,0,0,.2v.3h.8c.2,0,.3.1.3.3s0,.3-.3.3h-.8ZM22.7,123.9s0,0,.1-.1c.5-.2.9-.6,1.2-1.2h-1c-.3,0-.4.1-.4.4v.9h0ZM26.5,127.7c.1,0,.2,0,.3,0,.1,0,.2,0,.2-.3v-1.3c0-.2,0-.3-.3-.3-.4,0-.7,0-1,0,.2.2.6.3.9.4.2,0,.3.2.3.3s-.1.3-.3.3-.9-.2-1.3-.8c-.4.5-.9.8-1.2.8s-.3-.2-.3-.3,0-.2.3-.3c.3,0,.6-.2.8-.4-.3,0-.6,0-.9,0s-.3.1-.3.3v2h0c0,.2-.2.3-.3.3s-.4-.1-.4-.3v-2.1c0-.4.3-.6.8-.6h1.3c0,0,0-.2,0-.2,0-.2.1-.2.2-.2s.4.1.4.3,0,.2,0,.2h1.3c.5,0,.7.2.7.6,0,.4,0,.9,0,1.1v.5h0c0,.4-.3.8-.9.8s-.7-.2-.7-.4,0-.1,0-.2c0,0,0,0-.1,0-.3-.3-.7-.5-.9-.6-.5.6-1.1.7-1.1.7-.2,0-.3-.1-.3-.3s0-.2.3-.3c.4,0,.8-.3.9-.7,0-.2.2-.2.2-.2.1,0,.3.1.3.3s0,0,0,.2c.2,0,.8.3,1,.5,0,0,.1.2.1.2s0,.1,0,.2h0ZM25.4,124.5c-.2-.2-.4-.2-.6-.3-.1,0-.2-.1-.2-.2,0-.2.1-.3.3-.3s1,.2,1,.5-.1.3-.3.3-.1,0-.2,0h0Z"/>
            <path class="cls-5" d="M35.8,127.2c-1-.6-1.8-1.5-2.8-2.3-.4-.3-.7-.3-1,0-.6.5-1,.8-1.3.9-.5.2-1-.5-.3-.8.2,0,.7-.4,1.2-.8.7-.5,1.2-.3,1.8,0,.6.5,2.2,1.6,3,2.2.2.2.2.4,0,.6-.1.2-.4.3-.7,0h0ZM34,124c-.4-.2,0-.7.3-.5.2,0,.7.3.8.5.3.3-.2.8-.4.5-.1-.1-.5-.4-.7-.5h0ZM34.8,123.2c-.4-.2-.1-.7.3-.5.2,0,.7.3.8.5.3.3-.1.8-.4.5-.1-.1-.5-.4-.7-.5h0Z"/>
            <path class="cls-5" d="M38.1,125.3c-.3,0-.4-.2-.4-.4s.2-.4.4-.4h5c.3,0,.4.2.4.4s-.1.4-.4.4h-5Z"/>
            <path class="cls-5" d="M48.2,122.9c.3,0,.7,0,1,0,.6,0,1.1.4.8.9-1,1.8-2,3.4-4.3,4.3-.7.3-1-.5-.3-.7,1.8-.6,3-2.2,3.6-3.5,0-.2,0-.3-.2-.3-.3,0-.9,0-1.3,0-.5.7-1.2,1.5-1.8,1.9-.5.3-1-.3-.5-.7.8-.5,1.8-1.9,2.1-2.5.3-.4,1,0,.7.5h0c0,0,0,0,0,0ZM49.9,122.5c-.4-.2,0-.6.3-.5.2,0,.6.3.8.5.3.3-.2.8-.4.5,0-.1-.5-.4-.6-.5ZM50.6,121.8c-.4-.2-.1-.6.2-.5.2,0,.6.3.8.4.3.3-.1.8-.4.5-.1-.1-.5-.4-.6-.4Z"/>
            <path class="cls-5" d="M51.7,126.9c1.2-.5,1.9-1.7,1.8-3.2,0-.6.8-.6.8,0,0,1.5-.6,3.1-2.2,4-.6.3-1-.4-.4-.7ZM55.8,127.2c-.5.2-1.1,0-1-.6,0-.7.1-2.6.1-3.1s.8-.6.8,0c0,.3,0,2.4,0,2.7s0,.2.2,0c.7-.4,1.3-1.1,1.8-2,.3-.5,1,0,.7.4-.5,1-1.4,1.9-2.5,2.5h0Z"/>
            <path class="cls-5" d="M60.3,122.9c-.4-.5.4-.9.7-.5.3.5.7,1.2.9,1.8.4-.3.9-.6,1.4-.9.5-.3,1,.5.3.8-.8.4-1.6.9-2.2,1.4-.8.7-.8,1.2-.2,1.6.5.3,1.7,0,2.2,0,.7-.2.9.7.2.8-.6.2-1.9.3-2.7,0-1.1-.6-1.1-1.8.2-2.9,0,0,.2-.1.2-.2-.2-.6-.6-1.4-1-1.8h0Z"/>
            <path class="cls-5" d="M66.8,128.3c-.2-.3-.6-.7-1-.8-.2,0-.2-.2-.2-.3,0-.2.1-.3.4-.3s1.5.7,1.5,1.2-.2.4-.4.4-.2,0-.3-.2h0Z"/>
            <path class="cls-5" d="M71.4,124.4c-.6,0-.6-.7,0-.7.4,0,1,0,1.6,0,0-.3,0-.7,0-1,0-.6.8-.5.8,0s0,.7,0,1h.9c.6,0,1.1.3,1,1,0,.8-.2,1.9-.5,2.5-.5.9-1.6,1.1-2.3.5-.4-.3,0-1,.5-.7.4.3.8.2,1.1-.2.3-.5.4-1.5.4-1.9s-.2-.5-.4-.5h-.9c-.3,1.4-1.1,3-2.5,3.8-.5.3-1-.4-.4-.7,1.1-.6,1.7-1.8,2.1-3-.5,0-1,0-1.4,0Z"/>
            <path class="cls-5" d="M78.7,127.2c1.7-.6,2.8-2,3.1-3.1,0-.2,0-.4-.2-.4-.8,0-2,0-3.2,0-.5,0-.6-.8,0-.8,1,0,2.5,0,3.5,0,.6,0,1.1.5.9,1.1-.6,1.6-1.5,3.1-3.7,3.9-.7.3-1-.6-.4-.8Z"/>
            <path class="cls-5" d="M85.5,125.5c-.2,0-.3-.2-.3-.3s.1-.3.3-.3c.8,0,1.8,0,2.6,0,.2,0,.4.2.4.3s-.1.3-.3.3c-.3,0-.6,0-1,0v1.4h1.7c.5,0,.5.7,0,.7-1.2,0-2.9,0-4,0-.5,0-.5-.7,0-.7.4,0,1,0,1.6,0v-1.4c-.4,0-.8,0-1,0h0Z"/>
            <path class="cls-5" d="M92.3,123.7c0,1.5-.1,3.3-1,4.4,0,.1-.2.2-.3.2-.2,0-.4-.1-.4-.3s0-.1,0-.2c.8-1,.9-2.3.9-3.7s0-1.1,0-1.7h0c0-.4.2-.7.8-.7.5,0,1.2,0,1.9,0s1.4,0,1.9,0c.8,0,.9.4.9.9s0,.8-1,.8c-.6,0-1.4,0-2.3,0h-1.4v.3h0ZM92.4,128.1c-.2,0-.3-.2-.3-.3s0-.3.3-.3h1.9s0-.6,0-.6h-1.4c-.2,0-.3-.1-.3-.3s0-.3.3-.3h1.4v-.3c0-.2.2-.3.3-.3s.3.1.3.3v.3h1.3c.2,0,.3.1.3.3s0,.3-.3.3h-1.3v.6h1.9c.2,0,.3.2.3.3s0,.3-.3.3h-4.5ZM92.3,122.8h1.4c.8,0,1.7,0,2.2,0,.2,0,.3-.1.3-.2v-.2c0-.2,0-.2-1.8-.2s-1.3,0-1.8,0c-.2,0-.3.1-.3.3v.3h0ZM95.6,124.5h0c.4.2,1.2.7,1.2,1.1s-.2.3-.3.3-.2,0-.3-.2c0,0-.1-.2-.2-.3-1.7.3-3.2.3-3.2.3-.2,0-.3-.2-.3-.3s0-.3.3-.3h.7c0-.2.2-.5.3-.8h-1.1c-.2,0-.3-.1-.3-.3s0-.3.3-.3h3.9c.2,0,.3.1.3.3s0,.3-.3.3h-1.1,0ZM94.6,124.4c0,.1-.2.5-.3.7.4,0,.9,0,1.3-.1,0,0-.1,0-.2-.1,0,0-.1-.1-.1-.2,0-.1.1-.2.3-.3h-.9,0Z"/>
            <path class="cls-5" d="M103.2,124.8c.1.2.5.9.6,1.3,0,.6-.4.7-.8.4,0,0-.2-.1-.3-.1-.6-.1-1.5-.2-1.9,0-.4.1-.6.5-.2.8.4.2,1,.3,1.6.3.7,0,.7.8,0,.8-.7,0-1.4-.1-2-.5-.9-.6-.8-1.8.4-2.1.8-.2,1.5,0,2,0,.1,0,.2,0,.1-.1,0,0,0-.2-.2-.4-.1-.2-.3-.5-.5-.8,0,0,0,0-.2,0-.9.2-1.6.2-2.1-.1-.5-.2-.2-1,.3-.7s.9.2,1.5,0c-.2-.3-.4-.6-.5-.8-.3-.6.6-.8.8-.2,0,.2.2.5.4.8.1,0,.2,0,.3-.1.1,0,.2,0,.3-.2.6-.3.9.4.4.7-.2,0-.4.2-.7.3.2.3.4.6.5.8h0Z"/>
            <path class="cls-5" d="M108.4,126.8c0-.4,0-.6,0-.9,0-.9-1.2-.1-1.5.3-.2.3-.4.7-.5,1.1-.1.6-.3.7-.5.7-.3,0-.7-.2-.5-.6.3-.9.8-1.7,1.3-2.4s.9-1.4,1.2-2c.1-.2.3-.5.4-.7.3-.5,1,0,.7.4,0,.1-.1.2-.2.3s-.1.2-.2.3c-.4.4-.6.8-.8,1.1-.2.3-.4.5-.5.8,0,0,0,0,0,0,.3-.2,1.7-.6,1.8.7,0,.3,0,.6,0,.9,0,.7.7.6,1.1.2.4-.4.6-.7.7-1.1.2-.6,1.1-.2.8.4-.2.4-.5.9-1,1.3-.8.7-2.4.8-2.4-.7h0Z"/>
          </g>
        </g>
      </g>
      <path class="cls-8" d="M68.6,58.3s-2.7,1.4-2.5,2.3c3.2-1.1,3.2-1.1,3.9-1.2"/>
    </g>
  </g>
</svg>