<?xml version="1.0" encoding="UTF-8"?>
<svg id="Layer_2" xmlns="http://www.w3.org/2000/svg" viewBox="0 0 835.05 594.95">
  <defs>
    <style>
      .cls-1 {
        fill: #fafbea;
      }

      .cls-2 {
        fill: none;
        stroke-width: 8px;
      }

      .cls-2, .cls-3, .cls-4 {
        stroke: #fff;
        stroke-miterlimit: 10;
      }

      .cls-5 {
        fill: #fdfae9;
      }

      .cls-3 {
        stroke-width: 4px;
      }

      .cls-3, .cls-4, .cls-6 {
        fill: #a1d9fe;
      }

      .cls-4 {
        stroke-width: 5px;
      }

      .cls-7 {
        fill: #fff;
      }

      .cls-8 {
        fill: #fdfce7;
      }

      .cls-9 {
        fill: #fdf5ed;
      }

      .cls-10 {
        fill: #febcf9;
      }
    </style>
  </defs>
  <g id="Layer_1-2" data-name="Layer_1">
    <path class="cls-4" d="M139.02,276.83c-3.85-.46-8.13.17-12.47-.82-15.02-3.43-23.36-19.06-20.51-33.17,2.11-10.43,3.7-20.81,8.96-30.24,1.36-2.43-.04-4.01-1.88-5.5-9.72-7.88-11.85-25.11-4.32-35.16,2.71-3.62,3.43-6.77.9-11.27-4.86-8.68-6.24-18.1-2.34-27.75.56-1.38.9-2.85,1.38-4.27.59-1.73,1.64-3.74.13-5.15-1.57-1.47-3.46.18-5.1.7-8.52,2.72-15.87,8.42-24.73,10.18-11.82,2.35-23.77,2.88-35.48-.55-11.54-3.38-22.42-8.18-30.31-17.84-12.8-15.69-16.01-42.1.42-60.33,10.1-11.2,20.91-20.58,35.96-23.25,11.26-2,22.99-3.55,34.09-.22,7.54,2.26,13.14-.78,19.36-3.08,4.32-1.59,8.65-2.85,13.29-3.37,14.56-1.61,28.43.07,41.31,7.5,1.84,1.06,3.51.21,5.19-.62,12.35-6.09,25.55-9.67,39.13-10.51,12.18-.76,24.07,2.07,34.71,8.54,2.56,1.55,5.04,2.32,7.97,2.23,11.94-.38,23.59,1.06,34.22,6.92,16.38,9.03,27.89,24.31,22.05,44.65-2.65,9.23-8.8,16.35-16.87,21.44-14.03,8.86-29.21,11.87-45.62,8.19-5.8-1.3-11.48-.11-16.95,2.19-4.76,2-9.72,3.26-14.92,3.6-6.31.42-11.87,4.06-18.33,4.3-3.07.11-3.39,3-2.33,5.38,2.45,5.52,2.8,11.62,5.02,17.17.95,2.37.15,4.58-.39,6.83-1.33,5.62-.86,11.76-3.96,16.83-3.29,5.39-3.47,11.35-4.04,17.23-.45,4.61-.49,9.23-1.25,13.86-.65,3.97,1.56,7.94,2.5,11.8,3.07,12.7-.41,24.22-4.27,35.9-4.12,12.46-13.52,19.82-24.45,25.74-4.94,2.67-10.38,1.81-16.1,1.92Z"/>
    <path class="cls-3" d="M823.38,57.22c-.19,10.47-4.07,20.81-12.08,29.44-1.84,1.98-1.97,3.18-.23,5.4,9.97,12.7,10.33,26.76,4.97,41.3-1.52,4.14-3.22,8.35-6.98,11.29-2.34,1.83-2.28,4.24-.64,6.65,11.21,16.5,3.23,33.37-9.6,43.22-.53.4-1.14.7-1.67,1.09-5.55,4.11-5.47,4.05-1.1,9.47,4.43,5.5,6.18,12.16,6.84,18.93,1.56,16.1-.77,31.24-13.26,43-6.7,6.31-14.76,10.04-24.05,10.74-3.47.26-6.58,1.81-10.03,2.39-10.87,1.84-20.47-1.1-29.35-6.75-4.11-2.61-8.91-4.3-11.94-8.68-3.76-5.42-4.81-11.55-5.77-17.77-.5-3.27-.4-6.68-1.23-9.85-2.49-9.52.45-18.12,4.48-26.36,1.41-2.88,1.08-4.66-.74-6.51-6.86-6.97-8.66-15.47-7.59-24.79.81-7.06,3.92-13.34,7.52-19.31,1.35-2.24,1.5-3.68-.22-5.69-7.34-8.57-7.84-18.56-5.64-29.01,2.2-10.43,4.71-21.03,11.95-29.07,4.2-4.66,4.42-8.08,2.38-13.57-4.2-11.3-2.73-22.46,3.31-32.93,10.57-18.34,26.58-29.69,47.09-33.38,13.13-2.36,25.74,2.13,36.51,9.99,7.43,5.42,12.98,12.64,15.92,21.67.85,2.62,1.16,5.15,1.14,9.08Z"/>
    <g>
      <path class="cls-4" d="M567.66,115.73c6.21-.96,12.13,1.79,18.22,3.98,2.52.91,3.37,3.18,4.71,4.92,7.45,9.62,10.48,20.26,6.26,32.18-1.43,4.03-1.97,8.15-1.41,12.28,1.04,7.57-.3,14.78-2.27,22.01-1.43,5.24.15,8.49,4.93,11.06,13.12,7.07,26.64-1.32,28.66-16,1.52-11.02,2.76-22.19,8.59-32.72,5.4-9.73,11.12-17.73,21.37-22.3,10.3-4.59,20.28-3.76,30.91-.53,9.08,2.75,13.89,9.17,18.18,16.38,3.57,6,4.14,12.47.23,18.87-2.6,4.26-2.54,9.61-5.32,13.86-.26.4-.02,1.35.28,1.87,6.59,11.57,4.19,22.25-3.29,32.34-1.79,2.41-1.67,3.86.98,5.61,8.64,5.69,12.02,15.06,9.44,25.33-2.21,8.79-11.77,16.94-20.09,18.99-9.44,2.32-18.72,1.54-28.11.8-8.3-.65-13.75-6.27-19.12-11.6-2.89-2.87-4.44-3.72-7.89-.6-12.36,11.17-26.95,14.93-43.62,13.69-10.19-.76-19.98-1.78-29.51-5.63-8.58-3.47-15.37-8.85-20.49-16.48-4.64-6.92-8.89-13.71-9.24-22.67-.17-4.47-4.89-8.02-6.31-12.76-2.86-9.57-.6-18.31,3.66-26.77,1.24-2.47,2.59-4.59.85-7.32-4.43-6.99-4.32-14.34-2.06-22.04,2.5-8.53,6.35-16.61,11.72-23.36,7.16-8.99,17.03-14.21,29.7-13.4Z"/>
      <g>
        <path class="cls-7" d="M548.41,195.03c5.55-.86,9.21,4.84,9.38,10.11.16,4.96,1.44,9.65,1.95,14.49.2,1.84,1.35,3.49,2.61,4.94,1.52,1.73,2.46,3.63,2.89,5.99.49,2.75,1.05,5.49-1.33,7.37-2.58,2.02-5.61,1.64-8.61.46-7.12-2.81-10-8.75-11.8-15.58-1.72-6.55-3.31-13.09-3.1-19.95.16-5.15,2.78-7.82,7.99-7.83Z"/>
        <path class="cls-7" d="M567.92,245.1c.02-4.17,2.58-7.23,6.09-7.25,4.31-.03,8.52,3.79,8.41,7.64-.12,4.44-2.66,6.78-7.34,6.73-4.93-.05-7.18-2.29-7.16-7.13Z"/>
      </g>
    </g>
    <path class="cls-3" d="M323.38,139.71c1.15-13.96,11.09-20.62,22.22-25.69,10.03-4.57,20.78-7.09,31.92-6.09,4.72.42,9.35,1.92,14,3.03,1.76.42,3.55,1.55,5.09-.2,1.37-1.57.97-3.41.24-5.17-5.9-14.19-4.36-27.74,3.55-40.71,1.29-2.11,1.38-4.49,1.69-6.71,2.16-15.34,10.29-26.37,23.92-33.34,3.13-1.6,4.97-4.26,7.34-6.51,16.66-15.82,35.91-19.85,57.82-13.32,9.25,2.75,16.74,7.8,23.17,14.73,1.51,1.62,3.22,2.94,5.31,3.6,10.37,3.24,17.56,10.04,22.86,19.38,2.27,3.99,5.64,7.35,8.45,11.05,8.77,11.57,7.15,26.71-2.91,37.87-14.26,15.83-29.87,15.97-47.37,7.66-2.8-1.33-3.94-5.1-7.47-5.51-10.53-1.22-13.8,4.51-13.44,13.67.3,7.79,1.85,8.51,9.28,5,16.19-7.65,31.77-5.73,46.35,3.54,10.04,6.38,14.39,16.24,12.95,28.34-1.14,9.59-12.28,22.25-25.82,22.42-7.21.09-14.03-.99-20.83-3.82-5.37-2.24-11.49-2.61-16.8-6.02-.91,3.98.82,7.13.62,10.46-.28,4.6.44,9.27-2.2,13.53-1.77,2.86-.64,5.48,1.46,7.69,5.78,6.07,10.55,12.52,11.36,21.37.33,3.61-.43,6.96-.8,10.37-1.03,9.59-3.41,19.32-9.3,26.75-6.9,8.72-17.06,13.43-28.39,14.71-16.67,1.89-31.42-3.26-43.78-14-8.26-7.18-14.32-16.18-16.55-27.59-2.2-11.24-3.54-22.2.53-33.2.39-1.06.13-1.91-.27-2.85-3.23-7.6-7.32-14.96-6.54-24.1-9.08,10.35-20.78,10.94-32.9,10.83-12.74-.12-22.51-5.75-30.66-14.98-3.74-3.04-5.92-11.57-4.12-16.17Z"/>
    <g>
      <path class="cls-2" d="M371.13,213.93c-.62,1.53-2.41,2.57-3.67,3.83-2.74,7.4-6.39,13.72-13.23,18.65-8.02,5.78-14.65,13.51-24.05,17.41-9.14,3.8-18.62,5.69-28.59,5.04-3.67-.24-3.24-1.94-2.01-4.2,5.61-10.21,7.08-21.29,6.91-32.72-.15-10.59-3.56-20.18-9.35-28.9-1.27-1.92-1.99-3.34-.57-5.29,6.85-10.47,6.39-17.33-1.37-24.81-2.38-2.29-5.26-2.98-8.12-3.04-8.12-.2-17.96,4.04-22.01,13.01-2.51,5.56-3.31,11.71-6.54,16.93-.32.37-.65.72-1,1.06.38-.25.72-.59,1-1.06,4.46,9.43,14.56,12.44,25.39,7.58,8.06-3.62,8.13-3.64,11.67,4.24,8.34,18.52,5.96,36.39-3.4,53.82-1.98,3.69-5.62,2.97-7.84,1.84-8.28-4.22-16.25-3.35-25.2-2.02-16.15,2.41-32.12-.67-44.67-11.89-6.62-5.93-14.44-9.67-21.25-15.1-12.2-9.74-18.67-27.23-13.39-41.69,2.06-5.64,2.42-10.92,2.89-16.6.58-6.79,3.11-13.17,7.82-18.41,4.98-5.89,10.47-11.12,17.84-13.92,1.7-.64,2.71-1.87,3.36-3.46,5.92-14.46,17.78-22.75,31.03-29.41,2.69-1.36,6.09-1.96,9.13-1.85,4.19.15,7.45-1.42,10.49-3.79,5.32-4.17,11.18-5.59,17.98-5.61,10.21-.03,20.19.65,29.76,4.33,7.73,2.97,14.24,7.97,19.62,14.07,2.61,2.96,5.11,4.25,8.88,5.23,11.97,3.11,21.71,9.61,27.28,21.22.26.54.97.86,1.46,1.29.43,5.63,2.1,10.94,4.12,16.16-1.1,9.32,1.19,18.23,3.21,27.19,2.41,10.69.44,20.94-3.58,30.87Z"/>
      <g>
        <path class="cls-10" d="M367.38,139.71c.42,5.63,2.1,10.94,4.12,16.16-1.1,9.32,1.19,18.23,3.21,27.18,2.41,10.69.44,20.95-3.58,30.88-.62,1.52-2.41,2.56-3.67,3.83-4.34,2.87-7.71-.04-10.82-2.24-3.06-2.16-5.11-2.53-7.29.95-1.4,2.24-3.59,3.9-5.47,5.78-6.41,6.41-13.08,6.3-19.25-.51-4.05-4.48-5.68-10.15-6.4-15.92-1.21-9.63-5.8-14.24-15.45-14.72-2.56-.13-5.59.43-6.22-3.36,6.86-10.47,6.39-17.33-1.37-24.81-2.37-2.29-5.26-2.97-8.12-3.04-8.12-.19-17.96,4.05-22.01,13.01-2.51,5.57-3.31,11.71-6.54,16.93-5.9,6.8-17.2,10.49-25.84,4.9-4.55-2.95-9.07-4.18-14.1-3.49-8.96,1.22-14.04-4.04-18.14-10.6-4.62-7.4-7.57-15.52-8.41-24.29-.16-1.7-.95-3.18-1.48-4.75,4.97-5.89,10.46-11.12,17.84-13.92,1.69-.64,2.71-1.87,3.36-3.46,5.92-14.46,17.78-22.74,31.02-29.41,2.7-1.36,6.09-1.96,9.13-1.85,4.19.15,7.45-1.42,10.49-3.79,5.32-4.16,11.18-5.58,17.98-5.6,10.21-.03,20.19.65,29.76,4.33,7.73,2.97,14.24,7.97,19.62,14.07,2.61,2.96,5.11,4.25,8.88,5.23,11.97,3.11,21.71,9.6,27.28,21.21.26.54.96.87,1.46,1.29Z"/>
        <path class="cls-6" d="M190.55,151.61c1.61.09,2.89.4,2.94,2.5.21,9.18,3.27,17.51,7.94,25.27,3.64,6.05,7.75,11.42,16.18,10.43,5.93-.7,11.34.38,16.7,3.94,5.37,3.57,11.73,3.9,17.19-1.02,1.99-1.79,5.41-.18,7.04-2.89,4.46,9.43,14.56,12.44,25.39,7.58,8.06-3.62,8.13-3.65,11.68,4.24,8.34,18.52,5.96,36.39-3.4,53.82-1.98,3.69-5.62,2.97-7.85,1.84-8.28-4.22-16.25-3.35-25.19-2.02-16.16,2.41-32.12-.67-44.67-11.9-6.62-5.93-14.45-9.67-21.25-15.1-12.21-9.74-18.68-27.23-13.39-41.69,2.06-5.64,2.41-10.92,2.89-16.6.57-6.78,3.1-13.17,7.82-18.41Z"/>
        <path class="cls-6" d="M296.57,187.75c1.53,2.46,4.03,2.2,6.26,1.9,8.22-1.13,16.54,7.39,17,15.94.42,7.76,2.79,15.86,11.7,19.28,3.34,1.28,6.42,1.62,9.04-1.24,3.09-3.38,6.85-6.08,9.17-10.27,1.54-2.79,4.08-1.97,6.21-.09,3.29,2.89,6.96,4.83,11.51,4.5-2.74,7.4-6.39,13.72-13.24,18.65-8.02,5.78-14.65,13.51-24.05,17.41-9.14,3.79-18.62,5.69-28.58,5.04-3.68-.24-3.25-1.95-2.01-4.2,5.61-10.21,7.07-21.29,6.91-32.72-.15-10.6-3.56-20.18-9.35-28.91-1.27-1.92-1.99-3.34-.58-5.29Z"/>
      </g>
    </g>
    <g>
      <path class="cls-5" d="M252.83,112.65c2.4-.16,4.36.54,5.37,2.84,1.06,2.43-.48,4.02-1.97,5.67-4.17,4.61-10.72,6.04-14.66,10.78-2.31,2.78-5.02,4.21-8.36,4.67-3.75.51-5.9-2.29-4.21-5.56,4.37-8.42,11.34-14.08,19.92-17.83,1.17-.51,2.6-.39,3.92-.56Z"/>
      <path class="cls-9" d="M225.38,140.94c2.38.87,5.51.9,5.1,4.79-.27,2.57-5.46,6.56-8.17,5.89-2.67-.66-4.13-2.58-3.78-5.5.29-2.48,4.31-5.49,6.86-5.18Z"/>
    </g>
    <g>
      <g>
        <path class="cls-3" d="M736.23,434.61c-13.67-7.02-15.75-28.64-10.63-40.81,2.9-6.91,6.61-13.34,11.39-19.13,1.38-1.66,2.33-2.97.07-4.94-13.08-11.44-11.94-25.6-7.41-40.33,3.59-11.67,10.9-20.88,20.02-28.54,7.1-5.96,16.08-8.92,24.93-10.51,9.04-1.62,18.35-2.15,27.76-.63,14.58,2.34,23.6,10.45,27.85,24.21,3.04,9.82,4.21,19.76.65,29.79-1.97,5.56-6.1,9.34-10.27,13.14-2.82,2.57-7.18,4.7-8.05,7.81-.94,3.37,4.34,5.18,6.45,8.08,3.62,4.99,5.46,10.51,6.12,16.6,1.75,16.05.83,31.33-12.32,43.01-2.41,2.14-.76,3.47.18,5.02,4.55,7.53,7.65,15.7,7.56,24.43-.1,9.67-1.85,19.09-9.24,26.55-3.63,3.67-5.47,6.75-.98,12.82,8.86,11.98,7.71,25.46-.94,37.64-7.05,9.93-14.84,19.26-26.84,23.77-14.43,5.42-29.11,8.2-44.18,3.27-10.43-3.41-18.95-9.41-20.48-21.34-1.57-12.21,1.01-23.8,7.46-34.3,2.38-3.87,2.61-6.81-.78-10.06-13.07-12.56-12.65-34.01-3.16-47.15,2.33-3.22,4.37-6.67,6.85-9.76,2.38-2.96,5.16-5.6,7.99-8.62Z"/>
        <g>
          <path class="cls-8" d="M786.38,546.01c-6.32-.02-7.8-2.43-5.43-7.56,1.78-3.86,4.99-6.87,6.08-11.22,1.18-4.72,1.03-9.15-.89-13.57-.2-.46-.48-.89-.61-1.36-1.07-3.76-2.16-7.82,1.91-10.28,3.88-2.35,7.79-.67,10.87,2.02,5.19,4.52,6.22,11.13,6.14,17.27-.11,8.83-3.91,16.56-11.03,22.2-2.19,1.74-4.66,3.35-7.04,2.49Z"/>
          <path class="cls-1" d="M797.67,475.94c2.86-.05,4.88,1.02,4.97,4.17.15,5.04-5.32,11.76-9.59,11.72-3.45-.03-4.29-2.33-4.32-5.36-.05-5.41,4.11-10.41,8.94-10.53Z"/>
        </g>
      </g>
      <path class="cls-4" d="M721.07,483.07c-7.59-6.25-16.49-9.32-26.27-4.04-1.9,1.03-3.84,2.21-5.9,2.65-5.15,1.1-7.52,4.9-8.85,9.23-3.88,12.7-11.6,20.74-25.14,22.92-18.02,2.9-32.16-6.3-36.32-24.12-.37-1.6-.59-3.26-.66-4.9-.12-2.65.93-3.06,3.39-1.98,5.66,2.47,11.59,3.94,16.81,3.26,17.16-.02,27.36-3.8,39.51-14.46,1.54-1.35,3.12-1.65,5-1.68,21.93-.33,39.08-21.03,34.75-44.2-2.13-11.38-10.14-21.3-8.04-33.63.05-.28-.23-.61-.32-.93-1.82-6.6-6.44-11.12-11.62-15.04-9.6-7.26-19.64-13.55-32.24-14.2-8.4-.43-16.06,1.99-23.59,5.2-2.62,1.11-5.31,2.41-8.16,1.69-4.78-1.21-9.65-1.08-14.4-.69-7.58.62-15.05,1.83-21.63,6.42-7.78,5.44-12.29,13.4-17.26,21.03-2.8,4.3-6.79,8.05-7.9,13.18-2.32,10.68-5.55,21.33-4.31,32.43.66,5.93-1.36,11.04-3.41,16.27-.79,2.01-2.44,3.46-3.19,5.57-4.95,13.83-5.64,27.5,2.83,40.14,3.34,4.98,3.69,9.91,3.78,15.42.12,7.95,2.19,15.64,7.19,21.84,9.36,11.61,34.57,23.64,53.54,11.69,1.36-.86,2.62-.98,4.17-.16,12.3,6.5,25.12,7.17,37.89,2.03,6.79-2.73,13.75-3.49,20.79-3.89,16.84-.95,26.45-10.82,26.34-27.79-.01-2.35.58-3.88,2.38-5.54,3.13-2.88,6.37-5.73,7.63-10.21,2.6-9.31.46-17.58-6.74-23.5ZM626.01,440.44c2.57-10,5.77-19.75,14.35-26.57,2.11-1.68,4.32-3.17,6.94-3.75,6.35-1.4,12.77,4.98,12.52,13.7-2.76,7.44-4.79,16.77-11.79,23.32-4.52,4.23-11.03,4.18-16.9,4.54-3,.18-6.26-6.84-5.13-11.23Z"/>
      <path class="cls-3" d="M576.17,408.49c-4.26-8.44-4.27-16.9-4.3-25.69-.02-4.49-.56-8.96-1.91-13.21-3.04-9.58-8.51-17.18-17.19-22.86-12.55-8.22-26-10.81-40.37-7.82-5.08,1.06-9.46,1.75-14.31-.63-3.05-1.5-6.51-2.18-10.1-2.4-12.06-.77-22.49,3.15-32.09,10.08-13.17,9.51-24.37,20.57-28.95,36.77-.66,2.32-1.81,3.85-3.73,4.98-18.48,10.91-29.89,25.95-28.4,50.54-1.54,8.8.77,18.49,8.5,26.52,1.72,1.79,1.54,3.88,1.61,6.04.57,17.26,6.44,25.37,21.24,31.3,12.15,4.87,25.03,3.99,37.36,1.24,17.44-3.9,30.65-14.34,39.67-29.9.49-.84,1.24-1.56,1.93-2.26.71-.71,1.57-1.45,2.63-.93,1.3.64.5,1.73.25,2.6-3.02,10.61-4.14,21.41-3.28,32.4.23,2.96-.71,4.34-4.03,4.88-5.06.82-9.81,2.77-13.97,6.14-4.35,3.53-7.37,8-10.45,12.52-.72,1.05-1.29,3.59-3.03,2.54-6.08-3.65-13.21-4.09-19.52-6.85-5.17-2.26-10.22-4.96-15.77-5.86-6.31-1.02-12.79-3.07-19.17-.96-9.4,3.11-12.51,10.03-13.93,20.44-1.05,7.69.45,15.32,2.33,22.69,1.96,7.72,6.77,14.04,14.42,16.77,8.25,2.94,16.96,4.6,25.81,4.25,4.11-.16,7.26,1.24,10.49,3.59,4.57,3.32,9.65,5.57,15.38,6.68,13.16,2.54,25.39-.97,37.48-5.19,10.68-3.73,19.17-10.7,24.73-20.49,2.2-3.88,4.43-7.21,8.25-9.35,4.66-2.61,7.88-6.56,10.51-11.02,7.62-12.93,10.43-27.13,10.52-41.93.06-9.55-2.39-19.53,5.61-27.44.21-.21.23-.61.36-.92,4.64-11.3,6.83-23.27,7.74-35.27.81-10.67,2.69-22.06-2.33-32ZM500.85,419.77c-4.03,13.63-14.09,21.19-26.79,25.88-1.35.5-2.96.33-3.48.38-9.67.05-15.7-8.56-12.89-16.79,1.59-4.67,3.16-9.33,4.91-13.96,3.13-8.29,8.85-14.58,15.53-19.77,8.29-6.44,15.05-7.44,22.75,1.86,1.42,1.72,1.81,3.16,1.33,5.39-.66,3.05-.94,6.34.68,9.27,1.83,3.3-1.29,5.2-2.04,7.74Z"/>
      <path class="cls-4" d="M418.66,491.67c-5.3-3.43-11.09-5.02-16.95-6.71-2.82-.81-3.94-2-2.9-5.23,3.54-11.04,3.69-22.12-.58-33.07-.5-1.29-.81-2.77-.1-3.89,5.18-8.15,4.25-17.1,3.69-26.04-.34-5.36-1.67-10.42-3.74-15.37-3.11-7.41-9.19-12.1-15.17-16.86-13.02-10.36-27.76-14.38-44.3-11.75-3.86.61-7.7,2.36-11.73.67-13.12-5.49-26.2-4.82-39.06.72-8.06,3.47-15.86,7.68-21.64,14.42-7.85,9.15-10.13,20.51-11.2,32.13-.21,2.32-.4,4.06-2.9,5.13-7.11,3.05-12.29,8.62-16.45,14.79-6.91,10.22-8.61,22.06-8.88,35.43-1.36,11.88,5.45,21.07,15.28,28.14,3.41,2.45,4.86,5.15,5.65,8.71.54,2.42,1.01,4.91,1.08,7.38.52,18.75,15.84,27.54,29.33,29.42,20.23,2.83,38.46-2.56,52.99-17.72,1.53-1.59,2.4-1.7,4.55-.97,10.19,3.46,20.2,3.61,29.13-3.58,1.66-1.34,2.69-1.33,4.23.07,5.88,5.36,13.22,8.31,20.28,11.58,10.23,4.73,19.7,4.23,28.44-4.15,5.44-5.22,7.89-11.76,10.25-18.36,3.95-11.06.65-18.46-9.31-24.91ZM337.86,442.28c-2.42,11.93-3.62,24.58-10.88,34.61-5.17,7.14-13.84,11.2-22.9,10.67-9.03-.52-14.25-7.91-14.24-19.62,2.09-12.32,4.59-26.41,16.42-37.15,8.48-7.7,27.94-5.4,30.82,6.62.39,1.63,1.1,3.27.78,4.86Z"/>
      <path class="cls-3" d="M247.28,489.97c-1.21-1.44-.77-2.39-.22-3.96,8-22.68.3-36.13-18.81-47.98-5.65-3.51-5.93-3.06-1.37-7.56.36-.35.75-.67,1.07-1.05,8.13-9.84,13.53-20.24,6.69-33.11-1.08-2.03-1.08-4.14-.21-6.26,2.61-6.4,3.93-13.02,3.38-20.41,1-6.99-1.16-13.73-4.75-20.08-1.46-2.59-3.62-4.81-4.92-7.46-3.23-6.56-8.06-11.76-13.65-16.19-10.48-8.31-23.77-9.69-35.91-13.86-7.74-2.66-16.11-1.26-24.01-3.57-12.31-3.59-24.93-3.12-37.56-1.73-8.3.91-16.15,4.18-24.34,4.95-7.06.67-13.26,2.89-19.25,6.18-3.45,1.9-6.9,3.97-9.93,6.48-7.65,6.36-14.71,13.39-15.1,24.15-.21,5.92,1.04,11.88,1.03,17.81,0,4.79,4.45,9.07,1.76,13.96-3.79,6.88-6.37,14.11-7.97,21.79-1.81,8.72-2.57,17.43.24,25.98,1.97,5.97,3.46,11.48-.06,17.54-1.51,2.6-2.72,5.61-3.5,8.74-2.52,10.16-1.92,20.47-2.05,30.76-.05,3.94.54,7.58,2.61,10.98,1.03,1.69,2.17,3.56,1.03,5.61-2.25,4.05-2.64,8.61-3.21,12.98-1.61,12.24-.01,23.87,8.49,33.63,7.51,8.62,16.59,15.42,26.41,21.01,5.75,3.27,12.43,4.86,19.21,2.76,4.25-1.31,8.15-1.2,12.63-.28,17.17,3.5,34.63,3.94,52.02,2.03,9.77-1.07,18.93-4.23,27.18-10.18,3.1-2.23,5.36-6.08,9.61-6.56,10.75-1.23,20.98-3.91,30.63-9.06,13.59-7.26,26.52-14.83,28.1-32.44.82-9.09,1.09-18.03-5.24-25.6ZM117.7,404.42c.86-7.23,1.6-14.41,3.95-21.36,1.98-5.85,5.82-8.98,11.81-9.07,2.49-.04,4.98,0,7.47,0,5.78,0,11.58-.58,17,2.42,5.61,3.11,7.29,6.45,5.36,12.66-4.31,13.89-18.71,28.06-35.79,27.05-11.42-.68-11.2-.09-9.81-11.7ZM170.91,505.56c-8.51,9.93-19.14,13.95-30.62,12.23-9.22.51-16.94-.37-24.64-1.69-2.1-.36-2.73-1.22-2.81-3.22-.35-8.49,1.17-16.87,1.48-25.32.11-3.13,1.79-5.77,4.8-7.05,14.93-6.33,30.23-9.36,45.71-2.48,13.15,5.85,15.98,15.98,6.09,27.53Z"/>
      <g>
        <path class="cls-7" d="M84.09,374.83c-5.71,0-9.73-3.75-9.47-9.46.33-7.65,2.35-14.69,8.57-19.94,4.81-4.05,12.64-5.47,17.4-3.24,4.47,2.09,5.14,6.44,5.39,10.2.69,10.73-11.09,22.43-21.88,22.44Z"/>
        <path class="cls-7" d="M60.36,354.16c-.6-4.32,2.32-6.97,5.1-9.5,1.31-1.19,3.44-1.16,4.66.33,2.19,2.68,4.64,5.44,2.54,9.39-.35.66-.31,1.53-.43,2.3-.64,4.2-2.77,6.32-6.25,6.24-3.48-.08-5.14-1.93-5.61-6.31-.08-.78-.01-1.58-.01-2.45Z"/>
        <path class="cls-7" d="M115.21,333.78c3.23.15,6.6,3.69,6.44,6.75-.2,3.76-5.47,9.05-8.74,8.79-2.98-.24-6.71-4.78-6.54-7.96.18-3.51,5.14-7.76,8.85-7.58Z"/>
        <path class="cls-7" d="M99.41,337.58c-3.08-.25-6.04-1.31-6.91-4.36-.71-2.53.99-4.85,3.36-6.12,2.21-1.19,3.98-3.76,7.06-2.53,2.89,1.15,5.16,2.81,4.7,6.39-.46,3.6-4.27,6.64-8.22,6.63Z"/>
        <path class="cls-7" d="M82.57,330.55c3.61.09,5.19,2.73,4.09,6.18-.76,2.4-2.11,4.26-4.12,5.5-2.06,1.27-4.32,2.82-6.87.84-2.52-1.96-1.51-4.54-.96-6.86.63-2.65,5.18-5.73,7.85-5.66Z"/>
      </g>
    </g>
  </g>
</svg>