<?xml version="1.0" encoding="UTF-8"?>
<svg id="Layer_2" xmlns="http://www.w3.org/2000/svg" viewBox="0 0 27.36 30.32">
  <defs>
    <style>
      .cls-1 {
        fill: #fafbea;
      }

      .cls-2 {
        fill: #fbc0f6;
      }

      .cls-3 {
        fill: #fbfafa;
      }

      .cls-4 {
        fill: #724d41;
      }

      .cls-5 {
        fill: #714a3d;
      }

      .cls-6 {
        fill: #fdfae9;
      }

      .cls-7 {
        fill: #fbfbfa;
      }

      .cls-8 {
        fill: #724b3d;
      }

      .cls-9 {
        fill: #faf8f5;
      }

      .cls-10 {
        fill: #704c3f;
      }

      .cls-11 {
        fill: #fff;
      }

      .cls-12 {
        fill: none;
        stroke-width: .26px;
      }

      .cls-12, .cls-13, .cls-14 {
        stroke: #fff;
        stroke-miterlimit: 10;
      }

      .cls-15 {
        fill: #fdfce7;
      }

      .cls-16 {
        fill: #fdf5ed;
      }

      .cls-17 {
        fill: #fcfbfa;
      }

      .cls-18 {
        fill: #7c594e;
      }

      .cls-19 {
        fill: #faf9f7;
      }

      .cls-20 {
        fill: #febcf9;
      }

      .cls-13 {
        stroke-width: .13px;
      }

      .cls-13, .cls-14, .cls-21 {
        fill: #a1d9fe;
      }

      .cls-14 {
        stroke-width: .16px;
      }

      .cls-22 {
        fill: #724e42;
      }

      .cls-23 {
        fill: #734e42;
      }

      .cls-24 {
        fill: #734f44;
      }

      .cls-25 {
        fill: #745853;
      }

      .cls-26 {
        fill: #734a3c;
      }

      .cls-27 {
        fill: #714b3d;
      }

      .cls-28 {
        fill: #724c40;
      }
    </style>
  </defs>
  <g id="Layer_1-2" data-name="Layer_1">
    <g>
      <path class="cls-11" d="M9.18,17.74c-.05-.03-.1.13-.12.17-.45.94-1.55,1.24-2.3.71-.11-.08-.23-.11-.35-.16-.44-.18-.84-.42-.96-.92-.16-.66-.04-1.28.41-1.81.04-.05.06-.1.06-.16.04-.35.1-.69.19-1.02.12-.46.41-.76.81-.96.13-.07.19-.14.19-.29.04-.81.48-1.42,1.02-1.98.1-.1.16-.22.24-.33.72-.95,1.64-1.51,2.86-1.46.31.01.62.07.88.26.05.03.08.02.13,0,.82-.37,1.65-.38,2.5-.11.05.02.1.03.16,0,.7-.36,1.41-.35,2.15-.14.18.05.36.11.53.19.07.03.12.03.18,0,.21-.1.42-.22.66-.27.57-.11,1.07.07,1.53.38.53.36.85.88,1.08,1.46.12.31.19.64.29.96.02.05.03.09.08.12.42.3.64.73.81,1.19.09.25.15.51.2.77,0,.05.01.1.08.11.46.13.78.43,1.03.82.31.48.5.99.48,1.57-.02.5-.25.89-.66,1.17-.14.09-.28.18-.43.24-.03.02-.06.03-.08.06-.19.32-.46.54-.82.64-.62.18-1.23.14-1.82-.14-.46-.22-.7-.6-.72-1.14-.2.15-.38.27-.61.32-.23.06-.46.03-.7,0-.08-.01-.16-.01-.24.02-.58.27-1.19.3-1.81.17-.18-.04-.35,0-.52.07-.96.46-1.94.43-2.92.08-.07-.03-.14-.07-.21-.1-.64-.31-1.06-.22-1.25-.18,0,0-1.19.12-2.04-.33Z"/>
      <g>
        <path class="cls-5" d="M19.46,17.69c-.2.15-.38.27-.61.32-.23.06-.46.03-.7,0-.08-.01-.16-.01-.24.02-.58.27-1.19.3-1.81.17-.18-.04-.35-.01-.52.07-.96.46-1.94.43-2.92.08-.07-.03-.14-.07-.21-.1-.04-.02-.07-.05-.06-.1.01-.05.05-.06.09-.07.07-.02.13,0,.18.03.94.4,1.87.44,2.8-.02.22-.11.44-.14.68-.09.57.12,1.13.1,1.67-.16.15-.07.31-.05.47-.02.34.06.65,0,.93-.23.16-.13.31-.25.47-.38.03-.02.07-.05.11-.06.05-.01.09,0,.12.05.02.04,0,.07-.02.1-.05.08-.19.11-.18.23,0,.37.06.72.38.97.19.15.4.25.63.29.47.09.94.11,1.38-.11.22-.11.4-.29.54-.5.03-.05.08-.07.13-.1.13-.07.27-.14.39-.22.49-.33.64-.8.57-1.36-.07-.53-.29-1-.64-1.4-.18-.21-.39-.38-.67-.44-.2-.04-.27-.16-.3-.35-.07-.48-.22-.93-.49-1.34-.12-.18-.25-.35-.45-.45-.11-.06-.13-.17-.15-.28-.1-.47-.24-.93-.46-1.36-.31-.58-.76-1-1.4-1.2-.43-.14-.84-.05-1.23.2.12.08.23.16.34.23.08.05.15.12.21.19.04.05.07.11.01.16-.06.05-.14.07-.2,0-.44-.48-1.02-.69-1.64-.83-.6-.13-1.17-.08-1.7.25-.08.05-.15.03-.23,0-.91-.34-1.79-.3-2.63.21-.14.08-.26.18-.38.29-.07.07-.16.1-.23.02-.07-.08,0-.14.05-.2.12-.12.25-.21.4-.31-.08-.07-.17-.1-.27-.13-.55-.14-1.1-.12-1.62.12-.6.27-1.12.64-1.47,1.21-.12.19-.28.33-.42.5-.3.35-.57.72-.7,1.18-.06.22-.09.44-.09.66,0,.11-.04.15-.14.18-.49.18-.8.53-.91,1.04-.07.32-.13.64-.14.96,0,.06-.02.11-.06.15-.4.37-.48.85-.47,1.35,0,.21.06.41.17.59.09.14.2.25.34.34.3.2.64.32.97.49.49.24,1.13.04,1.46-.39.08-.1.15-.21.22-.31.02-.03.05-.06.08-.09.05-.04.1-.03.15.01.04.04.03.08.01.12-.45.94-1.55,1.24-2.3.71-.11-.08-.23-.11-.35-.16-.44-.18-.84-.42-.96-.92-.16-.66-.04-1.28.41-1.81.04-.05.06-.1.06-.16.04-.35.1-.69.19-1.02.12-.46.41-.76.81-.96.13-.07.19-.14.19-.29.04-.81.48-1.42,1.02-1.98.1-.1.16-.22.24-.33.72-.95,1.64-1.51,2.86-1.46.31.01.62.07.88.26.05.03.08.02.13,0,.82-.37,1.65-.38,2.5-.11.05.02.1.03.16,0,.7-.36,1.41-.35,2.15-.14.18.05.36.11.53.19.07.03.12.03.18,0,.21-.1.42-.22.66-.27.57-.11,1.07.07,1.53.38.53.36.85.88,1.08,1.46.12.31.19.64.29.96.02.05.03.09.08.12.42.3.64.73.81,1.19.09.25.15.51.2.77,0,.05.01.1.08.11.46.13.78.43,1.03.82.31.48.5.99.48,1.57-.02.5-.25.89-.66,1.17-.14.09-.28.17-.43.24-.03.01-.06.03-.08.06-.19.32-.46.54-.82.64-.62.18-1.23.14-1.82-.14-.46-.22-.7-.6-.72-1.14Z"/>
        <path class="cls-27" d="M10.74,17.95c.1,0,.21,0,.31-.02.07,0,.15,0,.16.08.01.08-.08.09-.14.1-.32.07-.64.03-.95-.02-.41-.06-.78-.22-1.11-.47-.12-.09-.27-.13-.4-.21-.07-.04-.14-.08-.21-.13-.52-.36-.54-.9-.47-1.45.05-.37.23-.69.49-.96.04-.04.06-.07.07-.13.12-.99.62-1.81,1.21-2.59.19-.25.4-.48.64-.68.07-.06.15-.11.24-.14.06-.02.12,0,.16.06.03.04.01.09-.03.12-.38.22-.64.56-.89.9-.39.53-.73,1.1-.92,1.73-.07.22-.1.45-.12.67,0,.06-.03.11-.07.15-.42.37-.55.86-.5,1.4.01.14.04.27.09.4.1.27.32.4.56.52.16.08.32.17.47.28.43.3.92.39,1.43.39Z"/>
        <path class="cls-27" d="M21.07,15.77c-.02.61-.31.92-.63,1.21-.08.07-.16.14-.26.17-.06.02-.15.04-.18-.04-.04-.08.03-.11.08-.15.23-.18.46-.36.59-.62.19-.36.18-.72-.08-1.05-.04-.05-.08-.11-.15-.13-.13-.04-.17-.13-.17-.26,0-1.04-.38-1.96-.95-2.81-.08-.11-.15-.23-.23-.34-.04-.06-.08-.11-.16-.15-.08-.03-.08-.1,0-.15.1-.06.22-.04.31.09.15.21.3.42.43.63.4.64.69,1.33.81,2.08.03.21.05.42.07.63,0,.05.01.09.06.12.33.22.44.55.45.79Z"/>
        <path class="cls-26" d="M16.26,15.11c-.24-.02-.5-.07-.65-.31-.14-.22-.16-.45-.03-.67.17-.29.4-.49.75-.55.71-.12.93.5.77.97-.12.35-.45.57-.84.57Z"/>
        <path class="cls-8" d="M12.74,13.63c.5,0,.82.37.69.81-.13.43-.63.77-1.03.69-.57-.12-.67-.49-.48-.98.13-.33.46-.51.82-.52Z"/>
        <path class="cls-8" d="M14.52,14.56c.1,0,.22.02.29.13.07.11.02.22-.04.32-.08.13-.17.24-.3.32-.04.02-.09.05-.07.1.02.06.07.08.13.08.12-.01.2-.08.28-.16.08-.08.15-.17.28-.12.13.06.2.17.21.31.02.21-.14.44-.34.51-.2.07-.4,0-.51-.18-.03-.05-.04-.11-.05-.17,0-.04.02-.09-.04-.12-.06-.02-.08.02-.12.05-.1.07-.2.15-.33.16-.09,0-.16-.02-.23-.07-.03-.02-.06-.05-.03-.09.03-.04.06-.05.11-.02.17.09.36.04.47-.12.04-.05.03-.09-.03-.12-.18-.07-.24-.26-.32-.41-.05-.08.06-.24.18-.29.14-.06.29-.11.46-.11Z"/>
        <path class="cls-28" d="M9.69,16.03c.04-.18.12-.38.22-.58.09-.17.18-.34.27-.51.02-.04.04-.07.07-.1.05-.05.1-.06.16-.02.06.05.03.09,0,.14-.22.3-.41.63-.51,1-.01.04-.03.09-.03.13,0,.07-.02.12-.1.11-.07-.01-.09-.07-.08-.18Z"/>
        <path class="cls-10" d="M17.74,15.8c.04-.15.11-.33.19-.49.07-.15.14-.3.24-.43.04-.05.09-.1.15-.11.05-.01.1,0,.13.05.02.04,0,.07-.03.09-.27.26-.41.58-.5.94-.02.06-.02.11-.09.1-.07,0-.09-.06-.08-.15Z"/>
        <path class="cls-4" d="M10.9,15.28c-.1.12-.17.24-.22.37-.03.07-.06.13-.15.1-.09-.04-.04-.11-.02-.16.05-.13.11-.25.19-.36.08-.12.13-.12.24-.03,0,0,.02.02.03.02.07-.02.14-.01.14.08,0,.1-.03.21-.11.27-.05.04-.11,0-.11-.08,0-.06.01-.13.02-.2Z"/>
        <path class="cls-22" d="M18.25,15.41c.02-.12.1-.24.17-.35.03-.05.1-.05.15,0,.05.04.04.09,0,.13-.07.11-.16.2-.16.34,0,.05-.05.05-.08.05-.07-.01-.09-.07-.09-.16Z"/>
        <path class="cls-23" d="M18.59,15.38c.01-.12.07-.23.15-.34.03-.04.07-.05.12-.02.05.03.05.08.03.12-.05.1-.12.19-.12.31,0,.05-.05.06-.1.05-.06-.01-.08-.05-.08-.12Z"/>
        <path class="cls-24" d="M19.22,15.15c-.06.1-.12.22-.2.33-.02.04-.08.03-.11,0-.04-.03-.03-.06-.02-.1.04-.11.11-.21.15-.32.01-.04.06-.06.1-.04.05.02.08.05.08.13Z"/>
        <path class="cls-18" d="M11.08,15.49c.01-.15.11-.3.18-.28.05,0,.1.03.09.1-.01.13-.13.29-.21.28-.06,0-.08-.04-.07-.1Z"/>
        <path class="cls-25" d="M15.75,13.13c.06,0,.11-.04.16-.1.03-.04.07-.05.1-.01.03.04,0,.07-.03.09-.08.07-.16.14-.28.11-.04,0-.09-.02-.08-.07,0-.04.05-.04.12-.02Z"/>
        <path class="cls-17" d="M16.15,14.89c-.13,0-.23-.12-.19-.25.04-.14.13-.24.26-.3.09-.05.17,0,.22.08.09.17-.09.47-.28.47Z"/>
        <path class="cls-17" d="M16.34,13.72c.07,0,.16.03.16.15,0,.14-.17.32-.29.32-.12,0-.23-.1-.23-.21,0-.15.15-.26.36-.26Z"/>
        <path class="cls-19" d="M16.91,14.19c0,.12-.12.27-.22.26-.1,0-.13-.08-.13-.16,0-.1.13-.23.24-.23.07,0,.11.05.11.13Z"/>
        <path class="cls-7" d="M12.48,14.43c.14,0,.22.07.22.2,0,.16-.13.29-.29.3-.13,0-.21-.07-.21-.19,0-.17.13-.3.28-.3Z"/>
        <path class="cls-3" d="M12.88,13.89c0,.16-.17.32-.32.32-.1,0-.18-.08-.17-.18,0-.13.2-.3.34-.29.1,0,.16.05.15.15Z"/>
        <path class="cls-9" d="M13.13,14.52c-.09,0-.15-.05-.15-.14,0-.1.08-.16.17-.16.08,0,.14.04.14.14,0,.1-.05.16-.16.17Z"/>
        <path class="cls-2" d="M14.79,15.53c.03.06.04.13.04.19,0,.02,0,.05.04.04.01,0,.03-.03.03-.04,0-.06,0-.12-.02-.18-.01-.04-.03-.08.02-.11.05-.03.08-.12.15-.1.07.02.1.09.12.16.05.2-.12.43-.32.45-.13,0-.21-.05-.26-.16-.04-.09-.06-.18.08-.2.04,0,.08-.04.12-.05Z"/>
      </g>
      <path class="cls-14" d="M4.53,9.03c-.13-.01-.26,0-.41-.03-.49-.11-.76-.62-.67-1.08.07-.34.12-.68.29-.99.04-.08,0-.13-.06-.18-.32-.26-.39-.82-.14-1.15.09-.12.11-.22.03-.37-.16-.28-.2-.59-.08-.9.02-.05.03-.09.05-.14.02-.06.05-.12,0-.17-.05-.05-.11,0-.17.02-.28.09-.52.27-.81.33-.39.08-.78.09-1.16-.02-.38-.11-.73-.27-.99-.58-.42-.51-.52-1.37.01-1.97.33-.37.68-.67,1.17-.76.37-.07.75-.12,1.11,0,.25.07.43-.03.63-.1.14-.05.28-.09.43-.11.47-.05.93,0,1.35.24.06.03.11,0,.17-.02.4-.2.83-.32,1.28-.34.4-.02.78.07,1.13.28.08.05.16.08.26.07.39-.01.77.03,1.12.23.53.29.91.79.72,1.46-.09.3-.29.53-.55.7-.46.29-.95.39-1.49.27-.19-.04-.37,0-.55.07-.16.07-.32.11-.49.12-.21.01-.39.13-.6.14-.1,0-.11.1-.08.18.08.18.09.38.16.56.03.08,0,.15-.01.22-.04.18-.03.38-.13.55-.11.18-.11.37-.13.56-.01.15-.02.3-.04.45-.02.13.05.26.08.38.1.41-.01.79-.14,1.17-.13.41-.44.65-.8.84-.16.09-.34.06-.53.06Z"/>
      <path class="cls-13" d="M26.85,1.87c0,.34-.13.68-.39.96-.06.06-.06.1,0,.18.32.41.34.87.16,1.35-.05.13-.11.27-.23.37-.08.06-.07.14-.02.22.37.54.11,1.09-.31,1.41-.02.01-.04.02-.05.04-.18.13-.18.13-.04.31.14.18.2.4.22.62.05.52-.03,1.02-.43,1.4-.22.21-.48.33-.78.35-.11,0-.21.06-.33.08-.35.06-.67-.04-.96-.22-.13-.09-.29-.14-.39-.28-.12-.18-.16-.38-.19-.58-.02-.11-.01-.22-.04-.32-.08-.31.01-.59.15-.86.05-.09.04-.15-.02-.21-.22-.23-.28-.5-.25-.81.03-.23.13-.44.25-.63.04-.07.05-.12,0-.19-.24-.28-.26-.61-.18-.95.07-.34.15-.69.39-.95.14-.15.14-.26.08-.44-.14-.37-.09-.73.11-1.07.34-.6.87-.97,1.54-1.09.43-.08.84.07,1.19.33.24.18.42.41.52.71.03.09.04.17.04.3Z"/>
      <g>
        <path class="cls-14" d="M18.51,3.77c.2-.03.4.06.59.13.08.03.11.1.15.16.24.31.34.66.2,1.05-.05.13-.06.27-.05.4.03.25,0,.48-.07.72-.05.17,0,.28.16.36.43.23.87-.04.93-.52.05-.36.09-.72.28-1.07.18-.32.36-.58.7-.73.34-.15.66-.12,1.01-.02.3.09.45.3.59.53.12.2.13.41,0,.62-.08.14-.08.31-.17.45,0,.01,0,.04,0,.06.21.38.14.73-.11,1.05-.06.08-.05.13.03.18.28.19.39.49.31.83-.07.29-.38.55-.66.62-.31.08-.61.05-.92.03-.27-.02-.45-.2-.62-.38-.09-.09-.14-.12-.26-.02-.4.36-.88.49-1.42.45-.33-.02-.65-.06-.96-.18-.28-.11-.5-.29-.67-.54-.15-.23-.29-.45-.3-.74,0-.15-.16-.26-.21-.42-.09-.31-.02-.6.12-.87.04-.08.08-.15.03-.24-.14-.23-.14-.47-.07-.72.08-.28.21-.54.38-.76.23-.29.56-.46.97-.44Z"/>
        <g>
          <path class="cls-11" d="M17.88,6.36c.18-.03.3.16.31.33,0,.16.05.31.06.47,0,.06.04.11.09.16.05.06.08.12.09.2.02.09.03.18-.04.24-.08.07-.18.05-.28.01-.23-.09-.33-.29-.38-.51-.06-.21-.11-.43-.1-.65,0-.17.09-.26.26-.26Z"/>
          <path class="cls-11" d="M18.52,7.99c0-.14.08-.24.2-.24.14,0,.28.12.27.25,0,.14-.09.22-.24.22-.16,0-.23-.07-.23-.23Z"/>
        </g>
      </g>
      <path class="cls-13" d="M10.55,4.56c.04-.46.36-.67.72-.84.33-.15.68-.23,1.04-.2.15.01.31.06.46.1.06.01.12.05.17,0,.04-.05.03-.11,0-.17-.19-.46-.14-.9.12-1.33.04-.07.04-.15.06-.22.07-.5.34-.86.78-1.09.1-.05.16-.14.24-.21.54-.52,1.17-.65,1.89-.43.3.09.55.25.76.48.05.05.11.1.17.12.34.11.57.33.75.63.07.13.18.24.28.36.29.38.23.87-.09,1.24-.47.52-.97.52-1.54.25-.09-.04-.13-.17-.24-.18-.34-.04-.45.15-.44.45,0,.25.06.28.3.16.53-.25,1.04-.19,1.51.12.33.21.47.53.42.92-.04.31-.4.73-.84.73-.24,0-.46-.03-.68-.12-.18-.07-.37-.08-.55-.2-.03.13.03.23.02.34,0,.15.01.3-.07.44-.06.09-.02.18.05.25.19.2.34.41.37.7.01.12-.01.23-.03.34-.03.31-.11.63-.3.87-.22.28-.56.44-.93.48-.54.06-1.02-.11-1.43-.46-.27-.23-.47-.53-.54-.9-.07-.37-.12-.72.02-1.08.01-.03,0-.06,0-.09-.11-.25-.24-.49-.21-.79-.3.34-.68.36-1.07.35-.42,0-.73-.19-1-.49-.12-.1-.19-.38-.13-.53Z"/>
      <g>
        <path class="cls-12" d="M12.1,6.98s-.08.08-.12.12c-.09.24-.21.45-.43.61-.26.19-.48.44-.78.57-.3.12-.61.19-.93.16-.12,0-.11-.06-.07-.14.18-.33.23-.69.23-1.07,0-.35-.12-.66-.3-.94-.04-.06-.06-.11-.02-.17.22-.34.21-.57-.04-.81-.08-.07-.17-.1-.26-.1-.26,0-.59.13-.72.42-.08.18-.11.38-.21.55-.01.01-.02.02-.03.03.01,0,.02-.02.03-.03.15.31.47.41.83.25.26-.12.27-.12.38.14.27.6.19,1.19-.11,1.76-.06.12-.18.1-.26.06-.27-.14-.53-.11-.82-.07-.53.08-1.05-.02-1.46-.39-.22-.19-.47-.32-.69-.49-.4-.32-.61-.89-.44-1.36.07-.18.08-.36.09-.54.02-.22.1-.43.26-.6.16-.19.34-.36.58-.45.06-.02.09-.06.11-.11.19-.47.58-.74,1.01-.96.09-.04.2-.06.3-.06.14,0,.24-.05.34-.12.17-.14.36-.18.59-.18.33,0,.66.02.97.14.25.1.46.26.64.46.09.1.17.14.29.17.39.1.71.31.89.69,0,.02.03.03.05.04.01.18.07.36.13.53-.04.3.04.59.1.89.08.35.01.68-.12,1.01Z"/>
        <g>
          <path class="cls-20" d="M11.98,4.56c.01.18.07.36.13.53-.04.3.04.59.1.89.08.35.01.68-.12,1.01-.02.05-.08.08-.12.12-.14.09-.25,0-.35-.07-.1-.07-.17-.08-.24.03-.05.07-.12.13-.18.19-.21.21-.43.21-.63-.02-.13-.15-.19-.33-.21-.52-.04-.31-.19-.46-.5-.48-.08,0-.18.01-.2-.11.22-.34.21-.57-.04-.81-.08-.07-.17-.1-.26-.1-.26,0-.59.13-.72.42-.08.18-.11.38-.21.55-.19.22-.56.34-.84.16-.15-.1-.3-.14-.46-.11-.29.04-.46-.13-.59-.35-.15-.24-.25-.51-.27-.79,0-.06-.03-.1-.05-.15.16-.19.34-.36.58-.45.06-.02.09-.06.11-.11.19-.47.58-.74,1.01-.96.09-.04.2-.06.3-.06.14,0,.24-.05.34-.12.17-.14.36-.18.59-.18.33,0,.66.02.97.14.25.1.46.26.64.46.09.1.17.14.29.17.39.1.71.31.89.69,0,.02.03.03.05.04Z"/>
          <path class="cls-21" d="M6.21,4.94c.05,0,.09.01.1.08,0,.3.11.57.26.82.12.2.25.37.53.34.19-.02.37.01.54.13.18.12.38.13.56-.03.06-.06.18,0,.23-.09.15.31.47.41.83.25.26-.12.27-.12.38.14.27.6.19,1.19-.11,1.76-.06.12-.18.1-.26.06-.27-.14-.53-.11-.82-.07-.53.08-1.05-.02-1.46-.39-.22-.19-.47-.32-.69-.49-.4-.32-.61-.89-.44-1.36.07-.18.08-.36.09-.54.02-.22.1-.43.25-.6Z"/>
          <path class="cls-21" d="M9.67,6.12c.05.08.13.07.2.06.27-.04.54.24.55.52.01.25.09.52.38.63.11.04.21.05.29-.04.1-.11.22-.2.3-.33.05-.09.13-.06.2,0,.11.09.23.16.38.15-.09.24-.21.45-.43.61-.26.19-.48.44-.78.57-.3.12-.61.19-.93.16-.12,0-.11-.06-.07-.14.18-.33.23-.69.23-1.07,0-.35-.12-.66-.3-.94-.04-.06-.06-.11-.02-.17Z"/>
        </g>
      </g>
      <g>
        <path class="cls-6" d="M8.24,3.67c.08,0,.14.02.17.09.03.08-.02.13-.06.18-.14.15-.35.2-.48.35-.08.09-.16.14-.27.15-.12.02-.19-.07-.14-.18.14-.27.37-.46.65-.58.04-.02.08-.01.13-.02Z"/>
        <path class="cls-16" d="M7.35,4.6c.08.03.18.03.17.16,0,.08-.18.21-.27.19-.09-.02-.13-.08-.12-.18,0-.08.14-.18.22-.17Z"/>
      </g>
      <g>
        <g>
          <path class="cls-13" d="M24.14,22.79c-.45-.23-.51-.93-.35-1.33.09-.23.22-.44.37-.62.04-.05.08-.1,0-.16-.43-.37-.39-.83-.24-1.32.12-.38.36-.68.65-.93.23-.19.52-.29.81-.34.29-.05.6-.07.91-.02.48.08.77.34.91.79.1.32.14.64.02.97-.06.18-.2.3-.33.43-.09.08-.23.15-.26.25-.03.11.14.17.21.26.12.16.18.34.2.54.06.52.03,1.02-.4,1.4-.08.07-.02.11,0,.16.15.25.25.51.25.8,0,.32-.06.62-.3.87-.12.12-.18.22-.03.42.29.39.25.83-.03,1.23-.23.32-.48.63-.88.78-.47.18-.95.27-1.44.11-.34-.11-.62-.31-.67-.7-.05-.4.03-.78.24-1.12.08-.13.09-.22-.03-.33-.43-.41-.41-1.11-.1-1.54.08-.11.14-.22.22-.32.08-.1.17-.18.26-.28Z"/>
          <g>
            <path class="cls-15" d="M25.77,26.42c-.21,0-.25-.08-.18-.25.06-.13.16-.22.2-.37.04-.15.03-.3-.03-.44,0-.01-.02-.03-.02-.04-.03-.12-.07-.26.06-.34.13-.08.25-.02.35.07.17.15.2.36.2.56,0,.29-.13.54-.36.72-.07.06-.15.11-.23.08Z"/>
            <path class="cls-1" d="M26.14,24.14c.09,0,.16.03.16.14,0,.16-.17.38-.31.38-.11,0-.14-.08-.14-.17,0-.18.13-.34.29-.34Z"/>
          </g>
        </g>
        <path class="cls-14" d="M23.64,24.37c-.25-.2-.54-.3-.86-.13-.06.03-.13.07-.19.09-.17.04-.25.16-.29.3-.13.41-.38.68-.82.75-.59.09-1.05-.21-1.18-.79-.01-.05-.02-.11-.02-.16,0-.09.03-.1.11-.06.18.08.38.13.55.11.56,0,.89-.12,1.29-.47.05-.04.1-.05.16-.05.72-.01,1.27-.69,1.13-1.44-.07-.37-.33-.69-.26-1.1,0,0,0-.02-.01-.03-.06-.22-.21-.36-.38-.49-.31-.24-.64-.44-1.05-.46-.27-.01-.52.06-.77.17-.09.04-.17.08-.27.06-.16-.04-.31-.04-.47-.02-.25.02-.49.06-.71.21-.25.18-.4.44-.56.69-.09.14-.22.26-.26.43-.08.35-.18.7-.14,1.06.02.19-.04.36-.11.53-.03.07-.08.11-.1.18-.16.45-.18.9.09,1.31.11.16.12.32.12.5,0,.26.07.51.23.71.31.38,1.13.77,1.75.38.04-.03.09-.03.14,0,.4.21.82.23,1.24.07.22-.09.45-.11.68-.13.55-.03.86-.35.86-.91,0-.08.02-.13.08-.18.1-.09.21-.19.25-.33.08-.3.01-.57-.22-.77ZM20.54,22.98c.08-.33.19-.64.47-.87.07-.05.14-.1.23-.12.21-.05.42.16.41.45-.09.24-.16.55-.38.76-.15.14-.36.14-.55.15-.1,0-.2-.22-.17-.37Z"/>
        <path class="cls-13" d="M18.92,21.94c-.14-.28-.14-.55-.14-.84,0-.15-.02-.29-.06-.43-.1-.31-.28-.56-.56-.75-.41-.27-.85-.35-1.32-.26-.17.03-.31.06-.47-.02-.1-.05-.21-.07-.33-.08-.39-.03-.73.1-1.05.33-.43.31-.79.67-.94,1.2-.02.08-.06.13-.12.16-.6.36-.97.85-.93,1.65-.05.29.03.6.28.86.06.06.05.13.05.2.02.56.21.83.69,1.02.4.16.82.13,1.22.04.57-.13,1-.47,1.29-.97.02-.03.04-.05.06-.07.02-.02.05-.05.09-.03.04.02.02.06,0,.08-.1.35-.13.7-.11,1.06,0,.1-.02.14-.13.16-.17.03-.32.09-.46.2-.14.12-.24.26-.34.41-.02.03-.04.12-.1.08-.2-.12-.43-.13-.64-.22-.17-.07-.33-.16-.51-.19-.21-.03-.42-.1-.63-.03-.31.1-.41.33-.45.67-.03.25.01.5.08.74.06.25.22.46.47.55.27.1.55.15.84.14.13,0,.24.04.34.12.15.11.31.18.5.22.43.08.83-.03,1.22-.17.35-.12.63-.35.81-.67.07-.13.14-.24.27-.3.15-.08.26-.21.34-.36.25-.42.34-.88.34-1.37,0-.31-.08-.64.18-.89,0,0,0-.02.01-.03.15-.37.22-.76.25-1.15.03-.35.09-.72-.08-1.04ZM16.46,22.31c-.13.44-.46.69-.87.84-.04.02-.1.01-.11.01-.32,0-.51-.28-.42-.55.05-.15.1-.3.16-.46.1-.27.29-.48.51-.64.27-.21.49-.24.74.06.05.06.06.1.04.18-.02.1-.03.21.02.3.06.11-.04.17-.07.25Z"/>
        <path class="cls-14" d="M13.78,24.65c-.17-.11-.36-.16-.55-.22-.09-.03-.13-.07-.09-.17.12-.36.12-.72-.02-1.08-.02-.04-.03-.09,0-.13.17-.27.14-.56.12-.85-.01-.17-.05-.34-.12-.5-.1-.24-.3-.39-.49-.55-.42-.34-.91-.47-1.44-.38-.13.02-.25.08-.38.02-.43-.18-.85-.16-1.27.02-.26.11-.52.25-.71.47-.26.3-.33.67-.37,1.05,0,.08-.01.13-.09.17-.23.1-.4.28-.54.48-.23.33-.28.72-.29,1.16-.04.39.18.69.5.92.11.08.16.17.18.28.02.08.03.16.04.24.02.61.52.9.96.96.66.09,1.25-.08,1.73-.58.05-.05.08-.06.15-.03.33.11.66.12.95-.12.05-.04.09-.04.14,0,.19.17.43.27.66.38.33.15.64.14.93-.14.18-.17.26-.38.33-.6.13-.36.02-.6-.3-.81ZM11.15,23.04c-.08.39-.12.8-.35,1.13-.17.23-.45.37-.75.35-.29-.02-.46-.26-.46-.64.07-.4.15-.86.54-1.21.28-.25.91-.18,1,.22.01.05.04.11.03.16Z"/>
        <path class="cls-13" d="M8.19,24.59s-.03-.08,0-.13c.26-.74,0-1.18-.61-1.56-.18-.11-.19-.1-.04-.25.01-.01.02-.02.03-.03.26-.32.44-.66.22-1.08-.04-.07-.04-.14,0-.2.09-.21.13-.42.11-.67.03-.23-.04-.45-.15-.65-.05-.08-.12-.16-.16-.24-.11-.21-.26-.38-.45-.53-.34-.27-.78-.32-1.17-.45-.25-.09-.53-.04-.78-.12-.4-.12-.81-.1-1.22-.06-.27.03-.53.14-.79.16-.23.02-.43.09-.63.2-.11.06-.23.13-.32.21-.25.21-.48.44-.49.79,0,.19.03.39.03.58,0,.16.15.3.06.46-.12.22-.21.46-.26.71-.06.28-.08.57,0,.85.06.19.11.37,0,.57-.05.08-.09.18-.11.28-.08.33-.06.67-.07,1,0,.13.02.25.09.36.03.06.07.12.03.18-.07.13-.09.28-.1.42-.05.4,0,.78.28,1.1.24.28.54.5.86.69.19.11.41.16.63.09.14-.04.27-.04.41,0,.56.11,1.13.13,1.7.07.32-.04.62-.14.89-.33.1-.07.17-.2.31-.21.35-.04.68-.13,1-.3.44-.24.86-.48.92-1.06.03-.3.04-.59-.17-.83ZM3.97,21.81c.03-.24.05-.47.13-.7.06-.19.19-.29.39-.3.08,0,.16,0,.24,0,.19,0,.38-.02.55.08.18.1.24.21.17.41-.14.45-.61.92-1.17.88-.37-.02-.37,0-.32-.38ZM5.7,25.1c-.28.32-.62.45-1,.4-.3.02-.55-.01-.8-.06-.07-.01-.09-.04-.09-.11-.01-.28.04-.55.05-.83,0-.1.06-.19.16-.23.49-.21.99-.31,1.49-.08.43.19.52.52.2.9Z"/>
        <g>
          <path class="cls-11" d="M2.87,20.84c-.19,0-.32-.12-.31-.31.01-.25.08-.48.28-.65.16-.13.41-.18.57-.11.15.07.17.21.18.33.02.35-.36.73-.71.73Z"/>
          <path class="cls-11" d="M2.1,20.17c-.02-.14.08-.23.17-.31.04-.04.11-.04.15.01.07.09.15.18.08.31-.01.02-.01.05-.01.08-.02.14-.09.21-.2.2-.11,0-.17-.06-.18-.21,0-.03,0-.05,0-.08Z"/>
          <path class="cls-11" d="M3.89,19.5c.11,0,.22.12.21.22,0,.12-.18.3-.29.29-.1,0-.22-.16-.21-.26,0-.11.17-.25.29-.25Z"/>
          <path class="cls-11" d="M3.37,19.63c-.1,0-.2-.04-.23-.14-.02-.08.03-.16.11-.2.07-.04.13-.12.23-.08.09.04.17.09.15.21-.01.12-.14.22-.27.22Z"/>
          <path class="cls-11" d="M2.82,19.4c.12,0,.17.09.13.2-.02.08-.07.14-.13.18-.07.04-.14.09-.22.03-.08-.06-.05-.15-.03-.22.02-.09.17-.19.26-.18Z"/>
        </g>
      </g>
      <g>
        <path class="cls-5" d="M2.02,29.97c.01.27-.22.26-.38.19-.22-.11-.16-.24-.06-.35.06-.06.15-.13.26-.2,0-.08,0-.16,0-.23-.08.01-.15.02-.22,0-.14-.02-.12-.2.04-.17.05,0,.12,0,.19-.02,0-.09,0-.15,0-.22,0-.14.2-.13.19,0,0,.04,0,.1,0,.16.03-.01.05-.03.07-.04.1-.07.21.08.08.16-.06.03-.12.06-.17.08,0,.06,0,.13,0,.2.05-.02.11-.04.16-.06.16-.05.32-.03.41,0,.31.11.26.36.16.49-.12.17-.38.23-.6.11-.11-.06-.03-.21.08-.16.15.07.26.07.35-.05.04-.06.1-.19-.07-.25-.07-.03-.17-.03-.3,0-.07.01-.13.04-.2.07,0,.1.01.2.01.28ZM1.71,29.91s-.04.09,0,.11c.08.04.13.03.14-.04,0-.05,0-.12,0-.2-.05.04-.1.08-.14.12ZM2.76,29.32s-.15-.09-.25-.08c-.11.01-.14-.15,0-.16s.32.04.39.11c.04.05.03.1,0,.13s-.09.04-.13,0Z"/>
        <path class="cls-5" d="M3.24,30.21c-.06,0-.08-.04-.08-.08s.03-.08.08-.08h.45c-.04-.08-.05-.09-.12-.17-.01-.01-.01-.02-.01-.04,0-.04.05-.08.1-.08.08,0,.2.19.2.23,0,.02-.01.04-.02.05h.14s.07,0,.07,0c.05-.06.09-.16.12-.23.01-.04.05-.06.08-.06.05,0,.11.04.11.09,0,.03-.05.12-.11.2h.45c.05,0,.08.04.08.08s-.03.08-.08.08h-1.44ZM3.3,28.94c-.06,0-.09-.04-.09-.08s.03-.08.09-.08h1.3c.06,0,.09.04.09.09s-.03.08-.09.08h-1.3ZM4.28,29.69c-.11,0-.22,0-.34,0s-.22,0-.33,0c-.14,0-.21-.08-.21-.18,0-.04,0-.07,0-.11,0-.04,0-.09,0-.13,0-.08.06-.17.21-.17.08,0,.18,0,.29,0,.13,0,.27,0,.39,0,.11,0,.19.08.2.16,0,.04,0,.08,0,.12s0,.09,0,.13c0,.1-.08.18-.21.18ZM4.31,29.41c0-.13,0-.16-.09-.16-.07,0-.16,0-.25,0-.11,0-.22,0-.31,0-.08,0-.09.05-.09.13,0,.12,0,.16.09.16.08,0,.17,0,.27,0s.2,0,.28,0c.08,0,.08-.05.08-.14Z"/>
        <path class="cls-5" d="M6.4,29.18v.17s0,0,0,0c0,.08-.04.19-.21.19-.08,0-.15-.01-.15-.08,0-.03.02-.07.07-.07,0,0,.01,0,.02,0,.02,0,.04,0,.05,0,.04,0,.06-.01.06-.07v-.16h-.41s-.07-.03-.07-.07c0-.03.02-.06.07-.06h.41v-.06s0-.03.02-.04c-.15,0-.32,0-.47,0,0,.01.02.03.02.04,0,.01,0,.04-.11.16v.33c0,.05-.04.08-.08.08s-.07-.02-.07-.07h0s0-.2,0-.2c-.09.07-.12.08-.13.08-.03,0-.05-.01-.06-.04,0,.3-.02.65-.16.87-.02.04-.06.05-.09.05-.05,0-.09-.04-.09-.08,0-.01,0-.03.01-.04.13-.2.15-.5.15-.78,0-.11,0-.22,0-.31h0c0-.16.07-.23.24-.24.1,0,.24,0,.39,0v-.07c0-.06.05-.09.1-.09s.1.03.1.09v.07c.23,0,.45,0,.56,0,.05,0,.08.04.08.07s-.03.07-.08.07c-.04,0-.11,0-.18,0,.01,0,.02.02.02.04v.06h.19s.06.03.06.06c0,.03-.02.07-.06.07h-.19ZM5.35,29.24s.02-.02.03-.03c.11-.06.21-.15.29-.27-.1,0-.18,0-.23,0-.07,0-.09.03-.09.09v.21ZM6.27,30.14s.05,0,.07,0c.03,0,.05-.01.05-.06v-.12c0-.07,0-.14,0-.19,0-.04-.02-.07-.07-.07-.09,0-.16,0-.24,0,.06.05.13.08.21.09.04,0,.06.04.06.07,0,.04-.03.08-.08.08-.06,0-.21-.06-.3-.18-.08.11-.21.19-.28.19-.05,0-.08-.04-.08-.07,0-.03.02-.06.06-.06.07,0,.13-.04.18-.1-.07,0-.14,0-.21,0-.04,0-.06.03-.06.07,0,.06,0,.14,0,.22s0,.17,0,.24h0c0,.05-.04.08-.08.08s-.08-.03-.08-.08c0-.07,0-.17,0-.26s0-.18,0-.25c0-.09.06-.15.18-.15h.32s0-.04,0-.06c0-.04.03-.06.06-.06.04,0,.08.03.08.07,0,.02,0,.04,0,.05h.32c.11,0,.17.06.17.15,0,.09,0,.21,0,.25,0,.02,0,.08,0,.13h0c0,.1-.07.18-.22.18-.13,0-.16-.04-.16-.08,0-.01,0-.03.01-.04,0,0-.02,0-.02-.01-.07-.06-.16-.12-.2-.14-.11.13-.25.16-.27.16-.04,0-.07-.03-.07-.07,0-.03.02-.06.06-.07.09-.01.19-.06.22-.17.01-.04.04-.05.06-.05.03,0,.07.03.07.06,0,.01,0,.02,0,.04.06.01.18.07.23.12.02.02.03.04.03.06,0,.02,0,.03-.01.04h0ZM6,29.39s-.1-.06-.15-.07c-.03,0-.04-.03-.04-.05,0-.04.03-.07.07-.07.02,0,.23.04.23.13,0,.04-.03.08-.07.08-.01,0-.02,0-.04-.01Z"/>
        <path class="cls-5" d="M8.44,30.02c-.22-.14-.43-.35-.67-.54-.09-.07-.16-.07-.23-.01-.14.11-.23.19-.31.22-.13.05-.22-.13-.07-.19.05-.02.16-.09.29-.18.15-.11.29-.08.42.01.15.11.51.38.71.51.05.04.05.1.02.14-.03.04-.1.06-.15.02ZM8.03,29.26c-.1-.04-.02-.16.07-.13.05.02.15.07.2.12.08.08-.04.2-.1.12-.03-.03-.12-.1-.16-.12ZM8.2,29.09c-.1-.04-.03-.16.06-.13.05.02.15.07.2.11.08.08-.03.2-.1.13-.03-.03-.12-.09-.16-.11Z"/>
        <path class="cls-5" d="M8.98,29.57c-.07,0-.1-.04-.1-.09s.04-.09.1-.09h1.17c.06,0,.09.05.09.09s-.03.09-.09.09h-1.17Z"/>
        <path class="cls-5" d="M11.39,29.01c.08,0,.17-.01.25-.01.14,0,.27.09.2.22-.23.43-.48.81-1.01,1.01-.16.06-.23-.12-.08-.17.41-.14.72-.51.86-.83.01-.04,0-.07-.04-.07-.08,0-.21.01-.3.02-.13.17-.29.36-.42.45-.12.08-.23-.08-.11-.16.18-.11.42-.45.51-.6.06-.1.25-.01.16.11v.02ZM11.78,28.91c-.09-.04-.02-.15.07-.12.05.02.14.07.18.11.07.08-.04.19-.1.12-.02-.03-.12-.09-.15-.11ZM11.95,28.75c-.09-.04-.03-.15.06-.12.05.02.15.06.19.11.07.07-.03.19-.09.12-.03-.03-.12-.09-.15-.11Z"/>
        <path class="cls-5" d="M12.2,29.95c.28-.12.44-.41.42-.76,0-.14.19-.13.19-.01.01.35-.15.74-.51.94-.14.08-.25-.1-.1-.16ZM13.17,30.02c-.12.06-.25.01-.24-.15.01-.17.03-.61.03-.72,0-.14.19-.13.19,0,0,.07-.02.56-.02.63,0,.04.02.04.06.02.16-.09.31-.26.41-.46.07-.12.23-.02.17.09-.13.23-.34.46-.59.59Z"/>
        <path class="cls-5" d="M14.23,29.02c-.1-.12.09-.22.16-.11.08.11.16.28.22.43.1-.07.21-.14.33-.2.13-.07.22.11.08.18-.19.1-.38.2-.53.33-.18.16-.19.3-.04.37.13.07.4.02.51-.02.16-.06.21.15.05.2-.15.04-.46.08-.64-.01-.27-.14-.26-.44.04-.68.02-.01.04-.03.05-.04-.05-.15-.14-.33-.22-.43Z"/>
        <path class="cls-5" d="M15.76,30.28c-.05-.07-.15-.15-.23-.2-.04-.02-.05-.05-.05-.07,0-.04.03-.08.09-.08.07,0,.36.16.36.29,0,.06-.05.1-.1.1-.03,0-.05-.01-.07-.04Z"/>
        <path class="cls-5" d="M16.85,29.36c-.15,0-.14-.16-.01-.17.11,0,.24,0,.37,0,.01-.08.01-.17.01-.25,0-.14.2-.13.2,0,0,.07,0,.15-.02.24.08,0,.15,0,.21,0,.14,0,.25.08.25.23,0,.19-.04.46-.12.6-.12.2-.37.26-.55.11-.09-.08,0-.24.12-.15.1.08.2.04.26-.05.07-.11.1-.36.1-.46,0-.06-.04-.11-.1-.11-.06,0-.13,0-.2,0-.08.34-.26.71-.59.89-.12.07-.24-.09-.09-.17.25-.14.41-.42.48-.72-.12,0-.23,0-.33.01Z"/>
        <path class="cls-5" d="M18.57,30.03c.41-.13.65-.47.74-.74.01-.05,0-.1-.06-.1-.18,0-.48,0-.74.01-.12,0-.14-.18,0-.18.25-.01.59-.01.83,0,.15,0,.26.12.2.27-.13.37-.36.73-.88.93-.16.06-.23-.14-.09-.18Z"/>
        <path class="cls-5" d="M20.17,29.61c-.05,0-.08-.04-.08-.08s.03-.08.08-.08c.18,0,.41,0,.62,0,.06,0,.09.04.09.08s-.03.08-.08.08c-.06,0-.14,0-.23,0,0,.11,0,.24,0,.32.14,0,.29,0,.4,0s.11.17-.01.17c-.29,0-.68,0-.94,0-.13,0-.12-.16,0-.16.1,0,.24,0,.38,0,0-.1,0-.24,0-.32-.09,0-.18,0-.23,0Z"/>
        <path class="cls-5" d="M21.79,29.19c0,.35-.03.77-.24,1.03-.02.03-.05.04-.08.04-.05,0-.09-.04-.09-.08,0-.01,0-.03.02-.05.18-.23.21-.55.21-.86,0-.13,0-.27,0-.39h0c0-.1.06-.17.19-.17.12,0,.28,0,.44,0s.33,0,.45,0c.2,0,.21.1.21.21,0,.09-.01.19-.23.19-.14,0-.34,0-.54,0-.11,0-.22,0-.33,0v.07ZM21.8,30.25s-.07-.04-.07-.07.02-.07.07-.07h.46s0-.13,0-.13h-.33s-.07-.03-.07-.07c0-.04.02-.07.07-.07h.33v-.06c0-.05.04-.08.08-.08s.08.03.08.08v.06h.32s.07.03.07.07c0,.03-.02.07-.07.07h-.32v.14h.44s.07.04.07.07-.02.07-.07.07h-1.07ZM21.79,28.99c.1,0,.21,0,.33,0,.2,0,.39,0,.52,0,.04,0,.06-.03.07-.05v-.04s0-.05-.42-.05c-.15,0-.3,0-.42,0-.05,0-.08.03-.08.07v.06ZM22.57,29.38h.02c.1.05.28.17.28.26,0,.04-.04.08-.08.08-.02,0-.05-.01-.07-.04-.01-.02-.03-.04-.05-.06-.4.07-.75.08-.75.08-.05,0-.07-.04-.07-.07s.02-.07.06-.07h0c.05,0,.11,0,.17,0,.02-.04.05-.12.06-.18h-.25s-.07-.03-.07-.06.02-.07.07-.07h.93s.07.03.07.07-.02.07-.07.07h-.25ZM22.32,29.37s-.04.11-.07.17c.11,0,.21-.02.31-.03-.01-.01-.03-.02-.05-.03-.02-.01-.03-.03-.03-.04,0-.03.03-.06.06-.06h-.22Z"/>
        <path class="cls-5" d="M24.35,29.44c.03.05.13.21.14.3.01.13-.09.16-.19.1-.02-.02-.05-.03-.08-.03-.15-.03-.36-.04-.46,0-.1.03-.14.13-.04.18.09.05.24.07.38.07.17,0,.16.2-.02.19-.17,0-.33-.03-.46-.11-.22-.13-.19-.44.11-.49.18-.04.36-.02.47-.01.03,0,.04,0,.03-.03,0-.01-.02-.05-.05-.1-.03-.06-.08-.12-.12-.2-.01,0-.02,0-.04,0-.21.05-.38.04-.5-.03-.12-.06-.06-.23.08-.16.12.06.22.06.36.02-.04-.07-.09-.14-.11-.19-.07-.15.14-.19.18-.06.01.04.05.11.1.2.03,0,.05-.02.08-.03.03,0,.04-.02.07-.04.15-.08.22.1.1.16-.05.02-.1.05-.15.07.04.07.09.13.13.2Z"/>
        <path class="cls-5" d="M25.58,29.94c0-.09.01-.14,0-.22,0-.21-.29-.03-.34.06-.04.08-.1.16-.12.25-.03.14-.07.15-.11.16-.07,0-.15-.04-.11-.14.08-.21.19-.4.3-.56.11-.17.2-.33.3-.47.03-.05.08-.12.1-.15.06-.11.23-.02.17.1-.01.03-.03.05-.04.07s-.03.04-.05.06c-.09.1-.15.18-.2.25-.05.07-.09.13-.13.19-.01.02,0,.01,0,0,.07-.06.39-.15.41.17,0,.07,0,.14,0,.2,0,.17.16.14.27.05.09-.09.14-.17.17-.26.05-.14.25-.04.18.1-.05.1-.12.22-.23.31-.2.16-.57.2-.57-.15Z"/>
      </g>
    </g>
  </g>
</svg>