<?xml version="1.0" encoding="UTF-8"?>
<svg id="Layer_2" xmlns="http://www.w3.org/2000/svg" viewBox="0 0 115.93 128.47">
  <defs>
    <style>
      .cls-1 {
        fill: #fafbea;
      }

      .cls-2 {
        fill: #fbc0f6;
      }

      .cls-3 {
        fill: #fbfafa;
      }

      .cls-4 {
        fill: #724d41;
      }

      .cls-5 {
        fill: #714a3d;
      }

      .cls-6 {
        fill: #fdfae9;
      }

      .cls-7 {
        fill: #fbfbfa;
      }

      .cls-8 {
        fill: #724b3d;
      }

      .cls-9 {
        fill: #faf8f5;
      }

      .cls-10 {
        fill: #704c3f;
      }

      .cls-11 {
        fill: none;
        stroke-width: 1.11px;
      }

      .cls-11, .cls-12, .cls-13 {
        stroke: #fff;
        stroke-miterlimit: 10;
      }

      .cls-14 {
        fill: #fff;
      }

      .cls-15 {
        fill: #fdfce7;
      }

      .cls-16 {
        fill: #fdf5ed;
      }

      .cls-17 {
        fill: #fcfbfa;
      }

      .cls-18 {
        fill: #7c594e;
      }

      .cls-12 {
        stroke-width: .69px;
      }

      .cls-12, .cls-13, .cls-19 {
        fill: #a1d9fe;
      }

      .cls-13 {
        stroke-width: .55px;
      }

      .cls-20 {
        fill: #faf9f7;
      }

      .cls-21 {
        fill: #febcf9;
      }

      .cls-22 {
        fill: #724e42;
      }

      .cls-23 {
        fill: #734e42;
      }

      .cls-24 {
        fill: #734f44;
      }

      .cls-25 {
        fill: #745853;
      }

      .cls-26 {
        fill: #734a3c;
      }

      .cls-27 {
        fill: #714b3d;
      }

      .cls-28 {
        fill: #724c40;
      }
    </style>
  </defs>
  <g id="Layer_1-2" data-name="Layer_1">
    <g>
      <g>
        <path class="cls-5" d="M82.46,74.96c-.83.64-1.63,1.14-2.57,1.37-.99.24-1.97.12-2.95-.02-.36-.05-.69-.05-1.02.1-2.48,1.13-5.05,1.26-7.68.72-.78-.16-1.47-.04-2.19.3-4.07,1.96-8.2,1.81-12.36.32-.31-.11-.59-.29-.88-.44-.17-.08-.3-.2-.25-.4.04-.19.2-.27.38-.32.28-.07.53.04.78.15,3.96,1.68,7.92,1.85,11.84-.1.93-.46,1.86-.6,2.86-.39,2.43.52,4.81.43,7.09-.68.64-.31,1.33-.21,2-.09,1.46.27,2.77-.01,3.92-.96.66-.54,1.33-1.07,2-1.59.13-.11.29-.2.45-.25.2-.06.39.04.5.21.1.15.01.29-.08.43-.22.36-.79.47-.78.99.03,1.56.27,3.04,1.62,4.1.8.62,1.68,1.06,2.66,1.24,1.99.38,3.98.48,5.85-.47.94-.48,1.68-1.23,2.28-2.11.14-.21.33-.32.53-.43.56-.31,1.14-.58,1.67-.93,2.08-1.38,2.71-3.39,2.41-5.76-.28-2.26-1.24-4.22-2.72-5.93-.76-.88-1.67-1.6-2.82-1.85-.85-.19-1.16-.67-1.28-1.47-.3-2.03-.94-3.95-2.09-5.68-.51-.76-1.08-1.47-1.92-1.9-.48-.25-.54-.72-.64-1.17-.43-1.99-1-3.94-1.97-5.75-1.31-2.47-3.24-4.22-5.92-5.08-1.84-.59-3.55-.21-5.2.84.5.34.97.66,1.44.97.34.23.63.51.9.81.18.2.28.46.05.67-.25.23-.61.28-.85.02-1.88-2.03-4.34-2.92-6.93-3.5-2.52-.57-4.97-.35-7.22,1.08-.33.21-.64.13-.99,0-3.85-1.44-7.59-1.27-11.16.88-.58.35-1.11.77-1.6,1.24-.3.29-.66.42-.97.1-.3-.32-.01-.61.22-.84.49-.5,1.08-.88,1.69-1.3-.33-.31-.72-.44-1.12-.55-2.35-.61-4.64-.49-6.87.5-2.54,1.13-4.76,2.7-6.21,5.13-.49.83-1.19,1.4-1.79,2.1-1.29,1.49-2.44,3.06-2.95,5.01-.24.92-.37,1.86-.38,2.81,0,.46-.18.63-.59.77-2.09.76-3.39,2.23-3.85,4.42-.28,1.35-.54,2.7-.6,4.08-.01.24-.09.46-.27.63-1.69,1.56-2.02,3.59-1.99,5.73.01.88.23,1.72.72,2.48.37.58.85,1.04,1.43,1.42,1.29.84,2.73,1.38,4.09,2.06,2.06,1.03,4.81.19,6.18-1.67.32-.44.62-.89.94-1.32.1-.14.22-.27.36-.37.22-.16.44-.12.64.05.19.16.13.34.04.53-1.9,3.99-6.58,5.25-9.74,3.01-.45-.32-.97-.47-1.47-.68-1.87-.77-3.55-1.79-4.05-3.91-.66-2.81-.16-5.42,1.72-7.69.18-.21.24-.42.26-.68.15-1.47.43-2.91.79-4.34.49-1.93,1.72-3.23,3.43-4.09.56-.28.79-.6.82-1.21.18-3.43,2.04-6.02,4.3-8.39.41-.43.69-.93,1.04-1.39,3.05-4.01,6.94-6.4,12.14-6.19,1.32.05,2.62.32,3.74,1.09.2.14.35.09.53,0,3.46-1.58,7-1.63,10.58-.46.23.07.43.12.66,0,2.95-1.52,5.99-1.48,9.09-.57.76.22,1.53.45,2.23.82.28.15.5.12.76,0,.9-.44,1.78-.95,2.78-1.14,2.4-.45,4.52.28,6.48,1.6,2.27,1.52,3.62,3.72,4.58,6.2.51,1.32.82,2.7,1.23,4.05.06.21.13.39.32.53,1.77,1.26,2.71,3.09,3.44,5.05.39,1.05.64,2.15.87,3.25.04.2.06.4.33.48,1.93.55,3.29,1.84,4.35,3.47,1.31,2.02,2.13,4.21,2.04,6.67-.08,2.13-1.04,3.77-2.79,4.96-.58.4-1.18.74-1.82,1.02-.14.06-.27.12-.36.27-.79,1.37-1.97,2.29-3.48,2.71-2.63.74-5.22.6-7.71-.58-1.97-.93-2.95-2.55-3.07-4.82Z"/>
        <path class="cls-27" d="M45.52,76.07c.44-.03.89-.04,1.33-.08.31-.03.64-.04.69.33.04.36-.32.39-.58.44-1.35.28-2.7.12-4.04-.08-1.73-.26-3.31-.92-4.7-2-.51-.39-1.14-.57-1.69-.9-.3-.18-.6-.35-.89-.55-2.21-1.54-2.29-3.8-1.98-6.14.21-1.57.95-2.93,2.06-4.08.15-.16.26-.31.29-.54.52-4.21,2.65-7.67,5.11-10.97.79-1.06,1.68-2.02,2.7-2.86.3-.25.63-.46,1-.59.26-.09.51,0,.66.23.12.19.05.39-.14.5-1.6.93-2.7,2.36-3.76,3.82-1.65,2.26-3.08,4.64-3.9,7.34-.28.93-.43,1.89-.52,2.85-.03.27-.12.47-.32.65-1.79,1.59-2.34,3.62-2.11,5.92.06.58.19,1.14.38,1.69.4,1.14,1.36,1.71,2.36,2.19.7.34,1.35.72,1.99,1.17,1.81,1.27,3.89,1.65,6.07,1.65Z"/>
        <path class="cls-27" d="M89.26,66.8c-.07,2.59-1.29,3.89-2.66,5.11-.33.3-.69.58-1.12.71-.27.08-.62.15-.78-.17-.17-.33.14-.47.35-.64.96-.76,1.93-1.51,2.52-2.62.82-1.54.75-3.05-.33-4.46-.17-.23-.35-.47-.64-.57-.54-.18-.72-.56-.72-1.11-.03-4.41-1.6-8.31-4.02-11.92-.32-.48-.64-.97-.97-1.45-.17-.25-.36-.48-.67-.61-.34-.14-.33-.44-.01-.66.41-.27.93-.16,1.31.37.64.87,1.26,1.76,1.84,2.68,1.71,2.71,2.94,5.62,3.45,8.8.14.88.2,1.77.28,2.65.02.22.06.38.27.52,1.39.95,1.86,2.34,1.9,3.35Z"/>
        <path class="cls-26" d="M68.89,64c-1.03-.11-2.1-.3-2.76-1.32-.6-.92-.66-1.89-.11-2.85.71-1.23,1.71-2.09,3.16-2.33,3.02-.49,3.93,2.12,3.27,4.1-.5,1.5-1.9,2.42-3.55,2.4Z"/>
        <path class="cls-8" d="M53.99,57.74c2.11-.03,3.46,1.57,2.91,3.45-.53,1.82-2.67,3.26-4.36,2.9-2.41-.51-2.83-2.07-2.02-4.15.55-1.4,1.93-2.18,3.47-2.2Z"/>
        <path class="cls-8" d="M61.54,61.68c.44.01.94.07,1.21.55.28.48.07.95-.18,1.37-.32.53-.71,1.02-1.26,1.34-.17.1-.38.19-.29.43.09.23.3.35.56.32.49-.05.86-.34,1.19-.66.34-.33.65-.73,1.19-.5.57.24.84.72.9,1.32.09.87-.58,1.86-1.45,2.16-.85.29-1.68-.02-2.17-.77-.15-.23-.19-.46-.19-.71,0-.18.07-.39-.18-.5-.24-.11-.36.09-.5.19-.42.31-.83.64-1.39.66-.36.01-.69-.06-.97-.31-.12-.11-.26-.21-.14-.38.11-.16.26-.2.45-.1.73.37,1.51.18,1.99-.49.15-.21.14-.39-.14-.5-.78-.32-1-1.09-1.37-1.73-.19-.33.26-1.01.77-1.23.61-.26,1.24-.45,1.97-.45Z"/>
        <path class="cls-28" d="M41.06,67.92c.16-.76.52-1.62.95-2.44.38-.72.76-1.43,1.15-2.15.08-.15.18-.3.3-.43.19-.22.44-.26.67-.08.26.2.11.39-.04.59-.95,1.28-1.72,2.66-2.14,4.22-.05.19-.12.37-.13.56-.02.29-.1.52-.44.46-.31-.05-.36-.31-.32-.74Z"/>
        <path class="cls-10" d="M75.16,66.93c.15-.65.45-1.38.79-2.09.3-.62.58-1.26,1.03-1.8.17-.21.36-.41.64-.48.23-.06.43.03.54.23.09.17-.03.28-.14.39-1.13,1.09-1.72,2.48-2.11,3.96-.06.25-.08.46-.4.42-.3-.04-.36-.24-.34-.63Z"/>
        <path class="cls-4" d="M46.18,64.75c-.44.5-.71,1.02-.94,1.57-.12.3-.25.56-.62.4-.37-.16-.18-.45-.1-.69.2-.55.47-1.06.8-1.54.34-.49.54-.51,1-.13.04.03.09.09.12.09.3-.08.61-.05.58.32-.04.42-.11.9-.48,1.16-.21.15-.46,0-.45-.32,0-.27.06-.53.1-.86Z"/>
        <path class="cls-22" d="M77.33,65.31c.08-.49.41-1,.73-1.49.13-.2.42-.19.63-.04.22.16.17.36.04.56-.3.45-.67.85-.68,1.44,0,.19-.2.23-.36.2-.31-.05-.39-.28-.37-.68Z"/>
        <path class="cls-23" d="M78.76,65.14c.05-.51.3-.98.62-1.42.13-.18.31-.21.51-.09.21.13.22.33.12.51-.23.42-.5.82-.51,1.33,0,.22-.22.24-.41.19-.24-.06-.35-.22-.33-.52Z"/>
        <path class="cls-24" d="M81.43,64.17c-.24.42-.51.93-.83,1.41-.1.15-.32.12-.48.01-.16-.11-.13-.27-.07-.42.16-.48.48-.88.62-1.37.05-.18.24-.25.43-.17.2.08.32.21.33.54Z"/>
        <path class="cls-18" d="M46.96,65.63c.06-.63.45-1.26.77-1.21.2.04.41.13.39.41-.04.53-.56,1.24-.88,1.2-.24-.03-.34-.15-.28-.41Z"/>
        <path class="cls-25" d="M66.74,55.62c.24.04.48-.17.7-.43.13-.15.29-.22.44-.05.13.16-.01.3-.12.39-.34.28-.69.58-1.18.49-.16-.03-.38-.09-.34-.31.03-.19.22-.17.51-.09Z"/>
        <path class="cls-17" d="M68.42,63.1c-.57,0-.96-.49-.82-1.06.15-.6.55-1.01,1.09-1.27.4-.19.71-.02.92.35.39.72-.37,1.98-1.19,1.98Z"/>
        <path class="cls-17" d="M69.22,58.12c.31.03.67.12.66.62,0,.61-.71,1.37-1.23,1.35-.52-.01-.98-.42-.97-.88,0-.62.66-1.11,1.54-1.09Z"/>
        <path class="cls-20" d="M71.66,60.11c0,.53-.5,1.14-.92,1.11-.41-.03-.55-.33-.56-.68-.02-.44.56-.97,1-.96.31.01.48.2.47.53Z"/>
        <path class="cls-7" d="M52.89,61.12c.58,0,.93.31.95.85.02.66-.56,1.24-1.25,1.26-.56.01-.9-.29-.9-.81,0-.71.53-1.28,1.2-1.29Z"/>
        <path class="cls-3" d="M54.56,58.86c-.01.66-.72,1.37-1.36,1.36-.41,0-.74-.35-.72-.75.03-.54.85-1.25,1.44-1.25.42,0,.66.19.64.64Z"/>
        <path class="cls-9" d="M55.62,61.51c-.39-.02-.64-.21-.62-.61.02-.44.33-.66.73-.67.35,0,.6.19.57.57-.03.41-.22.69-.68.7Z"/>
        <path class="cls-2" d="M62.64,65.81c.15.27.17.53.17.8,0,.1.04.21.17.17.06-.02.13-.11.13-.16-.01-.25-.03-.5-.09-.74-.05-.18-.12-.34.07-.46.21-.14.33-.49.64-.4.3.09.42.39.49.68.2.83-.53,1.84-1.36,1.9-.54.04-.9-.23-1.1-.69-.16-.37-.24-.76.35-.87.18-.04.35-.15.53-.23Z"/>
      </g>
      <path class="cls-12" d="M19.21,38.25c-.53-.06-1.12.02-1.72-.11-2.08-.47-3.23-2.63-2.83-4.58.29-1.44.51-2.88,1.24-4.18.19-.34,0-.55-.26-.76-1.34-1.09-1.64-3.47-.6-4.86.37-.5.47-.93.12-1.56-.67-1.2-.86-2.5-.32-3.83.08-.19.12-.39.19-.59.08-.24.23-.52.02-.71-.22-.2-.48.03-.7.1-1.18.38-2.19,1.16-3.42,1.41-1.63.33-3.28.4-4.9-.08-1.59-.47-3.1-1.13-4.19-2.47-1.77-2.17-2.21-5.82.06-8.34,1.4-1.55,2.89-2.84,4.97-3.21,1.56-.28,3.18-.49,4.71-.03,1.04.31,1.82-.11,2.67-.43.6-.22,1.19-.39,1.84-.47,2.01-.22,3.93,0,5.71,1.04.25.15.48.03.72-.09,1.71-.84,3.53-1.34,5.41-1.45,1.68-.1,3.33.29,4.8,1.18.35.21.7.32,1.1.31,1.65-.05,3.26.15,4.73.96,2.26,1.25,3.85,3.36,3.05,6.17-.37,1.28-1.22,2.26-2.33,2.96-1.94,1.22-4.04,1.64-6.3,1.13-.8-.18-1.59-.01-2.34.3-.66.28-1.34.45-2.06.5-.87.06-1.64.56-2.53.59-.42.02-.47.41-.32.74.34.76.39,1.6.69,2.37.13.33.02.63-.05.94-.18.78-.12,1.63-.55,2.33-.45.74-.48,1.57-.56,2.38-.06.64-.07,1.28-.17,1.92-.09.55.22,1.1.35,1.63.42,1.75-.06,3.35-.59,4.96-.57,1.72-1.87,2.74-3.38,3.56-.68.37-1.43.25-2.22.27Z"/>
      <path class="cls-13" d="M113.76,7.91c-.03,1.45-.56,2.88-1.67,4.07-.25.27-.27.44-.03.75,1.38,1.76,1.43,3.7.69,5.71-.21.57-.45,1.15-.96,1.56-.32.25-.32.59-.09.92,1.55,2.28.45,4.61-1.33,5.97-.07.06-.16.1-.23.15-.77.57-.76.56-.15,1.31.61.76.85,1.68.95,2.62.22,2.22-.11,4.32-1.83,5.94-.93.87-2.04,1.39-3.32,1.48-.48.04-.91.25-1.39.33-1.5.25-2.83-.15-4.06-.93-.57-.36-1.23-.59-1.65-1.2-.52-.75-.66-1.6-.8-2.45-.07-.45-.06-.92-.17-1.36-.34-1.31.06-2.5.62-3.64.19-.4.15-.64-.1-.9-.95-.96-1.2-2.14-1.05-3.43.11-.98.54-1.84,1.04-2.67.19-.31.21-.51-.03-.79-1.01-1.18-1.08-2.56-.78-4.01.3-1.44.65-2.91,1.65-4.02.58-.64.61-1.12.33-1.88-.58-1.56-.38-3.1.46-4.55,1.46-2.53,3.67-4.1,6.51-4.61,1.81-.33,3.56.29,5.04,1.38,1.03.75,1.79,1.75,2.2,2.99.12.36.16.71.16,1.26Z"/>
      <g>
        <path class="cls-12" d="M78.43,15.99c.86-.13,1.68.25,2.52.55.35.13.47.44.65.68,1.03,1.33,1.45,2.8.87,4.45-.2.56-.27,1.13-.19,1.7.14,1.05-.04,2.04-.31,3.04-.2.72.02,1.17.68,1.53,1.81.98,3.68-.18,3.96-2.21.21-1.52.38-3.07,1.19-4.52.75-1.34,1.54-2.45,2.95-3.08,1.42-.63,2.8-.52,4.27-.07,1.25.38,1.92,1.27,2.51,2.26.49.83.57,1.72.03,2.61-.36.59-.35,1.33-.74,1.92-.04.06,0,.19.04.26.91,1.6.58,3.07-.45,4.47-.25.33-.23.53.14.77,1.19.79,1.66,2.08,1.3,3.5-.31,1.21-1.63,2.34-2.78,2.62-1.3.32-2.59.21-3.88.11-1.15-.09-1.9-.87-2.64-1.6-.4-.4-.61-.51-1.09-.08-1.71,1.54-3.72,2.06-6.03,1.89-1.41-.1-2.76-.25-4.08-.78-1.19-.48-2.12-1.22-2.83-2.28-.64-.96-1.23-1.89-1.28-3.13-.02-.62-.68-1.11-.87-1.76-.39-1.32-.08-2.53.51-3.7.17-.34.36-.63.12-1.01-.61-.97-.6-1.98-.29-3.05.35-1.18.88-2.29,1.62-3.23.99-1.24,2.35-1.96,4.1-1.85Z"/>
        <g>
          <path class="cls-14" d="M75.77,26.95c.77-.12,1.27.67,1.3,1.4.02.69.2,1.33.27,2,.03.25.19.48.36.68.21.24.34.5.4.83.07.38.15.76-.18,1.02-.36.28-.78.23-1.19.06-.98-.39-1.38-1.21-1.63-2.15-.24-.9-.46-1.81-.43-2.76.02-.71.38-1.08,1.1-1.08Z"/>
          <path class="cls-14" d="M78.47,33.86c0-.58.36-1,.84-1,.6,0,1.18.52,1.16,1.06-.02.61-.37.94-1.01.93-.68,0-.99-.32-.99-.98Z"/>
        </g>
      </g>
      <path class="cls-13" d="M44.68,19.3c.16-1.93,1.53-2.85,3.07-3.55,1.39-.63,2.87-.98,4.41-.84.65.06,1.29.27,1.93.42.24.06.49.21.7-.03.19-.22.13-.47.03-.71-.82-1.96-.6-3.83.49-5.62.18-.29.19-.62.23-.93.3-2.12,1.42-3.64,3.3-4.61.43-.22.69-.59,1.01-.9,2.3-2.19,4.96-2.74,7.99-1.84,1.28.38,2.31,1.08,3.2,2.03.21.22.44.41.73.5,1.43.45,2.43,1.39,3.16,2.68.31.55.78,1.02,1.17,1.53,1.21,1.6.99,3.69-.4,5.23-1.97,2.19-4.13,2.21-6.55,1.06-.39-.18-.54-.71-1.03-.76-1.46-.17-1.91.62-1.86,1.89.04,1.08.26,1.18,1.28.69,2.24-1.06,4.39-.79,6.4.49,1.39.88,1.99,2.24,1.79,3.92-.16,1.32-1.7,3.07-3.57,3.1-1,.01-1.94-.14-2.88-.53-.74-.31-1.59-.36-2.32-.83-.13.55.11.99.09,1.45-.04.64.06,1.28-.3,1.87-.24.4-.09.76.2,1.06.8.84,1.46,1.73,1.57,2.95.05.5-.06.96-.11,1.43-.14,1.33-.47,2.67-1.28,3.7-.95,1.2-2.36,1.86-3.92,2.03-2.3.26-4.34-.45-6.05-1.93-1.14-.99-1.98-2.24-2.29-3.81-.3-1.55-.49-3.07.07-4.59.05-.15.02-.26-.04-.39-.45-1.05-1.01-2.07-.9-3.33-1.25,1.43-2.87,1.51-4.55,1.5-1.76-.02-3.11-.8-4.24-2.07-.52-.42-.82-1.6-.57-2.23Z"/>
      <g>
        <path class="cls-11" d="M51.28,29.56c-.09.21-.33.36-.51.53-.38,1.02-.88,1.9-1.83,2.58-1.11.8-2.02,1.87-3.32,2.41-1.26.53-2.57.79-3.95.7-.51-.03-.45-.27-.28-.58.78-1.41.98-2.94.95-4.52-.02-1.46-.49-2.79-1.29-3.99-.18-.27-.27-.46-.08-.73.95-1.45.88-2.39-.19-3.43-.33-.32-.73-.41-1.12-.42-1.12-.03-2.48.56-3.04,1.8-.35.77-.46,1.62-.9,2.34-.04.05-.09.1-.14.15.05-.03.1-.08.14-.15.62,1.3,2.01,1.72,3.51,1.05,1.11-.5,1.12-.5,1.61.59,1.15,2.56.82,5.03-.47,7.44-.27.51-.78.41-1.08.25-1.14-.58-2.25-.46-3.48-.28-2.23.33-4.44-.09-6.17-1.64-.91-.82-2-1.34-2.94-2.09-1.69-1.35-2.58-3.76-1.85-5.76.28-.78.33-1.51.4-2.29.08-.94.43-1.82,1.08-2.54.69-.81,1.45-1.54,2.46-1.92.23-.09.37-.26.46-.48.82-2,2.46-3.14,4.29-4.06.37-.19.84-.27,1.26-.26.58.02,1.03-.2,1.45-.52.74-.58,1.54-.77,2.48-.78,1.41,0,2.79.09,4.11.6,1.07.41,1.97,1.1,2.71,1.94.36.41.71.59,1.23.72,1.65.43,3,1.33,3.77,2.93.04.07.13.12.2.18.06.78.29,1.51.57,2.23-.15,1.29.16,2.52.44,3.76.33,1.48.06,2.89-.49,4.27Z"/>
        <g>
          <path class="cls-21" d="M50.76,19.3c.06.78.29,1.51.57,2.23-.15,1.29.16,2.52.44,3.76.33,1.48.06,2.89-.49,4.27-.09.21-.33.35-.51.53-.6.4-1.06,0-1.5-.31-.42-.3-.71-.35-1.01.13-.19.31-.5.54-.76.8-.89.89-1.81.87-2.66-.07-.56-.62-.78-1.4-.88-2.2-.17-1.33-.8-1.97-2.14-2.03-.35-.02-.77.06-.86-.46.95-1.45.88-2.39-.19-3.43-.33-.32-.73-.41-1.12-.42-1.12-.03-2.48.56-3.04,1.8-.35.77-.46,1.62-.9,2.34-.82.94-2.38,1.45-3.57.68-.63-.41-1.25-.58-1.95-.48-1.24.17-1.94-.56-2.51-1.47-.64-1.02-1.05-2.14-1.16-3.36-.02-.24-.13-.44-.2-.66.69-.81,1.45-1.54,2.47-1.92.23-.09.37-.26.46-.48.82-2,2.46-3.14,4.29-4.06.37-.19.84-.27,1.26-.26.58.02,1.03-.2,1.45-.52.73-.58,1.54-.77,2.48-.77,1.41,0,2.79.09,4.11.6,1.07.41,1.97,1.1,2.71,1.94.36.41.71.59,1.23.72,1.65.43,3,1.33,3.77,2.93.04.07.13.12.2.18Z"/>
          <path class="cls-19" d="M26.33,20.95c.22.01.4.05.41.35.03,1.27.45,2.42,1.1,3.49.5.84,1.07,1.58,2.24,1.44.82-.1,1.57.05,2.31.54.74.49,1.62.54,2.38-.14.28-.25.75-.03.97-.4.62,1.3,2.01,1.72,3.51,1.05,1.11-.5,1.12-.5,1.61.59,1.15,2.56.82,5.03-.47,7.44-.27.51-.78.41-1.08.25-1.14-.58-2.25-.46-3.48-.28-2.23.33-4.44-.09-6.17-1.64-.92-.82-2-1.34-2.94-2.09-1.69-1.35-2.58-3.76-1.85-5.76.28-.78.33-1.51.4-2.29.08-.94.43-1.82,1.08-2.54Z"/>
          <path class="cls-19" d="M40.97,25.94c.21.34.56.3.86.26,1.14-.16,2.29,1.02,2.35,2.2.06,1.07.39,2.19,1.62,2.66.46.18.89.22,1.25-.17.43-.47.95-.84,1.27-1.42.21-.39.56-.27.86-.01.45.4.96.67,1.59.62-.38,1.02-.88,1.9-1.83,2.58-1.11.8-2.02,1.87-3.32,2.41-1.26.52-2.57.79-3.95.7-.51-.03-.45-.27-.28-.58.78-1.41.98-2.94.95-4.52-.02-1.46-.49-2.79-1.29-3.99-.18-.26-.28-.46-.08-.73Z"/>
        </g>
      </g>
      <g>
        <path class="cls-6" d="M34.93,15.56c.33-.02.6.07.74.39.15.34-.07.56-.27.78-.58.64-1.48.83-2.03,1.49-.32.38-.69.58-1.15.65-.52.07-.82-.32-.58-.77.6-1.16,1.57-1.95,2.75-2.46.16-.07.36-.05.54-.08Z"/>
        <path class="cls-16" d="M31.14,19.47c.33.12.76.12.7.66-.04.36-.75.91-1.13.81-.37-.09-.57-.36-.52-.76.04-.34.6-.76.95-.72Z"/>
      </g>
      <g>
        <g>
          <path class="cls-13" d="M102.27,96.55c-1.89-.97-2.18-3.96-1.47-5.64.4-.96.91-1.84,1.57-2.64.19-.23.32-.41.01-.68-1.81-1.58-1.65-3.54-1.02-5.57.5-1.61,1.51-2.88,2.77-3.94.98-.82,2.22-1.23,3.44-1.45,1.25-.22,2.54-.3,3.84-.09,2.01.32,3.26,1.44,3.85,3.34.42,1.36.58,2.73.09,4.12-.27.77-.84,1.29-1.42,1.82-.39.35-.99.65-1.11,1.08-.13.47.6.72.89,1.12.5.69.75,1.45.85,2.29.24,2.22.11,4.33-1.7,5.94-.33.3-.1.48.02.69.63,1.04,1.06,2.17,1.04,3.38-.01,1.34-.26,2.64-1.28,3.67-.5.51-.76.93-.14,1.77,1.22,1.66,1.07,3.52-.13,5.2-.97,1.37-2.05,2.66-3.71,3.28-1.99.75-4.02,1.13-6.1.45-1.44-.47-2.62-1.3-2.83-2.95-.22-1.69.14-3.29,1.03-4.74.33-.53.36-.94-.11-1.39-1.81-1.74-1.75-4.7-.44-6.51.32-.45.6-.92.95-1.35.33-.41.71-.77,1.1-1.19Z"/>
          <g>
            <path class="cls-15" d="M109.2,111.95c-.87,0-1.08-.34-.75-1.04.25-.53.69-.95.84-1.55.16-.65.14-1.26-.12-1.87-.03-.06-.07-.12-.08-.19-.15-.52-.3-1.08.26-1.42.54-.32,1.08-.09,1.5.28.72.62.86,1.54.85,2.39-.02,1.22-.54,2.29-1.52,3.07-.3.24-.64.46-.97.34Z"/>
            <path class="cls-1" d="M110.76,102.26c.4,0,.67.14.69.58.02.7-.73,1.62-1.33,1.62-.48,0-.59-.32-.6-.74,0-.75.57-1.44,1.23-1.46Z"/>
          </g>
        </g>
        <path class="cls-12" d="M100.18,103.25c-1.05-.86-2.28-1.29-3.63-.56-.26.14-.53.31-.82.37-.71.15-1.04.68-1.22,1.28-.54,1.75-1.6,2.87-3.47,3.17-2.49.4-4.44-.87-5.02-3.33-.05-.22-.08-.45-.09-.68-.02-.37.13-.42.47-.27.78.34,1.6.54,2.32.45,2.37,0,3.78-.53,5.46-2,.21-.19.43-.23.69-.23,3.03-.05,5.4-2.91,4.8-6.11-.29-1.57-1.4-2.94-1.11-4.65,0-.04-.03-.08-.04-.13-.25-.91-.89-1.54-1.61-2.08-1.33-1-2.71-1.87-4.45-1.96-1.16-.06-2.22.27-3.26.72-.36.15-.73.33-1.13.23-.66-.17-1.33-.15-1.99-.1-1.05.09-2.08.25-2.99.89-1.08.75-1.7,1.85-2.39,2.91-.39.59-.94,1.11-1.09,1.82-.32,1.48-.77,2.95-.6,4.48.09.82-.19,1.53-.47,2.25-.11.28-.34.48-.44.77-.68,1.91-.78,3.8.39,5.55.46.69.51,1.37.52,2.13.02,1.1.3,2.16.99,3.02,1.29,1.6,4.78,3.27,7.4,1.61.19-.12.36-.13.58-.02,1.7.9,3.47.99,5.24.28.94-.38,1.9-.48,2.87-.54,2.33-.13,3.65-1.5,3.64-3.84,0-.33.08-.54.33-.76.43-.4.88-.79,1.05-1.41.36-1.29.06-2.43-.93-3.25ZM87.04,97.36c.35-1.38.8-2.73,1.98-3.67.29-.23.6-.44.96-.52.88-.19,1.76.69,1.73,1.89-.38,1.03-.66,2.32-1.63,3.22-.62.58-1.52.58-2.33.63-.41.03-.86-.95-.71-1.55Z"/>
        <path class="cls-13" d="M80.16,92.95c-.59-1.17-.59-2.33-.59-3.55,0-.62-.08-1.24-.26-1.83-.42-1.32-1.18-2.37-2.38-3.16-1.73-1.14-3.59-1.49-5.58-1.08-.7.15-1.31.24-1.98-.09-.42-.21-.9-.3-1.4-.33-1.67-.11-3.11.44-4.43,1.39-1.82,1.31-3.37,2.84-4,5.08-.09.32-.25.53-.52.69-2.55,1.51-4.13,3.58-3.92,6.98-.21,1.22.11,2.55,1.17,3.66.24.25.21.54.22.83.08,2.38.89,3.51,2.94,4.32,1.68.67,3.46.55,5.16.17,2.41-.54,4.23-1.98,5.48-4.13.07-.12.17-.22.27-.31.1-.1.22-.2.36-.13.18.09.07.24.04.36-.42,1.47-.57,2.96-.45,4.48.03.41-.1.6-.56.67-.7.11-1.36.38-1.93.85-.6.49-1.02,1.1-1.44,1.73-.1.14-.18.5-.42.35-.84-.5-1.83-.57-2.7-.95-.71-.31-1.41-.69-2.18-.81-.87-.14-1.77-.42-2.65-.13-1.3.43-1.73,1.39-1.93,2.82-.14,1.06.06,2.12.32,3.13.27,1.07.93,1.94,1.99,2.32,1.14.41,2.34.64,3.57.59.57-.02,1,.17,1.45.5.63.46,1.33.77,2.13.92,1.82.35,3.51-.13,5.18-.72,1.48-.51,2.65-1.48,3.42-2.83.3-.54.61-1,1.14-1.29.64-.36,1.09-.91,1.45-1.52,1.05-1.79,1.44-3.75,1.45-5.79,0-1.32-.33-2.7.78-3.79.03-.03.03-.08.05-.13.64-1.56.94-3.22,1.07-4.87.11-1.47.37-3.05-.32-4.42ZM69.75,94.5c-.56,1.88-1.95,2.93-3.7,3.58-.19.07-.41.05-.48.05-1.34,0-2.17-1.18-1.78-2.32.22-.65.44-1.29.68-1.93.43-1.14,1.22-2.01,2.15-2.73,1.15-.89,2.08-1.03,3.14.26.2.24.25.44.18.74-.09.42-.13.88.09,1.28.25.46-.18.72-.28,1.07Z"/>
        <path class="cls-12" d="M58.4,104.44c-.73-.47-1.53-.69-2.34-.93-.39-.11-.54-.28-.4-.72.49-1.53.51-3.06-.08-4.57-.07-.18-.11-.38-.01-.54.72-1.13.59-2.36.51-3.6-.05-.74-.23-1.44-.52-2.12-.43-1.02-1.27-1.67-2.1-2.33-1.8-1.43-3.84-1.99-6.12-1.62-.53.08-1.06.33-1.62.09-1.81-.76-3.62-.67-5.4.1-1.11.48-2.19,1.06-2.99,1.99-1.08,1.26-1.4,2.83-1.55,4.44-.03.32-.06.56-.4.71-.98.42-1.7,1.19-2.27,2.04-.95,1.41-1.19,3.05-1.23,4.89-.19,1.64.75,2.91,2.11,3.89.47.34.67.71.78,1.2.07.33.14.68.15,1.02.07,2.59,2.19,3.8,4.05,4.06,2.8.39,5.31-.35,7.32-2.45.21-.22.33-.23.63-.13,1.41.48,2.79.5,4.02-.49.23-.18.37-.18.58,0,.81.74,1.83,1.15,2.8,1.6,1.41.65,2.72.58,3.93-.57.75-.72,1.09-1.62,1.42-2.54.55-1.53.09-2.55-1.29-3.44ZM47.23,97.61c-.33,1.65-.5,3.4-1.5,4.78-.71.99-1.91,1.55-3.16,1.47-1.25-.07-1.97-1.09-1.97-2.71.29-1.7.63-3.65,2.27-5.13,1.17-1.06,3.86-.75,4.26.92.05.22.15.45.11.67Z"/>
        <path class="cls-13" d="M34.72,104.2c-.17-.2-.11-.33-.03-.55,1.11-3.13.04-4.99-2.6-6.63-.78-.48-.82-.42-.19-1.04.05-.05.1-.09.15-.15,1.12-1.36,1.87-2.8.92-4.58-.15-.28-.15-.57-.03-.87.36-.88.54-1.8.47-2.82.14-.97-.16-1.9-.66-2.77-.2-.36-.5-.66-.68-1.03-.45-.91-1.11-1.62-1.89-2.24-1.45-1.15-3.28-1.34-4.96-1.91-1.07-.37-2.23-.17-3.32-.49-1.7-.5-3.44-.43-5.19-.24-1.15.13-2.23.58-3.36.68-.98.09-1.83.4-2.66.85-.48.26-.95.55-1.37.89-1.06.88-2.03,1.85-2.09,3.34-.03.82.14,1.64.14,2.46,0,.66.61,1.25.24,1.93-.52.95-.88,1.95-1.1,3.01-.25,1.2-.36,2.41.03,3.59.27.82.48,1.59,0,2.42-.21.36-.38.77-.48,1.21-.35,1.4-.26,2.83-.28,4.25,0,.54.07,1.05.36,1.52.14.23.3.49.14.78-.31.56-.36,1.19-.44,1.79-.22,1.69,0,3.3,1.17,4.65,1.04,1.19,2.29,2.13,3.65,2.9.79.45,1.72.67,2.65.38.59-.18,1.13-.17,1.74-.04,2.37.48,4.78.54,7.19.28,1.35-.15,2.62-.59,3.76-1.41.43-.31.74-.84,1.33-.91,1.49-.17,2.9-.54,4.23-1.25,1.88-1,3.66-2.05,3.88-4.48.11-1.26.15-2.49-.72-3.54ZM16.82,92.38c.12-1,.22-1.99.55-2.95.27-.81.8-1.24,1.63-1.25.34,0,.69,0,1.03,0,.8,0,1.6-.08,2.35.33.78.43,1.01.89.74,1.75-.6,1.92-2.58,3.88-4.94,3.74-1.58-.09-1.55-.01-1.36-1.62ZM24.17,106.36c-1.18,1.37-2.64,1.93-4.23,1.69-1.27.07-2.34-.05-3.4-.23-.29-.05-.38-.17-.39-.45-.05-1.17.16-2.33.2-3.5.02-.43.25-.8.66-.97,2.06-.88,4.18-1.29,6.32-.34,1.82.81,2.21,2.21.84,3.8Z"/>
        <g>
          <path class="cls-14" d="M12.17,88.3c-.79,0-1.34-.52-1.31-1.31.05-1.06.32-2.03,1.18-2.75.66-.56,1.75-.76,2.4-.45.62.29.71.89.74,1.41.1,1.48-1.53,3.1-3.02,3.1Z"/>
          <path class="cls-14" d="M8.89,85.44c-.08-.6.32-.96.7-1.31.18-.16.48-.16.64.05.3.37.64.75.35,1.3-.05.09-.04.21-.06.32-.09.58-.38.87-.86.86-.48-.01-.71-.27-.77-.87-.01-.11,0-.22,0-.34Z"/>
          <path class="cls-14" d="M16.47,82.62c.45.02.91.51.89.93-.03.52-.76,1.25-1.21,1.21-.41-.03-.93-.66-.9-1.1.03-.49.71-1.07,1.22-1.05Z"/>
          <path class="cls-14" d="M14.29,83.15c-.43-.03-.84-.18-.95-.6-.1-.35.14-.67.46-.85.3-.16.55-.52.98-.35.4.16.71.39.65.88-.06.5-.59.92-1.14.92Z"/>
          <path class="cls-14" d="M11.96,82.18c.5.01.72.38.56.85-.11.33-.29.59-.57.76-.28.18-.6.39-.95.12-.35-.27-.21-.63-.13-.95.09-.37.72-.79,1.09-.78Z"/>
        </g>
      </g>
      <g>
        <path class="cls-5" d="M8.57,126.98c.06,1.13-.95,1.11-1.59.8-.94-.46-.68-1.02-.26-1.47.24-.26.65-.57,1.11-.83,0-.33-.02-.67-.02-.98-.32.06-.65.07-.95.03-.58-.07-.49-.86.17-.72.2.04.49,0,.8-.07,0-.37-.02-.62-.03-.92-.03-.58.83-.57.8,0-.02.17-.02.43-.04.66.12-.06.22-.12.32-.18.43-.28.91.34.35.67-.24.14-.49.26-.74.35,0,.24,0,.54,0,.83.22-.1.45-.18.66-.24.68-.2,1.35-.13,1.75,0,1.3.45,1.09,1.51.69,2.09-.51.74-1.61.99-2.53.47-.45-.26-.14-.91.34-.67.61.3,1.12.31,1.5-.2.19-.25.41-.81-.28-1.06-.31-.12-.72-.14-1.28-.02-.28.06-.56.17-.83.3.02.42.05.83.06,1.17ZM7.24,126.73c-.17.18-.17.39.02.47.34.17.57.14.57-.17,0-.21,0-.5,0-.83-.23.17-.43.34-.59.52ZM11.71,124.24c-.2-.18-.64-.37-1.04-.32-.48.06-.61-.65-.04-.69s1.35.15,1.64.45c.19.2.14.42,0,.56s-.37.18-.57,0Z"/>
        <path class="cls-5" d="M13.71,128c-.24,0-.35-.17-.35-.35s.12-.35.35-.35h1.9c-.17-.32-.21-.38-.5-.71-.05-.06-.06-.1-.06-.16,0-.17.22-.32.43-.32.35,0,.84.8.84.98,0,.09-.05.17-.1.23h.57s.28,0,.28,0c.2-.26.39-.69.49-.99.06-.17.2-.24.34-.24.22,0,.46.17.46.39,0,.13-.23.52-.48.83h1.91c.21,0,.32.17.32.34s-.11.35-.32.35h-6.08ZM13.98,122.59c-.25,0-.38-.18-.38-.35s.13-.35.38-.35h5.51c.24,0,.36.18.36.36s-.12.35-.36.35h-5.51ZM18.14,125.8c-.46.02-.95.02-1.43.02s-.95,0-1.39-.02c-.57-.02-.87-.33-.9-.76,0-.17,0-.32,0-.46,0-.19,0-.37,0-.54.02-.35.25-.72.88-.74.33,0,.76-.02,1.21-.02.55,0,1.15,0,1.65.02.48,0,.82.34.84.68,0,.16.02.34.02.52s0,.36-.02.54c-.02.41-.35.76-.88.77ZM18.25,124.59c0-.54-.02-.66-.37-.67-.29,0-.66-.02-1.04-.02-.46,0-.93,0-1.3.02-.34,0-.36.22-.36.57,0,.52,0,.66.37.68.34,0,.74.02,1.15.02s.83,0,1.2-.02c.33-.02.35-.21.35-.58Z"/>
        <path class="cls-5" d="M27.13,123.62v.18l.02.54v.02c0,.35-.18.8-.87.8-.32,0-.62-.06-.62-.35,0-.14.1-.28.28-.28.03,0,.06,0,.09,0,.08.02.15.03.21.03.15,0,.25-.06.25-.28v-.66h-1.74c-.19,0-.29-.13-.29-.28,0-.13.1-.27.29-.27h1.73v-.27c0-.08.03-.13.09-.18-.63,0-1.36,0-2.01,0,.04.06.07.12.07.19,0,.06-.02.19-.46.66v1.41c0,.21-.18.33-.35.33s-.32-.09-.32-.29v-.02l.02-.84c-.4.32-.51.32-.57.32-.11,0-.2-.06-.26-.16,0,1.28-.07,2.75-.68,3.67-.1.16-.24.22-.37.22-.2,0-.39-.15-.39-.33,0-.06.02-.11.06-.17.55-.85.65-2.13.65-3.3,0-.46-.02-.91-.02-1.31v-.02c0-.64.31-.96,1.02-.98.41,0,1-.02,1.65-.02v-.29c0-.26.2-.39.41-.39s.41.13.41.39v.29c.96,0,1.9,0,2.39.02.22,0,.34.16.34.32s-.12.31-.35.31c-.19,0-.45,0-.76,0,.05.04.09.1.09.18v.27h.8c.18,0,.27.13.27.27,0,.14-.09.28-.27.28h-.79ZM22.68,123.88s.08-.08.13-.11c.48-.25.87-.63,1.23-1.15-.42,0-.76,0-.98,0-.28,0-.38.14-.38.36v.89ZM26.55,127.71c.11.02.2.04.28.04.14,0,.23-.06.23-.26v-.52c0-.28,0-.61,0-.8,0-.17-.09-.28-.28-.29-.36,0-.69-.02-1.03-.02.25.22.57.34.89.38.17.02.26.15.26.28,0,.17-.12.33-.32.33-.25,0-.87-.25-1.28-.78-.35.46-.87.8-1.17.8-.2,0-.33-.17-.33-.32,0-.13.09-.24.26-.27.29-.04.57-.19.76-.43-.32,0-.61.02-.9.02-.17,0-.26.13-.27.29,0,.24,0,.58,0,.94s0,.72,0,1.02v.02c0,.2-.17.32-.33.32s-.35-.11-.35-.32c0-.32,0-.7,0-1.09s0-.77,0-1.06c0-.39.26-.61.75-.62h1.34c.02-.08.02-.17.02-.25,0-.17.12-.25.25-.25.17,0,.35.12.35.31,0,.08-.04.19-.04.2h1.34c.46,0,.72.25.74.63.02.37.02.87.02,1.07,0,.09,0,.35,0,.54v.03c0,.38-.28.73-.92.73-.57,0-.66-.18-.66-.35,0-.06.02-.12.05-.17-.03-.02-.07-.03-.1-.06-.28-.26-.66-.49-.85-.57-.46.56-1.07.66-1.13.66-.19,0-.3-.14-.3-.29,0-.13.08-.25.26-.28.39-.06.8-.27.94-.7.06-.17.16-.23.25-.23.14,0,.28.13.28.27,0,.05,0,.09-.04.15.25.06.76.31.96.49.09.07.12.16.12.24,0,.07-.02.13-.06.19h0ZM25.4,124.52c-.2-.17-.43-.24-.65-.3-.12-.03-.17-.12-.17-.2,0-.15.14-.32.32-.32.09,0,.96.15.96.54,0,.17-.14.35-.31.35-.05,0-.1-.02-.16-.06Z"/>
        <path class="cls-5" d="M35.76,127.18c-.95-.61-1.83-1.5-2.84-2.28-.37-.28-.66-.28-.96-.05-.58.46-.96.8-1.32.95-.54.23-.95-.54-.31-.8.2-.09.69-.36,1.22-.75.65-.46,1.24-.35,1.79.06.63.46,2.17,1.62,3,2.17.23.15.21.44.08.61-.13.17-.42.26-.65.1ZM34,123.96c-.42-.18-.1-.68.28-.54.22.08.65.31.83.5.32.35-.16.84-.43.52-.11-.13-.51-.42-.68-.49ZM34.76,123.23c-.43-.17-.12-.67.27-.54.22.07.65.28.84.47.33.33-.13.85-.42.54-.11-.13-.53-.4-.69-.46Z"/>
        <path class="cls-5" d="M38.06,125.29c-.28,0-.42-.19-.42-.38s.15-.4.42-.4h4.95c.27,0,.4.2.4.39s-.13.39-.4.39h-4.95Z"/>
        <path class="cls-5" d="M48.25,122.92c.34-.02.72-.05,1.04-.06.61-.03,1.13.39.84.95-.96,1.84-2.05,3.43-4.26,4.3-.67.26-.99-.51-.34-.74,1.75-.61,3.05-2.17,3.63-3.51.06-.15,0-.3-.19-.29-.33,0-.91.06-1.26.1-.54.71-1.23,1.54-1.77,1.91-.53.35-.99-.33-.46-.66.76-.46,1.78-1.91,2.14-2.53.26-.44,1.05-.06.68.46l-.06.07ZM49.9,122.5c-.4-.17-.09-.64.28-.5.21.08.61.28.78.47.31.33-.15.81-.41.5-.1-.13-.49-.4-.65-.47ZM50.62,121.82c-.4-.16-.12-.63.25-.51.21.07.61.27.8.45.32.32-.13.81-.4.51-.11-.12-.49-.39-.65-.45Z"/>
        <path class="cls-5" d="M51.68,126.91c1.17-.52,1.87-1.73,1.8-3.24-.03-.61.8-.57.81-.06.06,1.49-.62,3.13-2.17,3.99-.61.34-1.04-.42-.44-.69ZM55.81,127.19c-.51.25-1.07.05-1.02-.63.06-.71.11-2.58.11-3.05,0-.58.8-.57.79,0,0,.31-.09,2.39-.09,2.65,0,.17.09.19.24.1.68-.39,1.3-1.12,1.76-1.97.28-.53.99-.09.72.39-.54.98-1.43,1.95-2.5,2.5Z"/>
        <path class="cls-5" d="M60.3,122.95c-.41-.5.36-.93.68-.48.34.48.69,1.18.92,1.84.43-.3.87-.58,1.39-.87.54-.3.95.46.34.76-.8.41-1.61.87-2.24,1.39-.78.66-.8,1.25-.19,1.55.55.28,1.68.07,2.15-.1.66-.25.9.65.2.85-.62.17-1.94.33-2.72-.06-1.13-.57-1.09-1.85.19-2.87.08-.06.15-.13.23-.18-.2-.62-.58-1.39-.95-1.84Z"/>
        <path class="cls-5" d="M66.76,128.3c-.2-.29-.63-.65-.97-.83-.15-.08-.21-.2-.21-.32,0-.18.14-.35.37-.35.28,0,1.54.69,1.54,1.23,0,.25-.21.43-.43.43-.11,0-.22-.06-.3-.17Z"/>
        <path class="cls-5" d="M71.4,124.41c-.63.03-.58-.69-.06-.71.45-.02,1-.03,1.57-.04.05-.35.06-.71.06-1.04,0-.6.83-.54.83.03,0,.3-.02.65-.08,1,.32,0,.63,0,.91,0,.61.02,1.06.34,1.04.98-.02.8-.17,1.94-.5,2.53-.49.87-1.55,1.11-2.32.47-.4-.33.02-1.02.5-.65.43.32.83.18,1.1-.22.31-.46.43-1.54.43-1.95,0-.25-.15-.46-.43-.46-.24,0-.54,0-.86,0-.33,1.43-1.09,2.99-2.49,3.76-.5.28-1-.38-.37-.72,1.08-.58,1.74-1.78,2.05-3.03-.5,0-.98.03-1.38.05Z"/>
        <path class="cls-5" d="M78.68,127.24c1.74-.55,2.77-1.98,3.13-3.14.06-.21.04-.41-.25-.42-.77-.02-2.02.02-3.15.06-.52.02-.57-.76-.02-.78,1.04-.05,2.51-.06,3.51-.04.64,0,1.09.49.86,1.13-.55,1.58-1.51,3.1-3.72,3.95-.67.25-.96-.58-.36-.76Z"/>
        <path class="cls-5" d="M85.46,125.47c-.23,0-.34-.17-.33-.34s.12-.34.35-.33c.76.02,1.76.02,2.61-.02.24-.02.36.16.36.33s-.11.33-.35.34c-.27,0-.61.02-.97.03,0,.45,0,1.01,0,1.37.61,0,1.22,0,1.71,0s.46.72-.06.71c-1.23-.02-2.88-.02-3.98.02-.54.02-.5-.68,0-.69.43,0,1.01-.02,1.61-.02,0-.41,0-1.03,0-1.37-.39,0-.75,0-.98-.02Z"/>
        <path class="cls-5" d="M92.33,123.69c0,1.5-.13,3.27-1.02,4.38-.09.12-.21.17-.33.17-.2,0-.39-.15-.39-.33,0-.06.02-.13.07-.2.76-.98.9-2.32.9-3.65,0-.57-.02-1.13-.03-1.66v-.02c0-.39.25-.69.8-.7.5-.02,1.17-.02,1.86-.02s1.38,0,1.89.02c.83.02.89.41.89.89,0,.37-.06.8-.98.82-.61.02-1.45.02-2.27.02-.48,0-.95,0-1.38,0v.28ZM92.38,128.15c-.2,0-.3-.15-.3-.31s.1-.31.3-.31l1.95.02v-.57h-1.41c-.19,0-.28-.14-.28-.28,0-.15.09-.29.28-.29h1.4v-.27c0-.23.17-.34.35-.34s.35.11.35.34v.27h1.35c.2,0,.31.14.31.29,0,.14-.1.28-.31.28h-1.35v.57l1.88-.02c.2,0,.3.17.3.32s-.09.29-.3.29h-4.51ZM92.32,122.83c.43,0,.91,0,1.39,0,.83,0,1.65,0,2.21-.02.19,0,.27-.11.28-.2v-.16c0-.19-.02-.2-1.79-.2-.65,0-1.29,0-1.76.02-.2,0-.32.12-.32.29v.26ZM95.64,124.46l.07.02c.43.17,1.2.72,1.2,1.07,0,.19-.16.35-.33.35-.09,0-.2-.05-.28-.17-.06-.09-.14-.18-.22-.27-1.71.31-3.16.34-3.2.34-.2,0-.3-.16-.3-.31s.09-.29.26-.29h0c.23,0,.46,0,.71,0,.08-.17.2-.51.27-.75l-1.06.02c-.18,0-.28-.14-.28-.28s.09-.28.28-.28h3.92c.2,0,.3.14.3.28s-.1.28-.3.28h-1.05ZM94.56,124.45c-.05.14-.19.47-.31.72.45-.03.9-.08,1.32-.13-.06-.05-.14-.09-.2-.13-.09-.06-.13-.12-.13-.19,0-.12.11-.24.26-.27h-.95Z"/>
        <path class="cls-5" d="M103.16,124.75c.14.21.54.89.58,1.27.06.56-.4.69-.81.41-.1-.07-.21-.11-.32-.13-.62-.13-1.5-.16-1.95-.02-.44.13-.57.54-.16.78.39.23,1,.32,1.63.28.72-.03.68.84-.07.82-.72-.02-1.42-.13-1.97-.46-.92-.57-.81-1.84.45-2.1.75-.15,1.51-.09,2-.06.12,0,.15-.03.12-.13-.02-.06-.07-.23-.2-.44-.14-.24-.33-.53-.52-.83-.06.02-.1.02-.15.03-.91.2-1.59.15-2.13-.13-.49-.25-.24-.97.32-.69.5.25.94.24,1.53.1-.19-.31-.36-.59-.46-.8-.29-.64.59-.82.75-.25.05.18.2.48.41.84.11-.04.22-.08.34-.12.11-.04.18-.1.29-.16.64-.32.91.44.43.69-.2.1-.43.2-.65.28.18.28.37.57.54.83Z"/>
        <path class="cls-5" d="M108.39,126.85c0-.36.06-.58.04-.94-.04-.87-1.24-.13-1.46.26-.19.34-.41.69-.5,1.07-.14.61-.32.65-.47.67-.28.04-.65-.15-.46-.61.35-.89.8-1.68,1.26-2.39.46-.71.87-1.38,1.25-1.99.13-.22.35-.5.43-.65.26-.46.99-.07.73.43-.06.11-.12.2-.18.28s-.14.17-.23.27c-.38.43-.63.76-.83,1.05-.2.29-.36.54-.54.8-.06.08-.03.06.02.02.28-.25,1.65-.62,1.76.71.02.31-.04.58-.04.87,0,.7.68.61,1.14.2.4-.36.58-.74.72-1.1.23-.58,1.06-.18.76.41-.22.43-.53.95-.99,1.31-.85.67-2.43.84-2.41-.65Z"/>
      </g>
    </g>
  </g>
</svg>