<svg width="86" height="90" viewBox="0 0 86 90" fill="none" xmlns="http://www.w3.org/2000/svg">
<path d="M3.08398 66.0698C10.6554 66.0698 10.6554 70.0698 18.2268 70.0698C25.7981 70.0698 25.7981 66.0698 33.3695 66.0698C40.9409 66.0698 40.9409 70.0698 48.5123 70.0698C56.0837 70.0698 56.0837 66.0698 63.6664 66.0698C71.2491 66.0698 71.2378 70.0698 78.8205 70.0698" stroke="white" stroke-width="2" stroke-miterlimit="10" stroke-linecap="round"/>
<path d="M3.08398 81.0698C10.6554 81.0698 10.6554 85.0698 18.2268 85.0698C25.7981 85.0698 25.7981 81.0698 33.3695 81.0698C40.9409 81.0698 40.9409 85.0698 48.5123 85.0698C56.0837 85.0698 56.0837 81.0698 63.6664 81.0698C71.2491 81.0698 71.2378 85.0698 78.8205 85.0698" stroke="white" stroke-width="2" stroke-miterlimit="10" stroke-linecap="round"/>
<path d="M11.8368 43.2998L5.25678 25.7718H5.14478C5.18211 26.1451 5.21011 26.6211 5.22878 27.1998C5.26611 27.7785 5.29411 28.4131 5.31278 29.1038C5.33145 29.7758 5.34078 30.4665 5.34078 31.1758V43.2998H3.01678V23.3078H6.74078L12.9008 39.6878H13.0128L19.2848 23.3078H22.9808V43.2998H20.4888V31.0078C20.4888 30.3545 20.4981 29.7105 20.5168 29.0758C20.5354 28.4225 20.5634 27.8158 20.6008 27.2558C20.6381 26.6771 20.6661 26.1918 20.6848 25.7998H20.5728L13.9088 43.2998H11.8368ZM39.5911 43.2998H28.4191V23.3078H39.5911V25.5198H30.9391V31.7638H39.0871V33.9478H30.9391V41.0878H39.5911V43.2998ZM59.8257 43.2998H56.8857L46.1897 26.6958H46.0777C46.1151 27.1251 46.1431 27.6385 46.1617 28.2358C46.1991 28.8145 46.2271 29.4398 46.2457 30.1118C46.2831 30.7651 46.3017 31.4371 46.3017 32.1278V43.2998H43.9777V23.3078H46.8897L57.5577 39.8558H57.6697C57.6511 39.5571 57.6231 39.1091 57.5857 38.5118C57.5671 37.9145 57.5391 37.2611 57.5017 36.5518C57.4831 35.8425 57.4737 35.1891 57.4737 34.5918V23.3078H59.8257V43.2998ZM80.4552 36.2438C80.4552 37.6251 80.1752 38.8758 79.6152 39.9958C79.0552 41.0971 78.1965 41.9745 77.0392 42.6278C75.9005 43.2625 74.4445 43.5798 72.6712 43.5798C70.1885 43.5798 68.2938 42.9078 66.9872 41.5638C65.6992 40.2011 65.0552 38.4091 65.0552 36.1878V23.3078H67.5752V36.2718C67.5752 37.8958 68.0045 39.1558 68.8632 40.0518C69.7405 40.9478 71.0565 41.3958 72.8112 41.3958C74.0245 41.3958 75.0045 41.1811 75.7512 40.7518C76.5165 40.3038 77.0765 39.6971 77.4312 38.9318C77.7858 38.1478 77.9632 37.2518 77.9632 36.2438V23.3078H80.4552V36.2438Z" fill="white"/>
</svg>
