<?xml version="1.0" encoding="UTF-8"?>
<svg xmlns="http://www.w3.org/2000/svg" version="1.1" viewBox="0 0 226 308.8">
  <defs>
    <style>
      .cls-1 {
        fill: #fff;
      }
    </style>
  </defs>
  <!-- Generator: Adobe Illustrator 28.6.0, SVG Export Plug-In . SVG Version: 1.2.0 Build 709)  -->
  <g>
    <g id="_x32_">
      <path class="cls-1" d="M135.5,11c-2.6,2.3-4.9,5.4-6.3,9-1.6,3.9-2.9,8.8-4.3,14.4-2,8.4-3.8,18.1-5.1,26.7-.7,4.3-1.2,8.3-1.5,11.7-.3,3.5-.5,6.2-.4,8.7.1,2.1.6,4.1,1.4,6,2.3,5.6,6.5,9.7,11.4,12.6,4.9,2.9,10.7,4.6,16.8,4.5.8,0,1.4,0,1.9,0-1.5,7.6-6.6,26.9-23.9,59.2-11.9,22.2-21.8,36.2-28.7,44.6-3.1,3.8-5.6,6.4-7.3,8.1-.3-.4-.7-.9-1.1-1.6-3.6-5.6-8.8-9.7-14.5-12.2-2.9-1.2-5.9-2-9.1-2.2-3.1-.2-6.4.1-9.6,1.4s-1.7.7-2.5,1.2c-1.5.9-2.9,1.9-4.5,3.1-5.6,4.3-13.6,11.6-21.4,19.2-3.9,3.8-7.6,7.7-10.9,11.3-3.3,3.6-6.1,6.9-8.2,10-3,4.3-4.3,9.3-4.3,13.7,0,4.5,1,8.5,2.4,12,1.3,3.2,2.9,6,4.5,8.3.8,1.1,1.6,2.2,2.5,3.1.8.9,1.6,1.7,2.7,2.5h0s0,0,0,0l-.3.4.5-.3c.4.3,1.2.9,2.2,1.7,4.6,3.5,13.9,10,26.8,14.2,12.8,4.1,29.4,5.7,47-1.4,3.8-1.5,7.6-3.4,11.4-5.7,41.6-25.2,70-60.8,88.8-95.9,18.8-35.2,32.7-78.6,30.5-127.1-.4-8.9-2.2-16.9-5-23.9-6.7-16.8-18.8-27.5-29.4-34.1-5.3-3.3-10.3-5.6-14.2-7.2-2-.8-3.6-1.4-5-1.8-1.3-.4-2.3-.8-2.5-.8-1.6-.5-2.9-.8-4.6-1-4.8-.5-11.2-.3-18,2.3-2.8,1.1-5.7,2.8-8.3,5.1ZM85.7,285.9c-7.8,3.1-15,4-21.7,3.6-10.1-.5-19.1-4-25.9-7.7-3.4-1.8-6.2-3.7-8.3-5.2-1.1-.7-1.9-1.4-2.6-2-.7-.5-1.1-.9-1.6-1.3-.1,0-1-1-1.9-2.3-.9-1.3-1.8-2.9-2.5-4.7-.8-2-1.2-4-1.2-5.7,0-1.7.4-3.1,1.4-4.6,1.5-2.2,4.5-5.8,8.1-9.7,5.4-5.9,12.3-12.6,18.4-18.1,3-2.8,5.9-5.3,8.3-7.2,2.3-1.9,4.3-3.3,4.9-3.6l.4-.2c.5-.2,1.3-.4,2.4-.3,1.6.1,3.9.8,5.9,2,2,1.2,3.9,3,5.1,4.9,1.6,2.5,3.3,4.5,5.1,6.1,2.7,2.4,5.8,3.8,8.6,4.1,2.8.4,5-.2,6.3-.7l.8-.4,1.2-.7c1.1-.8,18.7-14.6,43.3-60.6,24.6-46,26.3-68.3,26.4-69.7v-1.5c-.1-.6-.3-1.5-.8-2.7-.8-2.1-2.8-4.9-6-6.8-3.2-1.9-7.4-2.8-12.4-2.7-2.7,0-5.8-.8-8.2-2.2-2.5-1.4-4.1-3.4-4.5-4.6l-.3-1c0-.4,0-1.7,0-3.3.4-5.8,1.9-16.3,3.8-26.5,1-5.1,2-10.1,3.1-14.4,1.1-4.3,2.2-8,3.1-10.2.5-1.3,1.2-2.2,2.1-3,.9-.8,2.1-1.5,3.4-2.1,2.2-.9,4.9-1.3,7.2-1.4,1.1,0,2.2,0,3,.1h.9c0,.1.2.2.2.2.7.2,1.4.5,2.5.8,3.8,1.3,11.4,4.2,19.1,9.6,7.7,5.4,15.2,13.1,19.6,24.1,2.1,5.3,3.5,11.4,3.8,18.6,2,44.9-10.8,85.5-28.6,118.7-17.8,33.2-44.4,66.4-82.8,89.7-3.1,1.9-6,3.3-9,4.5Z"/>
    </g>
  </g>
</svg>